<svg width="32" height="32" viewBox="0 0 32 32" fill="none" xmlns="http://www.w3.org/2000/svg">
<g clip-path="url(#clip0_85_545)">
<path d="M16.0349 29.2925C15.7638 29.398 12.2808 27.0766 10.5733 25.9027L10.3286 25.4884L10.2344 24.6033L11.0442 24.7916L12.0046 25.3189L14.1138 26.6937L16.3361 28.6146C16.3486 28.7966 16.306 29.1871 16.0349 29.2925Z" fill="#453040"/>
<path d="M5.77911 0.501151L13 9.19178C12.5195 9.88448 11.9923 10.604 11.5303 11.3005C11.4069 11.2264 11.3053 11.1197 11.2127 11.0111C9.89374 9.45697 8.70005 7.77061 7.39199 6.20501C6.95746 4.49884 6.344 2.8342 5.87432 1.1408C5.80147 0.877529 5.77847 0.754841 5.77911 0.501151Z" fill="#DCDED8"/>
<path d="M13.4456 5.80545C13.5184 5.90258 13.2341 6.14796 13.3299 6.30643C13.3497 6.33902 13.6565 6.40356 13.4462 6.54223C13.3759 6.58888 13.2967 6.51731 13.2315 6.53009C13.1523 6.54542 13.0928 6.60677 13.0213 6.61827C12.9324 6.63233 12.7043 6.47897 12.758 6.7857C12.7721 6.86557 12.9062 6.90264 12.8705 7.01958L12.5522 6.89177C12.5414 7.29052 12.3829 7.06942 12.2104 7.08156C12.1727 7.08412 12.0551 7.32055 11.9925 7.33653C11.5905 7.43813 11.7503 7.15633 11.6257 7.0183C11.5911 6.97996 11.2122 6.86749 11.1649 6.81253C11.0787 6.71157 10.8684 6.24189 10.7259 6.06552C10.4684 5.74601 9.9099 5.2872 9.73417 4.94277C9.66196 4.80219 9.76164 4.72295 9.68304 4.62134C9.31497 4.14144 8.83251 4.0769 8.50086 3.43405C8.43057 3.29858 8.05803 2.60013 8.04205 2.55093C7.98646 2.37648 8.02863 2.15538 7.94939 1.97198C7.82414 1.88379 7.52381 2.47105 7.1781 1.87996C7.12378 1.7873 7.13912 1.66334 7.10205 1.60646C7.04327 1.517 6.77232 1.49783 6.86434 1.2058C7.14615 1.12145 7.13337 1.34638 7.19344 1.39047C7.22794 1.4154 7.35958 1.33296 7.45607 1.34574C7.54426 1.35724 8.88619 2.01607 9.05745 2.11192C9.2581 2.22439 9.51371 2.53559 9.61275 2.57904C9.75461 2.64167 9.91565 2.59183 10.0613 2.64167C10.3821 2.75158 11.1541 3.18739 11.4646 3.3791C11.4895 3.39443 11.5055 3.42638 11.5285 3.443C11.5177 3.60403 11.6474 3.6264 11.7202 3.6986C11.7637 3.74206 11.8046 3.78232 11.848 3.82641C12.0276 4.17212 12.2608 4.77407 12.6788 4.84883C12.6979 4.8712 12.7235 4.88973 12.7427 4.91274C12.8321 5.08974 12.8213 5.36708 13.0622 5.29615C13.0813 5.31851 13.1069 5.33704 13.1261 5.36005C13.0762 5.78563 13.4136 5.76455 13.4456 5.80736L13.4456 5.80545Z" fill="#445063"/>
<path d="M12.9974 9.19214L5.77656 0.501509C5.77656 0.433134 5.70498 0.360922 5.74396 0.311079L11.2523 3.1087L11.4638 3.37709C11.1532 3.18538 10.3807 2.74957 10.0605 2.63966C9.91419 2.58981 9.7538 2.63966 9.61193 2.57703C9.51289 2.53358 9.25728 2.22238 9.05663 2.10991C8.88601 2.01406 7.54344 1.35524 7.45525 1.34373C7.35876 1.33159 7.22712 1.41402 7.19262 1.38846C7.13255 1.34437 7.14533 1.11944 6.86352 1.20379C6.7715 1.49582 7.04245 1.51435 7.10124 1.60445C7.13894 1.66196 7.1236 1.78593 7.17728 1.87795C7.52299 2.46904 7.82333 1.88242 7.94857 1.96997C8.02845 2.15273 7.98564 2.37447 8.04123 2.54892C8.05721 2.59812 8.42975 3.29657 8.50004 3.43204C8.83169 4.07489 9.31351 4.14007 9.68223 4.61933C9.76019 4.72094 9.66114 4.80017 9.73335 4.94076C9.90908 5.28519 10.4676 5.744 10.7251 6.06351C10.867 6.23988 11.0778 6.7102 11.1641 6.81052C11.2114 6.86548 11.5903 6.97794 11.6248 7.01628C11.7494 7.15431 11.5897 7.43612 11.9916 7.33452C12.0543 7.31854 12.1718 7.08211 12.2095 7.07955C12.3821 7.06741 12.5399 7.28915 12.5514 6.88976L12.8696 7.01756C12.9054 6.90062 12.7712 6.86356 12.7572 6.78369C12.7035 6.47696 12.9316 6.63096 13.0204 6.61626C13.092 6.60476 13.1514 6.54341 13.2307 6.52808C13.2959 6.5153 13.3751 6.58687 13.4454 6.54022C13.6563 6.40155 13.3489 6.33701 13.3291 6.30442C13.2332 6.14595 13.5176 5.90056 13.4448 5.80343C13.4128 5.76062 13.0754 5.7817 13.1252 5.35612C13.2575 5.51587 13.3559 5.69672 13.4448 5.80343C13.4518 5.81238 13.5496 5.81046 13.5994 5.86989C13.9151 6.24755 14.218 6.63863 14.5311 7.01756C14.5483 7.16709 13.1968 8.9033 12.9974 9.19022L12.9974 9.19214Z" fill="#453040"/>
<path d="M12.6758 4.84668C12.2579 4.77191 12.0246 4.16996 11.8451 3.82425C12.1658 4.15207 12.3972 4.51759 12.6758 4.84668Z" fill="#453040"/>
<path d="M13.0625 5.29408C12.822 5.36488 12.8329 5.08804 12.7436 4.91134C12.8514 5.03828 12.956 5.16586 13.0625 5.29408Z" fill="#453040"/>
<path d="M11.527 3.44068C11.6255 3.51225 11.7194 3.54548 11.7187 3.69629C11.6459 3.62408 11.5162 3.60171 11.527 3.44068Z" fill="#453040"/>
<mask id="mask0_85_545" style="mask-type:alpha" maskUnits="userSpaceOnUse" x="6" y="4" width="21" height="24">
<path d="M6.99872 7.58981C9.76938 6.53766 15.3738 4.43335 15.6263 4.43335L25.4113 7.06373L26.3583 11.9036L24.8853 19.4265L21.308 24.6872L15.8894 27.5806L10.9443 24.6872L7.73524 19.1634L6.47266 13.7449L6.99872 7.58981Z" fill="#D02921"/>
</mask>
<g mask="url(#mask0_85_545)">
<path d="M8.10375 7.18246L12.4681 6.73218L16.486 10.0227L20.504 6.73218L24.799 7.18246L27.189 10.8887V14.491L25.4918 18.2665L21.8895 21.9034L16.486 25.2979L10.944 21.9034L7.34171 18.2665L5.64453 14.491V10.8887L8.10375 7.18246Z" fill="#D9D9D9"/>
<path d="M8.10375 7.18246L12.4681 6.73218L16.486 10.0227L20.504 6.73218L24.799 7.18246L27.189 10.8887V14.491L25.4918 18.2665L21.8895 21.9034L16.486 25.2979L10.944 21.9034L7.34171 18.2665L5.64453 14.491V10.8887L8.10375 7.18246Z" fill="#EC6963"/>
<path d="M14.2394 2.64479C14.1835 2.87658 14.2048 3.06739 14.1807 3.30761C13.9994 5.09483 13.8133 7.02184 13.736 8.81106C13.7308 8.9384 13.7075 9.08623 13.797 9.19268L13.7167 9.27302C12.7215 11.4837 11.7159 13.6936 10.7629 15.9215L11.5063 23.2125L11.5063 23.2928L7.81968 26.9795C8.0651 27.294 8.66067 27.4703 8.96233 27.7174C9.61949 28.2556 10.6989 29.4852 11.3641 29.821C11.4906 29.8849 11.5685 30.0399 11.6894 30.1464C11.8324 30.2725 11.7738 30.4484 11.8272 30.5244C10.2188 30.367 8.59746 30.3422 6.98662 30.2242C6.58451 30.1949 6.08439 30.0797 5.70116 30.066C5.58306 30.062 5.5208 30.0568 5.44005 30.1625C5.2866 30.1223 4.80936 30.1223 4.73144 29.9858L2.40542 20.0999L2.45338 12.0657L4.95967 5.73858L4.99985 5.61807C5.08783 5.57588 5.16014 5.51 5.24089 5.45737C5.80451 5.08896 6.48583 4.76434 7.06874 4.39352C7.70065 3.99136 8.51697 3.28912 9.09747 2.96651C9.10349 2.96289 9.17821 2.99583 9.23686 2.9677C10.9213 2.15493 12.858 1.47952 14.601 0.75673C14.6384 0.741061 14.6806 0.657101 14.7216 0.63621L14.8019 0.636204C14.9047 0.605667 15.6459 0.451762 15.6857 0.47546C15.4205 0.751854 15.1811 1.06681 14.9625 1.37935C14.7275 1.7148 14.3278 2.27682 14.2394 2.64479Z" fill="#CC2327"/>
<path d="M9.10156 3.13086L13.8236 9.24166L4.79655 7.92222L9.10156 3.13086Z" fill="#C01815"/>
<path d="M4.80859 7.89404L8.58479 12.6099L2.5378 11.6373L4.80859 7.89404Z" fill="#C01815"/>
<path d="M5.39912 12.7019L2.30498 20.4563L2.54029 11.6374L5.39912 12.7019Z" fill="#C01815"/>
<path d="M8.64461 12.6785L13.8178 9.24135L4.79074 7.92191L8.64461 12.6785Z" fill="#C51916"/>
<path d="M8.6492 12.6785L10.8153 16.0039L2.73538 11.6767L8.6492 12.6785Z" fill="#C51916"/>
<path d="M8.64798 12.6782L13.8211 9.24106L10.746 15.9518L8.64798 12.6782Z" fill="#D9221E"/>
<path d="M5.29153 12.9301L2.44592 19.773L10.746 15.952L5.29153 12.9301Z" fill="#D2211A"/>
<path d="M11.5445 23.3849L5.35867 18.5642L10.748 15.9521L11.5445 23.3849Z" fill="#CB2019"/>
<path d="M11.5413 23.3851L5.35546 18.5644L2.32624 20.1425L11.5413 23.3851Z" fill="#DB261C"/>
<path d="M11.5413 23.3851L4.50226 30.4241L2.32624 20.1425L11.5413 23.3851Z" fill="#CE211B"/>
<path d="M33.123 17.4262C33.5206 17.9171 34.0766 18.4617 34.4268 18.9727C34.4614 19.0233 34.4806 19.0715 34.475 19.1334L33.0187 26.0027C31.7721 27.336 30.3741 28.5244 29.0849 29.8232L28.623 29.9598C28.7792 29.8646 28.9721 29.8566 29.0436 29.6589C29.0601 29.6135 29.1272 28.7671 29.1216 28.6924C29.1156 28.6109 29.0806 28.5968 29.0649 28.5538C29.0196 28.4289 28.9874 28.4281 28.9444 28.353C28.4697 27.5247 27.7744 26.741 27.2084 25.9629C26.1299 24.4787 25.0398 22.9972 24.0039 21.4841C25.0388 19.89 26.4634 18.2469 27.6108 16.6834C27.7502 16.4934 27.9776 16.2813 28.1017 16.1009C28.1993 15.9535 28.2355 16.0876 28.3427 16.1812L31.9762 22.1865L29.2269 28.2915L29.2658 28.4333C30.4248 27.5964 31.7923 27.0444 32.8271 26.0449C33.0321 25.2029 33.2273 24.3577 33.417 23.5125C33.6762 22.3583 33.8353 21.1653 34.0969 20.0176C34.1464 19.8018 34.4151 19.2278 34.3332 19.0534C34.2942 18.9703 34.2003 18.9277 34.1673 18.8731C33.8428 18.3348 33.3901 17.9946 33.123 17.427L33.123 17.4262Z" fill="#F08C83"/>
<path d="M29.0622 28.5541C27.1765 29.6895 25.2519 30.777 23.3758 31.9293C23.2987 31.9767 23.2488 32.057 23.197 32.0896C23.0833 32.1599 22.9825 32.2583 22.8556 32.3105C20.1874 32.3155 17.4988 32.2904 14.8218 32.3894C11.6949 31.6513 8.54396 30.9734 5.44201 30.163C5.52276 30.0573 5.58503 30.0625 5.70313 30.0665C6.08676 30.0798 6.58688 30.195 6.98859 30.2247C8.59903 30.3423 10.2207 30.3675 11.8292 30.5249C11.8677 30.5795 12.7836 31.186 12.9338 31.2864C13.5781 31.7154 14.4301 32.3585 15.2235 32.2271C16.5548 32.0061 18.0042 31.2323 19.3616 31.0076C19.9196 30.4014 20.4182 29.7397 20.9079 29.0781C20.9822 28.9556 21.0887 29.0733 21.208 29.0624C23.2945 28.8703 25.3886 28.7942 27.4755 28.6137C27.8141 28.5843 28.3773 28.565 28.6806 28.4979C28.7979 28.4722 28.8658 28.4694 28.9417 28.3541C28.9847 28.4292 29.0172 28.4296 29.0622 28.5549L29.0622 28.5541Z" fill="#E03E36"/>
<path d="M30.7931 14.5341C30.6915 14.414 30.561 14.3156 30.4581 14.1927C30.1999 13.883 30.3409 13.6689 29.7688 13.6392C28.0564 13.5513 26.0892 13.8025 24.3458 13.834C23.5239 13.8485 22.667 13.8498 21.862 13.7944C21.8162 13.5437 22.0372 13.2866 21.9801 13.0287C21.9135 12.729 21.852 12.9263 21.6965 12.9508C21.6355 12.9604 21.1607 12.9998 21.1325 12.995C20.9598 12.9661 20.8988 12.7307 20.7108 12.8079C20.2758 10.9002 19.8281 8.98365 19.359 7.0836C19.304 6.85985 19.267 6.62204 19.1445 6.42079C19.8263 5.92544 20.3987 5.24611 21.0724 4.73388L15.8911 0.676575C15.8212 0.625161 15.7569 0.515901 15.6902 0.475734C15.6505 0.452036 14.9093 0.605942 14.8065 0.636479C14.7892 0.641702 14.7502 0.624431 14.7261 0.636484C14.6851 0.657376 14.643 0.741336 14.6056 0.757005L13.9428 0.837392C12.6601 1.3119 10.7849 1.29757 9.56288 1.75962C9.45964 1.79859 9.11817 1.97858 9.07639 2.05973C8.97715 2.25054 9.19686 2.72575 9.10244 2.96718C8.52195 3.2898 7.70522 3.99244 7.07371 4.39419C6.4908 4.76501 5.80948 5.08964 5.24586 5.45805C5.22096 5.34959 5.35835 5.26522 5.42544 5.19652C6.53745 4.06121 7.62375 2.91306 8.7209 1.76128C11.0384 1.31402 13.3579 0.855108 15.6497 0.289746L21.1781 4.62903L21.9412 12.6266L22.0167 12.8154L30.0504 13.5914C30.2838 13.6785 30.6931 14.2839 30.7935 14.5337L30.7931 14.5341Z" fill="#EA544B"/>
<path d="M30.789 14.5342C31.5868 15.4782 32.3387 16.4639 33.1188 17.4264C33.3859 17.994 33.8386 18.3342 34.1631 18.8725L28.459 16.142L28.4594 16.3015C28.4168 16.2646 28.3815 16.2188 28.3389 16.1818C28.2317 16.0882 28.1955 15.9541 28.0979 16.1015C28.1047 16.0914 28.0834 16.0051 28.1377 15.9798C25.9705 15.3263 23.7844 14.6998 21.6108 14.0504C21.3413 13.9809 21.371 13.7455 21.2288 13.5712C21.1465 13.6487 21.0706 13.7343 20.9878 13.8122C20.95 13.6708 20.838 13.4832 20.7934 13.3101C20.7488 13.137 20.7428 12.9654 20.7067 12.808C20.8947 12.7308 20.9553 12.9658 21.1284 12.9951C21.1566 13 21.6314 12.9606 21.6925 12.9509C21.8483 12.9268 21.9094 12.7292 21.9761 13.0288C22.0335 13.2871 21.8121 13.5438 21.8579 13.7945C22.6629 13.8499 23.5198 13.8486 24.3417 13.8341C26.0851 13.8034 28.0523 13.5514 29.7647 13.6393C30.3368 13.669 30.1954 13.8827 30.454 14.1928C30.5569 14.3165 30.6874 14.4141 30.789 14.5342Z" fill="#E03E36"/>
<path d="M28.6213 29.9596C27.4017 30.702 25.044 31.4369 23.6203 32.0026C23.5175 32.0436 23.2781 32.2011 23.1981 32.089C23.2503 32.0568 23.3002 31.9765 23.3769 31.9287C25.2525 30.7761 27.1772 29.6885 29.0633 28.5535C29.079 28.5965 29.1139 28.6106 29.1199 28.6921C29.1256 28.7669 29.0588 29.6129 29.0419 29.6587C28.9704 29.8563 28.7776 29.8643 28.6213 29.9596Z" fill="#EA544B"/>
<path d="M20.9043 29.0767C20.415 29.738 19.916 30.4 19.358 31.0062C18.0006 31.2309 16.5512 32.0047 15.2199 32.2257C14.4261 32.3575 13.5745 31.714 12.9302 31.2851C12.7796 31.185 11.8469 30.5735 11.8469 30.5735L11.6185 30.3787L11.2658 30.0872L8.59198 27.8523L7.68779 27.1088L11.5047 23.2919C14.6379 25.1838 17.704 27.1909 20.8645 29.0361L20.9047 29.0763L20.9043 29.0767Z" fill="#E12C27"/>
<path d="M17.9724 16.8248C17.9592 16.838 17.9455 16.8517 17.9323 16.865C15.828 18.9644 13.7285 21.0719 11.625 23.1722L11.5045 23.2124L10.761 15.9214C11.7144 13.6931 12.7201 11.4832 13.7148 9.27295L17.9724 16.8248Z" fill="#EA544B"/>
<path d="M23.8786 21.6045C23.8236 21.7141 23.7826 22.0267 23.7131 22.1869C22.7352 24.4599 21.8665 26.7754 20.8653 29.0363C17.7048 27.191 14.6387 25.1839 11.5059 23.2925L11.5059 23.2121L11.6264 23.172L23.8786 21.6045Z" fill="#E03E36"/>
<path d="M20.7071 12.8077C20.7428 12.9648 20.75 13.1407 20.7938 13.3098C20.8376 13.4789 20.9505 13.6706 20.9882 13.812C19.9638 14.7689 18.9715 15.8311 17.9752 16.825L13.7176 9.27314L13.7979 9.19279L19.1408 6.42063C19.2634 6.62188 19.2999 6.86009 19.3553 7.08344C19.8244 8.98349 20.2726 10.8996 20.7071 12.8077Z" fill="#F08C83"/>
<path d="M15.8907 0.675713L21.0725 4.73262C20.3988 5.24484 19.8267 5.92457 19.1445 6.41953L13.8016 9.19169C13.712 9.08524 13.7354 8.93741 13.7406 8.81007C13.8174 7.02045 14.004 5.09384 14.1853 3.30662C14.2094 3.0664 14.1889 2.87559 14.244 2.6438L18.9646 6.23636L19.1044 6.21868C17.9777 4.40905 16.9434 2.53113 15.8915 0.674909L15.8907 0.675713Z" fill="#E03E36"/>
<path d="M15.8883 0.676419C16.9407 2.53224 17.975 4.41096 19.1012 6.22018L18.9614 6.23787L14.2408 2.64531C14.3288 2.27774 14.7289 1.71532 14.964 1.37987C15.1825 1.06733 15.4224 0.751972 15.6871 0.47598C15.7538 0.516146 15.8181 0.625406 15.8879 0.67682L15.8883 0.676419Z" fill="#E12C27"/>
<path d="M14.601 0.756979C12.8575 1.47937 10.9208 2.15478 9.2368 2.96795C9.17815 2.99608 9.10383 2.96354 9.09741 2.96676C9.19183 2.72532 8.97252 2.25052 9.07136 2.0593C9.11354 1.97855 9.45461 1.79816 9.55785 1.75919C10.7799 1.29714 12.6551 1.31147 13.9377 0.836964L14.6006 0.756577L14.601 0.756979Z" fill="#E03E36"/>
<path d="M28.0963 16.101C27.9717 16.281 27.7444 16.4939 27.6053 16.6836C26.4584 18.2467 25.0342 19.8902 23.9985 21.4842C23.9708 21.5272 23.8976 21.5658 23.878 21.6047L11.6257 23.1722C13.7292 21.072 15.8287 18.9645 17.933 16.865C18.0202 16.8678 18.127 16.8019 18.1861 16.7436C19.1109 15.8285 19.9746 14.8378 20.9319 13.9512C20.9753 13.8965 21.0079 13.8929 20.9862 13.8118C21.0689 13.7347 21.1449 13.6483 21.2272 13.5707C21.3694 13.7451 21.3397 13.9805 21.6092 14.05C23.7828 14.6994 25.9689 15.3259 28.1361 15.9793C28.0818 16.0038 28.1031 16.091 28.0963 16.101Z" fill="#E12C27"/>
<path d="M28.9393 28.3529C28.8633 28.4682 28.7954 28.4711 28.6781 28.4968C28.3748 28.5631 27.8116 28.5832 27.473 28.6125C25.3861 28.7931 23.292 28.8691 21.2055 29.0613C21.0858 29.0725 20.9793 28.9548 20.9054 29.077L20.8653 29.0368C21.8665 26.7759 22.7359 24.4604 23.713 22.1875C23.7821 22.0268 23.8235 21.7146 23.8786 21.605C23.8983 21.566 23.9714 21.5274 23.9991 21.4845C25.035 22.9976 26.1251 24.4791 27.2036 25.9633C27.7692 26.7418 28.4645 27.5247 28.9397 28.3533L28.9393 28.3529Z" fill="#EA544B"/>
<path d="M34.1624 18.8723C34.1954 18.927 34.2898 18.97 34.3283 19.0527C34.4102 19.227 34.1411 19.8015 34.092 20.0168C33.8296 21.1645 33.6713 22.3576 33.4121 23.5117C33.222 24.3573 33.0268 25.2026 32.8222 26.0441C31.7874 27.0437 30.4199 27.5957 29.2609 28.4326L29.222 28.2908L31.9713 22.1858L28.3378 16.1805C28.3804 16.2174 28.4161 16.2636 28.4583 16.3002L28.4579 16.1407L34.162 18.8711L34.1624 18.8723Z" fill="#EA544B"/>
<path d="M17.9342 16.8648C17.9474 16.8515 17.9611 16.8379 17.9744 16.8246C18.9707 15.8307 19.963 14.7685 20.9874 13.8116C21.0091 13.8928 20.9761 13.896 20.9331 13.951C19.9758 14.8376 19.1121 15.8283 18.1873 16.7435C18.1286 16.8021 18.0218 16.8672 17.9342 16.8648Z" fill="#CC2327"/>
<rect x="5.78125" y="3.29736" width="21.0234" height="24.8704" fill="#FF9D00" fill-opacity="0.6"/>
</g>
<path d="M4.96513 13.9537L5.02903 14.2739C5.36132 14.3563 5.08782 14.0592 5.3479 14.0822C5.37218 14.1889 5.28208 14.3141 5.284 14.401C5.28719 14.5397 5.69488 14.9647 5.82972 14.9781C5.96455 14.9915 6.45723 14.7205 6.48918 14.6164C6.50835 14.5538 6.43806 14.4956 6.43487 14.4649C6.41122 14.2656 6.38119 14.139 6.30706 13.9537C6.53263 14.1716 6.50963 14.2234 6.88218 14.2093C7.19593 15.403 7.52439 16.5954 7.8407 17.7878C7.97553 18.2952 8.10845 19.2819 8.27204 19.6889C8.50208 20.2608 9.56157 21.5504 9.94946 22.1331C10.3878 22.7926 10.7585 23.6796 11.3553 24.178C12.2883 24.9563 14.3785 26.028 15.5159 26.6312C15.6092 26.6804 16.038 26.9021 16.084 26.8612C16.1013 26.8459 16.0668 26.6906 16.084 26.6702C16.0917 26.6612 16.2374 26.6593 16.3192 26.621C16.6898 26.4465 17.0362 26.2216 17.4049 26.042L17.9372 25.6477C17.9544 25.6388 17.9953 25.658 18.0011 25.6477C18.095 25.6433 18.1615 25.6113 18.1928 25.5199C18.2043 25.5161 18.2247 25.4682 18.2567 25.456C18.8203 25.2452 19.0229 25.0579 19.5155 24.7659C19.7405 24.6323 20.6223 24.2055 20.7316 24.0968C20.9444 23.886 21.4249 22.9089 21.6435 22.5805C22.3106 21.5772 23.0205 20.5976 23.6372 19.5579C24.1861 17.9642 24.351 15.8836 24.9465 14.3493C24.9881 14.2419 25.0041 14.1212 25.1574 14.1454C25.0443 14.2918 25.16 14.5084 25.1574 14.5282C25.0009 16.0957 24.0768 18.039 23.8602 19.6531L20.9469 24.0949C20.8984 24.279 21.2211 24.4956 21.3872 24.4969C21.4786 24.8707 21.4601 25.0151 21.8984 24.9442C21.8805 25.0912 21.7444 25.1634 21.7694 25.3538C21.786 25.4835 21.9662 25.7084 22.0901 25.7749C22.0141 25.8414 21.9828 25.9347 21.8563 26.0203C20.4255 26.9846 18.1857 28.2703 16.638 29.0454C16.4387 29.1451 16.1607 29.3349 15.9402 29.2889C15.8789 29.2761 15.8521 29.1726 15.8284 29.1617C15.7473 28.7444 15.1204 28.6351 14.8085 28.4243C14.252 28.0472 12.4282 26.6146 12.0282 26.1551C11.97 26.088 11.9592 25.9487 11.9132 25.9155C11.864 25.8803 11.7496 25.9136 11.7387 25.9021C11.6429 25.8017 11.8409 25.596 11.9943 25.6458C11.9125 25.1832 11.6556 25.5608 11.5202 25.5167C11.4537 25.495 11.4416 25.3717 11.4007 25.3461C11.1949 25.219 11.2722 25.3065 11.0991 25.1346C11.1745 25.0624 11.2479 24.8873 11.2205 24.7927C11.1655 24.6042 10.5904 24.4317 10.4581 24.5212C10.3872 24.5697 10.3297 24.8458 10.3322 24.9423C10.3354 25.0669 10.4568 25.3321 10.531 25.4151C10.6326 25.5282 10.8748 25.5193 10.8319 25.7321C10.816 25.812 10.6217 25.9474 10.545 25.9538C10.5207 25.9557 10.1118 25.7723 10.0932 25.7557C10.0415 25.7078 9.991 25.4151 9.9124 25.3295C9.83891 25.2496 9.68491 25.226 9.56158 25.1052C9.25804 24.8074 8.49633 23.7735 8.22284 23.4086C8.05286 23.1818 7.48413 22.1133 7.28731 22.0814C7.22213 22.0705 7.22166 22.022 7.17182 21.9965C7.11462 21.9174 7.12206 21.9238 7.09039 21.877C7.04704 21.8131 7.01489 21.7615 6.98 21.7128C6.92508 21.6362 6.90442 21.5423 6.90442 21.5423L6.64551 21.05C6.64551 21.05 6.58759 20.9305 6.5288 20.788C5.7639 18.931 5.59839 16.2881 4.91209 14.348C4.85266 14.2119 4.96321 14.0579 4.96257 13.9512L4.96513 13.9537ZM8.03241 20.4078C8.00237 20.2953 7.89246 19.9445 7.84454 19.8704C7.72312 19.6819 7.68798 20.048 7.54612 20.0749C7.44068 20.0947 7.16398 19.9682 7.00934 20.0244C7.02596 20.1867 6.98634 20.381 7.00934 20.5356C7.06494 20.905 7.76785 21.0717 8.03752 20.6321C8.12315 20.4928 8.05861 20.5075 8.03177 20.4078H8.03241ZM21.5789 25.4554C21.7936 25.1346 20.9846 25.1525 20.8773 25.0087C20.467 25.6311 21.4818 25.6011 21.5789 25.4554ZM16.4035 27.9482C16.3882 28.1118 16.2208 28.2888 16.0546 28.2715C15.9358 28.2594 15.9006 28.1482 15.8239 28.1099C15.7421 28.069 15.5875 28.0856 15.5754 28.0734C15.5268 28.0249 15.668 27.7514 15.445 27.821C15.3977 28.2792 15.5166 28.3265 15.8457 28.5252C15.8917 28.5527 15.8885 28.653 15.9287 28.6543C16.1307 28.6613 16.8093 28.177 16.4668 27.9488C16.5307 27.9469 16.5946 27.952 16.6585 27.9488C16.762 27.5411 16.4189 27.5571 16.116 27.4363C16.0348 27.7431 16.0955 27.9054 16.4029 27.9482H16.4035Z" fill="#ADB0A7"/>
<path d="M16.3993 2.38759C16.3654 2.54224 16.4779 2.51987 16.5673 2.5678C17.5041 3.06559 18.4678 3.51546 19.4039 4.01581C19.9247 4.29442 20.6232 4.79797 21.128 5.00756C20.9944 5.267 20.9548 5.35391 20.9363 5.64658C20.935 5.66383 20.8289 5.69003 20.9293 5.80761C21.0296 5.92519 21.2469 5.92903 21.3197 6.09389C21.3031 6.10795 21.2469 6.32458 21.128 6.3495C19.5899 5.80122 17.8818 5.48043 16.3386 4.90851L15.9258 4.88423C14.3646 5.44721 12.6789 5.78461 11.1261 6.34758C9.80909 6.82557 8.46715 7.52848 7.1987 8.10616C7.58403 8.3918 7.39488 8.72281 7.38977 9.06532C7.38466 9.40783 7.40638 9.75035 7.39169 10.0897C7.34568 11.1568 7.00764 13.2113 7.13352 14.1449C7.05109 14.1551 6.95588 14.2056 6.87792 14.2088C6.50537 14.2228 6.52837 14.1711 6.3028 13.9532C6.21845 13.872 6.329 13.8758 6.1111 13.7615C5.86188 13.6311 5.45227 13.4752 5.47208 13.8893C5.71618 13.872 5.77561 13.8413 5.85549 14.081C5.79926 14.1602 5.73663 14.2331 5.72769 14.3366C5.64397 14.3359 5.42224 14.4605 5.28037 14.4005C5.27846 14.3136 5.36792 14.1877 5.34428 14.0816C5.0842 14.0592 5.35706 14.3557 5.02541 14.2733L4.9615 13.9532C4.9615 13.8893 4.9615 13.8254 4.9615 13.7615C5.05736 13.7525 5.05736 13.5787 4.9615 13.5698C4.95064 11.2603 5.09953 8.95349 5.08547 6.64345C5.10528 6.57188 5.51745 6.51053 5.60052 6.47666C5.66059 6.60574 5.80373 6.49775 5.88744 6.47666C6.05678 6.43385 6.39418 6.39423 6.51304 6.3348C6.6319 6.27537 6.67918 6.10795 6.82168 6.00443C7.19487 5.73285 8.47546 5.28426 8.98731 5.07082C9.76947 4.74493 10.5663 4.43309 11.3517 4.1123C12.9 3.47903 14.4765 2.90839 15.9967 2.20483C16.159 2.3205 16.2357 2.33391 16.3999 2.38695L16.3993 2.38759ZM16.0798 2.96271C15.5602 2.96718 15.3973 3.32375 15.3296 3.77809C15.274 4.15575 15.3059 4.01197 15.5685 4.04904C15.7877 4.07971 15.9488 4.25161 16.0798 4.24074C16.1149 4.23755 16.6868 3.93721 16.7079 3.90845C16.7392 3.86564 16.7181 3.78512 16.7188 3.72953C16.722 3.25857 16.6095 2.95824 16.0798 2.96271ZM11.2226 5.64658C11.1721 5.4536 11.2258 5.11811 10.9989 5.07146C10.3874 4.94494 10.8571 5.62997 11.2226 5.64658ZM10.7753 6.02999C10.7452 5.73924 10.5491 5.59418 10.2647 5.64722C10.2059 5.99612 10.4916 6.05044 10.7753 6.02999ZM5.98329 7.43583L5.53598 7.50037C5.51553 7.77067 5.74558 7.79687 5.85549 7.88314C5.8721 7.89656 5.78136 8.04225 6.00758 8.00966C6.09895 7.99688 6.4747 7.82754 6.49451 7.75534C6.51879 7.6646 6.42294 7.14124 6.33347 7.11696C6.16413 7.07031 6.02547 7.30163 5.98329 7.43583ZM6.84597 13.8899V13.9538C6.8875 13.9327 6.8875 13.911 6.84597 13.8899Z" fill="#71808A"/>
<path d="M20.8093 4.0492C22.4094 4.69524 24.0472 5.39624 25.6658 6.03015C26.1003 6.20013 26.5304 6.44295 26.9688 6.61229L27.0716 6.76502L27.1995 14.3374C26.9355 14.322 26.9228 13.8996 26.7496 13.7968C26.5662 13.6875 26.3042 13.7162 26.1131 13.7623C26.0678 13.7731 26.0007 13.7373 25.938 13.777C25.9189 13.7891 25.823 13.9667 25.7936 14.0179C25.6109 13.9367 25.4671 13.9603 25.283 14.0179L25.2185 13.7616C25.2217 13.4453 25.1546 13.0868 25.1546 12.835V11.557C25.1546 11.3691 25.1016 11.003 25.0907 10.7582C25.0888 10.7225 25.0939 10.647 25.0907 10.5665C25.0626 9.91601 25.0894 9.11213 25.0262 8.49036C25.014 8.36895 24.9782 8.1274 24.899 8.04241C23.6523 7.54142 22.3845 6.79633 21.1294 6.34838C21.2483 6.32346 21.3045 6.10683 21.3211 6.09277C21.4751 5.95858 22.0132 5.86209 21.8624 5.58092C21.7544 5.64227 21.4656 5.50424 21.4489 5.51766C21.3831 5.40327 21.5295 5.08632 21.5135 5.07098C21.4924 5.05054 21.1972 5.03456 21.1294 5.00644C20.6246 4.79685 19.9262 4.29266 19.4054 4.01469C18.4692 3.51434 17.5056 3.06447 16.5688 2.56668C16.4793 2.51875 16.3668 2.54112 16.4007 2.38647C17.8589 2.85935 19.3971 3.47728 20.8099 4.04792L20.8093 4.0492ZM25.6658 7.69159C25.7463 7.89224 26.0869 8.12676 26.2409 8.0111C26.3291 7.94464 26.7656 7.47113 26.4646 7.49861C26.3726 7.50692 26.1521 7.62194 26.1131 7.46666C26.0741 7.31138 26.2627 7.25642 26.2409 7.11648C25.7776 7.03277 25.4709 7.20722 25.6664 7.69095L25.6658 7.69159Z" fill="#DCDED8"/>
<path d="M27.2017 14.3372C26.7972 16.5182 26.1307 18.6404 25.6482 20.8047C25.6073 20.9408 25.5127 21.0226 25.4124 21.1108C24.7427 21.7026 24.174 22.3972 23.6353 23.1359C23.3107 23.5813 22.3189 24.9545 22.1803 25.391C22.1419 25.5111 22.1438 25.6076 22.2173 25.7124C22.1771 25.7322 22.1215 25.7482 22.0895 25.7763C21.9656 25.7098 21.7854 25.4849 21.7687 25.3552C21.7438 25.1648 21.8799 25.0925 21.8978 24.9456C21.9215 24.7526 21.8218 24.4606 21.6064 24.4331C21.508 24.4209 21.4198 24.4983 21.3866 24.4983C21.2205 24.497 20.8978 24.2797 20.9463 24.0963L23.8596 19.6545C24.0762 18.0404 25.0003 16.0971 25.1568 14.5296C25.2482 14.2797 25.2182 14.0209 25.2207 13.7628L25.2853 14.019C25.4693 13.9609 25.6137 13.9372 25.7958 14.019C25.6597 14.2542 25.4514 14.7328 25.7779 14.8996C25.8425 14.9328 26.2406 15.0338 26.309 15.0152C26.461 14.9737 26.8898 14.5775 26.8822 14.4024C26.8796 14.3456 26.686 13.8912 26.6579 13.8906C26.4745 13.8861 26.2022 14.2944 26.4987 14.4024C26.2649 14.4024 26.0297 14.4024 25.7958 14.4018L26.1153 13.7634C26.3064 13.7174 26.5684 13.6886 26.7518 13.7979C26.925 13.9008 26.9378 14.3232 27.2017 14.3385V14.3372Z" fill="#DCDED8"/>
<path d="M25.4092 21.1107C25.3677 21.1964 25.3274 21.3612 25.2814 21.4303C24.8194 22.1268 24.2922 22.8463 23.8116 23.539C23.6123 23.8259 22.2608 25.5621 22.278 25.7117H22.2141C22.1406 25.6069 22.1387 25.5104 22.177 25.3902C22.3157 24.9538 23.3068 23.5805 23.6321 23.1352C24.1708 22.3971 24.7401 21.7018 25.4092 21.1101V21.1107Z" fill="#445063"/>
<path d="M4.96094 13.7623C4.96094 13.6984 4.96094 13.6345 4.96094 13.5706C5.05679 13.5795 5.05679 13.7533 4.96094 13.7623Z" fill="#445063"/>
<path d="M27.3911 4.11217C27.3747 4.10713 27.3502 4.11343 27.3281 4.11217L27.3596 4.0498L27.3911 4.11217Z" fill="#445063"/>
<path d="M6.43212 14.465C6.43595 14.4956 6.50561 14.5538 6.48644 14.6164C6.45449 14.7206 5.95733 14.9915 5.82697 14.9781C5.69661 14.9647 5.28508 14.5397 5.28125 14.4011C5.42311 14.4611 5.64485 14.3365 5.72856 14.3372C5.92474 14.3391 6.18802 14.5404 6.43148 14.465H6.43212Z" fill="#453040"/>
<path d="M8.03415 20.4081C8.06098 20.5077 8.12553 20.493 8.0399 20.6324C7.77023 21.072 7.06731 20.9046 7.01172 20.5359C7.20854 20.5672 7.31525 20.3576 7.49354 20.3461C7.64626 20.3358 7.85522 20.4579 8.03415 20.4081Z" fill="#453040"/>
<path d="M7.00356 20.5358C6.98056 20.3805 7.01954 20.1863 7.00356 20.0246C7.1582 19.9684 7.43426 20.0949 7.54034 20.0751C7.6822 20.0482 7.71735 19.6827 7.83876 19.8706C7.88668 19.9447 7.9966 20.2962 8.02663 20.408C7.8477 20.4572 7.63875 20.3358 7.48602 20.346C7.30773 20.3582 7.20102 20.5671 7.0042 20.5358H7.00356Z" fill="#71808A"/>
<path d="M16.4654 27.9485C16.8072 28.1773 16.1286 28.661 15.9273 28.654C15.887 28.6527 15.8902 28.5524 15.8442 28.5249C15.5151 28.3268 15.3963 28.2789 15.4436 27.8207C15.6659 27.7517 15.5247 28.0245 15.5739 28.0731C15.5861 28.0852 15.7413 28.0686 15.8225 28.1095C15.8992 28.1479 15.9343 28.2584 16.0532 28.2712C16.2187 28.2885 16.3861 28.1114 16.4021 27.9479C16.4219 27.9504 16.4455 27.9479 16.466 27.9479L16.4654 27.9485Z" fill="#453040"/>
<path d="M11.095 25.1364C11.0247 25.0662 10.4758 24.9914 10.3282 24.9447C10.3257 24.8483 10.3825 24.5716 10.4541 24.5236C10.5857 24.4342 11.1615 24.6061 11.2164 24.7952C11.2439 24.8898 11.1711 25.0649 11.095 25.1371V25.1364Z" fill="#71808A"/>
<path d="M6.11778 13.7622C6.33569 13.8766 6.22514 13.8728 6.30949 13.9539C6.38362 14.1392 6.41365 14.2658 6.43729 14.4651C6.19383 14.5405 5.93055 14.3392 5.73438 14.3373C5.74332 14.2338 5.80594 14.161 5.86218 14.0817C5.94206 13.9686 6.04366 13.8785 6.11778 13.7622Z" fill="#DCDED8"/>
<path d="M21.5762 25.4557C21.4785 25.6014 20.4644 25.6314 20.8746 25.009C20.982 25.1528 21.791 25.1343 21.5762 25.4557Z" fill="#453040"/>
<path d="M16.4015 27.9484C16.0948 27.9049 16.0335 27.7433 16.1146 27.4365C16.4169 27.5573 16.76 27.5413 16.6571 27.949C16.5932 27.9522 16.5293 27.9471 16.4654 27.949C16.445 27.949 16.4214 27.9516 16.4015 27.949V27.9484Z" fill="#DCDED8"/>
<path d="M21.897 24.944C21.4594 25.0148 21.4779 24.8707 21.3867 24.4975C21.4199 24.4975 21.5079 24.4203 21.6062 24.4324C21.8211 24.4599 21.9206 24.7514 21.897 24.944Z" fill="#DCDED8"/>
<path d="M18.1887 25.5201C18.1574 25.6115 18.0909 25.6435 17.997 25.6479C18.0111 25.623 17.981 25.5335 17.997 25.5201C18.0194 25.501 18.1408 25.5355 18.1887 25.5201Z" fill="#453040"/>
<path d="M16.0858 2.96265C16.0973 3.01377 16.0692 3.12496 16.0858 3.15435C15.8615 3.42977 15.6717 3.36075 15.5746 3.72947C15.5452 3.84066 15.4851 3.88858 15.5746 4.04898C15.312 4.01191 15.28 4.15569 15.3356 3.77803C15.4027 3.32369 15.5663 2.96648 16.0858 2.96265Z" fill="#445063"/>
<path d="M21.4457 5.51867C21.4623 5.50589 21.7512 5.64327 21.8592 5.58193C22.01 5.8631 21.4713 5.95959 21.3179 6.09378C21.2444 5.92956 21.0316 5.93083 20.9275 5.8075C20.8233 5.68417 20.9339 5.66372 20.9345 5.64647C21.0764 5.62474 21.2777 5.68034 21.4048 5.64775C21.47 5.63049 21.4406 5.52314 21.4457 5.51867Z" fill="#453040"/>
<path d="M21.1292 5.00781C21.1969 5.03593 21.4915 5.0519 21.5133 5.07235C21.5299 5.08769 21.3829 5.404 21.4487 5.51903C21.4436 5.5235 21.473 5.63085 21.4078 5.64811C21.2813 5.68134 21.0794 5.6251 20.9375 5.64683C20.956 5.35416 20.9957 5.26725 21.1292 5.00781Z" fill="#445063"/>
<path d="M16.7225 3.72952C16.6516 3.72377 16.5232 3.65411 16.4669 3.66561C16.4203 3.48286 16.1391 3.25153 16.0835 3.1544C16.0669 3.12501 16.095 3.01382 16.0835 2.9627C16.6133 2.95822 16.7257 3.25856 16.7225 3.72952Z" fill="#DCDED8"/>
<path d="M6.49725 7.75523L5.98604 7.49962C5.99179 7.47981 5.98028 7.45489 5.98604 7.43572C6.02757 7.30153 6.16688 7.06957 6.33622 7.11685C6.42568 7.14177 6.52217 7.66513 6.49725 7.75523Z" fill="#DCDED8"/>
<path d="M11.2224 5.64661C10.8569 5.62999 10.3872 4.94497 10.9987 5.07149C11.2249 5.11814 11.1713 5.45362 11.2224 5.64661Z" fill="#DCDED8"/>
<path d="M16.721 3.72949C16.721 3.78508 16.7415 3.86624 16.7102 3.90841C16.6891 3.93717 16.1172 4.23751 16.082 4.2407V3.85729C16.2629 3.85857 16.413 3.67645 16.4654 3.66559C16.5217 3.65408 16.6501 3.72374 16.721 3.72949Z" fill="#445063"/>
<path d="M16.0769 3.8572V4.23994C15.9461 4.25078 15.7854 4.07919 15.5666 4.04857C15.4773 3.88846 15.5372 3.84062 15.5666 3.72962C15.7541 3.67795 15.9238 3.85592 16.0769 3.8572Z" fill="#453040"/>
<path d="M6.49895 7.75536C6.47914 7.82757 6.10339 7.99691 6.01201 8.00969C5.7858 8.04164 5.87654 7.89595 5.85993 7.88317C6.00499 7.77198 5.95514 7.60903 5.98773 7.49976L6.49895 7.75536Z" fill="#453040"/>
<path d="M6.11237 13.7622C6.03824 13.8785 5.93664 13.9686 5.85676 14.0817C5.77752 13.8415 5.71745 13.8728 5.47335 13.89C5.45354 13.4759 5.86315 13.6319 6.11237 13.7622Z" fill="#445063"/>
<path d="M10.7752 6.02933C10.492 6.04975 10.2069 5.99553 10.2656 5.64724C10.5494 5.59429 10.7453 5.73909 10.7752 6.02933Z" fill="#445063"/>
<path d="M5.98296 7.43604C5.97722 7.45517 5.9887 7.48005 5.98296 7.49982C5.95042 7.6089 6.00018 7.77157 5.85538 7.88256C5.74566 7.79645 5.51602 7.77029 5.53643 7.50046L5.98296 7.43604Z" fill="#445063"/>
<path d="M6.84375 13.8899C6.8847 13.9107 6.8847 13.9321 6.84375 13.9529V13.8899Z" fill="#445063"/>
<path d="M26.1091 13.7623L25.7896 14.4007C26.0234 14.4019 26.2586 14.4007 26.4925 14.4013H26.8759C26.8836 14.5764 26.4548 14.9726 26.3027 15.0141C26.2343 15.0326 25.8362 14.9317 25.7717 14.8984C25.4451 14.7317 25.6534 14.253 25.7896 14.0179C25.819 13.9668 25.9148 13.7891 25.934 13.777C25.9966 13.738 26.0637 13.7731 26.1091 13.7623Z" fill="#453040"/>
<path d="M25.6651 7.69127C25.4702 7.20754 25.7769 7.03245 26.2396 7.1168C26.2619 7.25674 26.0741 7.31745 26.1118 7.46698C26.1495 7.61651 26.3712 7.50724 26.4632 7.49893C26.7642 7.47145 26.3284 7.9456 26.2396 8.01142C26.2479 7.46698 26.0702 7.65677 25.6645 7.69191L25.6651 7.69127Z" fill="#445063"/>
<path d="M25.6641 7.69135C26.0698 7.65621 26.2475 7.46642 26.2392 8.01086C26.0852 8.12652 25.7446 7.892 25.6641 7.69135Z" fill="#453040"/>
<path d="M25.0903 10.7588V10.5671C25.0935 10.6477 25.0884 10.7231 25.0903 10.7588Z" fill="#71808A"/>
<path d="M26.4945 14.4002C26.1985 14.2917 26.4703 13.8847 26.6534 13.8892C26.6814 13.8898 26.8747 14.3434 26.8773 14.4002H26.4945Z" fill="#DCDED8"/>
<path d="M16.4649 3.66575C16.4125 3.67662 16.2624 3.85874 16.0815 3.85746C15.9282 3.85618 15.7582 3.6779 15.5703 3.72966C15.6674 3.36094 15.8572 3.42996 16.0815 3.15454C16.1371 3.25167 16.4183 3.483 16.4649 3.66575Z" fill="#71808A"/>
<path d="M20.7429 24.845L19.6913 23.4945C20.4766 23.1737 20.7415 22.32 21.5237 21.9941C21.5569 22.1455 21.6934 22.1793 21.7892 22.2995C22.3624 23.0184 21.9315 22.4001 22.4682 23.1196C22.4836 23.1401 22.4529 23.2263 22.4682 23.2474C21.943 23.7312 21.4254 24.2328 20.9365 24.7536C20.8707 24.8232 20.7531 24.8341 20.7429 24.845Z" fill="#DCDED8"/>
<path d="M29.1508 29.3382C28.7399 29.0289 28.5891 28.3075 28.0645 29.2104C28.0562 29.2021 27.9443 29.236 27.8434 29.1452C27.7424 29.0545 26.8177 27.9138 26.7871 27.8352C26.7564 27.7566 26.7986 27.7157 26.881 27.7413C27.1718 27.8308 27.6178 28.2877 27.9993 28.2845L26.3404 26.1738L26.2113 26.1438C26.1544 26.4562 26.2624 26.7834 26.2746 27.071C26.2784 27.1668 26.318 27.2557 26.18 27.2288L24.3859 25.6121C24.389 25.5993 24.2977 25.5002 24.3501 25.4216C24.522 25.1635 25.2242 24.8305 25.4083 24.6535L27.163 26.5093L26.4132 25.7175L28.5239 28.3682C29.2434 28.2397 29.9579 28.6378 30.6205 28.8909V29.0187C30.6218 29.0398 30.6205 29.0615 30.6205 29.0826C30.2812 29.0436 30.0569 29.4411 29.8537 29.6577C29.6735 29.5593 29.3182 29.4641 29.1508 29.3382Z" fill="#453040"/>
<path d="M21.6756 22.2011C22.2488 22.92 21.9315 22.4001 22.4683 23.1196C22.5839 23.112 22.6664 23.0608 22.7558 22.9925C23.2638 22.6046 23.9693 21.8339 24.4492 21.5221L23.0077 19.6879L22.5548 20.3362C22.1823 20.6084 21.8 21.4729 21.498 21.988C21.5312 22.1394 21.5798 22.081 21.6756 22.2011Z" fill="#445063"/>
<path d="M20.8109 26.9538C21.4001 26.8579 22.1183 26.4349 22.6628 26.155C22.5318 25.9806 22.0774 25.5812 22.0876 25.394C22.1017 25.1447 22.9024 23.9491 22.7912 23.8226L21.9304 24.4629C21.5042 24.9927 20.5776 25.4847 20.1712 25.9307H20.1073C20.2051 25.6438 20.5482 25.0591 20.7463 24.8444C20.7566 24.8335 20.8741 24.8227 20.94 24.753C21.4295 24.2322 21.9464 23.73 22.4717 23.2469C22.5733 23.3862 22.781 23.4986 22.7995 23.751C22.8219 23.7696 22.887 23.7645 22.919 23.7581C23.2507 23.6961 24.4002 22.9989 24.6316 23.1325C24.7146 23.1804 24.983 23.7862 25.1786 23.753C25.3575 23.7229 26.0246 22.5427 26.1882 22.3299C26.2585 22.2385 26.2981 22.1586 26.4336 22.1599C26.2655 22.7593 25.8476 23.8718 25.539 24.3965C25.5569 24.0616 25.4092 23.8303 25.0725 24.0098C24.7006 24.3984 24.4047 24.9038 24.0066 25.2598C23.7855 25.4572 22.8257 26.0144 22.758 26.1205C22.6206 26.3352 23.2545 26.4471 23.3663 26.4413L20.8741 27.0803C20.8575 27.0452 20.8039 27.0113 20.8102 26.9525L20.8109 26.9538Z" fill="#71808A"/>
<path d="M19.2145 28.5513C19.1135 27.9481 18.4802 27.4426 18.0642 27.0177C18.0604 26.8688 17.955 26.748 18.0125 26.5525C18.0374 26.4681 18.6719 25.6642 18.7671 25.6118C18.9914 25.654 19.0962 25.9908 19.2451 26.1269C19.3001 26.1774 19.3832 26.1697 19.4062 26.1869C19.5985 26.3326 19.7468 26.3876 19.9174 26.5065C20.0241 26.5806 20.1168 26.7876 20.3008 26.8899C20.1219 27.5551 21.0363 27.6318 20.812 28.1679C20.6791 28.2797 20.0682 28.6989 19.9321 28.7315C19.8746 28.7456 19.3934 28.6861 19.3212 28.6657C19.2432 28.6433 19.2234 28.5551 19.2145 28.5513Z" fill="#71808A"/>
<path d="M27.426 31.7663L28.3206 31.574C28.1053 31.1375 28.1213 30.7701 28.1289 30.2966L29.3418 30.8404L28.1928 29.5937C28.1916 29.5726 28.1967 29.5489 28.1928 29.5298C28.1884 29.5087 28.1986 29.4844 28.1928 29.4659C28.5034 29.4697 28.874 29.448 29.1514 29.3381C29.3188 29.464 29.6741 29.5592 29.8543 29.6576C29.9118 29.6889 29.9444 29.91 30.1112 29.8212C30.2779 29.7323 30.3834 29.2314 30.6211 29.1464C30.616 29.6966 30.6128 30.2653 30.4562 30.8027C30.1949 30.981 29.3309 31.9159 29.1181 31.9568C28.8076 32.0162 27.7136 31.8993 27.426 31.7663Z" fill="#71808A"/>
<path d="M26.4321 22.1613C26.2966 22.1601 26.257 22.2399 26.1867 22.3313C26.0231 22.5441 25.356 23.7237 25.1771 23.7544C24.9815 23.7876 24.7132 23.1818 24.6301 23.1339C24.3994 22.9997 23.2492 23.6969 22.9175 23.7595C22.8127 22.9959 23.1131 23.2553 23.4901 23.0221C23.9304 22.7499 24.455 21.9537 24.9694 21.6853L24.9624 21.3313C24.9681 21.3274 24.9502 21.2424 25.0071 21.2022C25.1585 21.0948 25.3464 21.0277 25.4736 20.8839C25.4825 20.8948 25.6985 20.9996 25.7292 21.0117C25.8302 21.3357 26.1497 21.5351 26.3586 21.7562C26.4359 21.838 26.4826 22.0259 26.496 22.0342C26.4986 22.0853 26.4404 22.1326 26.4321 22.162V22.1613Z" fill="#445063"/>
<path d="M26.8131 22.0333C26.8873 22.0313 27.0815 22.0818 27.0687 21.97L26.7166 21.8409L26.7492 22.0333C26.686 22.0294 26.516 22.0473 26.4936 22.0333C26.4808 22.0249 26.4342 21.8371 26.3562 21.7553C26.1466 21.5342 25.8271 21.3342 25.7268 21.0108C25.7952 21.0383 26.1128 21.1527 26.0457 20.9802C25.9786 20.8076 25.7645 20.4133 25.6629 20.244C26.0214 20.3961 27.0272 19.7718 27.2202 19.8095C27.4132 19.8472 27.771 20.5782 28.219 20.3718C28.4062 20.8952 27.8643 21.6339 27.702 22.1572L26.8131 22.0333Z" fill="#71808A"/>
<path d="M25.6588 20.244C25.5687 20.0938 25.4223 19.8964 25.2754 19.7967C25.2792 19.72 25.2415 19.6625 25.315 19.5992C25.3642 19.5571 26.4179 19.074 26.4895 19.0567C26.7208 19.0018 27.303 19.1104 27.4832 19.2823C27.6123 19.405 28.1541 20.2025 28.2148 20.3718C27.7669 20.5788 27.4122 19.8485 27.2161 19.8095C27.0199 19.7705 26.0179 20.3955 25.6588 20.244Z" fill="#453040"/>
<path d="M27.4257 31.7662C27.3963 31.7528 27.3081 31.8059 27.2953 31.726C27.2838 31.1125 27.0602 30.6 27.0423 29.977C27.4768 29.9521 27.7906 29.6249 28.1925 29.5297C28.1963 29.5488 28.1912 29.5725 28.1925 29.5936C28.2059 29.8396 28.1324 30.0511 28.1286 30.2965C28.1209 30.77 28.105 31.1374 28.3203 31.5739L27.4257 31.7662Z" fill="#DCDED8"/>
<path d="M23.361 26.4429C23.2485 26.4481 22.6146 26.3369 22.7526 26.1222C22.8203 26.0161 23.7795 25.4595 24.0012 25.2614C24.4 24.9055 24.6952 24.4 25.0671 24.0115C25.4045 23.8319 25.5521 24.0632 25.5336 24.3981C25.4959 24.462 25.416 24.6441 25.4058 24.6537C25.2211 24.8307 24.5195 25.1643 24.3476 25.4218C24.2952 25.5004 24.3872 25.5994 24.3834 25.6122C24.3725 25.6525 23.9105 26.0819 23.8083 26.1873C23.7968 26.1995 23.7201 26.1886 23.6824 26.2244C23.621 26.2819 23.6236 26.3739 23.6166 26.379C23.6063 26.3867 23.3744 26.4423 23.361 26.4429Z" fill="#445063"/>
<path d="M22.9169 23.7588C22.8849 23.7645 22.8191 23.7697 22.7974 23.7518C22.7795 23.4994 22.5712 23.3869 22.4696 23.2476C22.4542 23.2265 22.4849 23.1402 22.4696 23.1198C22.5852 23.1121 22.6677 23.0603 22.7571 22.9926C23.2651 22.6047 23.9706 21.8347 24.4505 21.5222C24.5067 21.4858 24.8716 21.3893 24.9617 21.3305L24.9688 21.6845C24.4543 21.9536 23.9303 22.7498 23.4894 23.0214C23.1124 23.254 22.8121 22.9952 22.9169 23.7588Z" fill="#453040"/>
<path d="M24.4883 26.9735C24.6245 27.0004 24.7759 26.9352 24.9344 27.0067C25.0258 27.0476 25.5772 27.6413 25.7038 27.771C26.2814 28.3615 26.8029 29.019 27.3633 29.6261L27.1077 29.7219C27.0917 29.6133 25.8354 28.2924 25.6399 28.0905C25.2673 27.7065 24.8762 27.3409 24.4877 26.9742L24.4883 26.9735Z" fill="#71808A"/>
<path d="M23.8723 26.6982L24.0001 26.3786C24.519 27.0145 24.044 26.0988 24.5469 26.7506L24.2919 26.9097C23.9328 26.7589 24.1669 27.0713 23.8723 26.6982Z" fill="#DCDED8"/>
<path d="M18.0607 27.0179C18.4767 27.4428 19.11 27.9483 19.2109 28.5515C19.1739 28.5355 19.0966 28.5566 19.0256 28.5157C18.9221 28.4563 18.1566 27.878 18.1201 27.8211C18.0652 27.7361 18.0115 27.3003 18 27.1655C17.9923 27.0754 18.0613 27.0255 18.0607 27.0172V27.0179Z" fill="#586A75"/>
<path d="M20.2942 26.8898C20.1102 26.7875 20.0175 26.5805 19.9108 26.5064C20.0233 26.4476 19.8565 25.9619 19.8354 25.9427C19.8143 25.9236 19.3549 25.8507 19.3364 25.868L19.4003 26.1868C19.3772 26.1696 19.2942 26.1773 19.2392 26.1268C19.0903 25.9907 18.9855 25.6539 18.7612 25.6117C18.8539 25.5606 18.8213 25.544 18.9638 25.5593C19.3363 25.5996 19.7492 25.813 20.1032 25.9312H20.1671C20.1294 25.9721 20.0501 26.0654 20.0699 26.1217C20.2476 26.4706 20.6342 26.5792 20.7422 26.9537C20.7326 26.9543 20.7007 27.0246 20.6016 27.0086C20.5754 27.0042 20.3275 26.9077 20.2949 26.8898H20.2942Z" fill="#453040"/>
<path d="M20.8063 28.1677C21.0306 27.6316 20.1162 27.5549 20.2951 26.8897C20.3271 26.9076 20.575 27.0041 20.6019 27.0085C20.7009 27.0252 20.7329 26.9549 20.7424 26.9536C20.7635 26.9523 20.7859 26.9568 20.8063 26.9536C20.7999 27.0124 20.8536 27.0462 20.8702 27.0814C20.9309 27.2073 21.0377 28.0035 20.9865 28.0942C20.9686 28.1262 20.8466 28.1339 20.8063 28.1677Z" fill="#445063"/>
<path d="M25.7267 21.0112C25.696 20.9991 25.4801 20.8943 25.4711 20.8834C25.4238 20.8265 25.2724 19.9358 25.2794 19.7971C25.4264 19.8968 25.5727 20.0942 25.6628 20.2444C25.7644 20.4137 25.9791 20.8093 26.0456 20.9806C26.112 21.1518 25.7951 21.0393 25.7267 21.0112Z" fill="#DCDED8"/>
<path d="M29.8543 29.6576C30.0575 29.4409 30.2818 29.0435 30.6211 29.0825C30.6211 29.1035 30.6211 29.1253 30.6211 29.1464C30.3834 29.2313 30.2696 29.7375 30.1112 29.8212C29.9444 29.9093 29.9118 29.6882 29.8543 29.6576Z" fill="#445063"/>
<path d="M23.6173 26.3793C23.6236 26.3742 23.6217 26.2823 23.683 26.2249C23.7206 26.1892 23.7971 26.2 23.8086 26.1879C23.9132 26.2217 23.9426 26.3085 24 26.3793L23.8724 26.6982C23.8061 26.614 23.637 26.5483 23.6173 26.3793Z" fill="#71808A"/>
<path d="M26.8185 22.0337C26.7974 22.0337 26.7757 22.035 26.7547 22.0337L26.7221 21.8417L27.0736 21.9706C27.0864 22.0822 26.8931 22.0318 26.8185 22.0337Z" fill="#445063"/>
<path d="M30.6205 28.891L30.6791 28.9304C30.6867 28.9782 30.6199 29.0119 30.6205 29.0183V28.891Z" fill="#71808A"/>
<path d="M28.1938 29.4657C28.1913 29.458 28.1203 29.4248 28.0782 29.3583C28.0494 29.3123 28.0769 29.2209 28.066 29.21C28.5906 28.3071 28.7415 29.0286 29.1523 29.3379C28.875 29.4478 28.5044 29.4695 28.1938 29.4657Z" fill="#445063"/>
<path d="M27.0426 29.9771C27.0407 29.9074 27.1161 29.786 27.1065 29.7214L27.3621 29.6256C26.8017 29.0185 26.2803 28.361 25.7026 27.7705C25.5761 27.6408 25.0246 27.0478 24.9332 27.0063C24.7741 26.9347 24.6233 26.9999 24.4872 26.973C24.4105 26.9583 24.3645 26.9379 24.2955 26.9091L24.5505 26.75C24.0476 26.0982 24.5226 27.0139 24.0037 26.3781C23.9462 26.3071 23.9168 26.2202 23.812 26.1864C23.9142 26.0809 24.3762 25.6515 24.3871 25.6113L26.1812 27.228C26.3193 27.2548 26.2797 27.166 26.2758 27.0702C26.2637 26.782 26.1563 26.4548 26.2126 26.1429L26.3416 26.173L28.0005 28.2837C27.619 28.2869 27.173 27.83 26.8822 27.7405C26.7998 27.7149 26.757 27.7539 26.7883 27.8344C26.8196 27.9149 27.7481 29.0581 27.8446 29.1444C27.9411 29.2307 28.0574 29.2013 28.0657 29.2096C28.0766 29.2205 28.0491 29.3118 28.0778 29.3578C28.1194 29.4243 28.191 29.4582 28.1935 29.4652C28.1993 29.4837 28.189 29.508 28.1935 29.5291C27.7916 29.6243 27.4778 29.9515 27.0433 29.9764L27.0426 29.9771Z" fill="#8F514E"/>
<path d="M20.8092 26.9539C20.7888 26.9571 20.7664 26.9526 20.7453 26.9539C20.6373 26.5801 20.2507 26.4708 20.0731 26.1219C20.0533 26.0657 20.1325 25.9724 20.1702 25.9315C20.576 25.4854 21.5026 24.9928 21.9294 24.4637L22.7902 23.8234C22.9014 23.9492 22.1007 25.1455 22.0866 25.3947C22.0764 25.5819 22.5307 25.9813 22.6617 26.1558C22.1173 26.4357 21.3991 26.8587 20.8099 26.9545L20.8092 26.9539Z" fill="#71808A"/>
<path d="M19.3997 26.1868L19.3358 25.868C19.3543 25.8507 19.8131 25.9236 19.8348 25.9427C19.8566 25.9619 20.0233 26.4476 19.9102 26.5063C19.7396 26.3875 19.5914 26.3325 19.399 26.1868H19.3997Z" fill="#445063"/>
<path d="M28.1309 30.2968C28.1347 30.0514 28.2082 29.8399 28.1948 29.5939L29.3438 30.8406L28.1309 30.2968Z" fill="#445063"/>
</g>
<defs>
<clipPath id="clip0_85_545">
<rect width="32" height="32" fill="white"/>
</clipPath>
</defs>
</svg>
