<svg width="32" height="32" viewBox="0 0 32 32" fill="none" xmlns="http://www.w3.org/2000/svg">
<path d="M10.4609 16.3909C11.4589 15.2704 13.4818 13.0137 13.5859 12.9507L17.5263 12.2153H19.1807L21.6493 13.2395L22.8573 16.2333L21.9119 21.5118L20.7301 25.2671L16.0031 26.3438L12.7205 25.0045L13.2195 23.1137L11.1974 21.8532L10.4609 19.8836V16.3909Z" fill="#A14646"/>
<path d="M27.0349 13.5206C27.0428 13.5302 27.2289 13.4769 27.2002 13.6342L27.1533 24.2457C27.1295 24.2974 27.0476 24.3069 27.0349 24.3252C26.9522 24.1337 26.7979 24.3148 26.7081 24.3562C26.142 24.6167 24.633 25.072 24.2879 25.4334C23.9341 25.8044 23.1566 27.4188 22.8592 27.9781C22.5404 28.5779 22.2399 29.1952 21.9465 29.8069C21.7946 29.9586 21.8948 30.0889 21.6285 30.1247L20.7539 28.4563C20.7817 28.4047 20.8032 28.3475 20.8334 28.2974C20.9519 28.102 21.3931 27.7961 21.5895 27.5832C22.565 26.529 23.5803 25.4787 24.5312 24.4054C24.8182 24.0813 25.335 23.5855 25.4447 23.2129C25.6642 22.4654 25.4511 21.6169 25.4416 20.8725C25.4122 18.6877 25.4702 16.499 25.4447 14.3151C25.9782 14.0982 26.5014 13.7502 27.0349 13.5206ZM26.3988 20.0351C26.5753 18.0204 27.0651 16.0263 27.0349 13.9981C26.9124 14.018 26.8846 14.1459 26.8377 14.2372C26.6723 14.5614 25.7182 16.623 25.6872 16.8224C25.6379 17.1338 26.0776 19.2868 26.1873 19.7332C26.2239 19.8834 26.1873 20.0931 26.3988 20.0351Z" fill="#C67A7A"/>
<path d="M6.76432 23.2925L11.5124 28.4398L11.6937 28.4565C11.677 28.7727 11.5712 29.0428 11.4552 29.3296C11.4909 29.3637 11.995 29.3145 12.0109 29.4877C11.8161 29.4686 11.6531 29.6783 11.5347 29.7268C11.4162 29.7753 11.1952 29.7681 11.0386 29.8269C10.8819 29.8857 10.7595 30.1765 10.618 29.9659C10.5687 29.8928 10.649 29.7339 10.6076 29.5886C10.3612 28.7353 9.78236 28.099 9.229 27.5023C8.4252 26.6372 7.01556 25.5623 6.00663 24.8822C5.89215 24.8052 5.80071 24.7241 5.65124 24.7218C5.62739 24.694 5.59559 24.6709 5.57174 24.6423C5.50575 24.5247 5.48667 24.2856 5.41273 24.4834C5.37297 24.4358 5.31255 24.4072 5.25371 24.3245C5.20363 24.0719 5.28075 24.1339 5.40875 24.0441C5.80469 23.7676 6.30399 23.422 6.76432 23.2917V23.2925Z" fill="#552828"/>
<path d="M27.04 13.5208C26.5066 13.7503 25.9834 14.0983 25.4499 14.3152C25.411 14.3311 25.3307 14.2993 25.2909 14.3152C24.5833 13.5366 23.4861 12.9368 22.8278 12.1289C22.1552 11.3026 21.384 10.0188 20.7734 9.09725C20.6009 8.83747 20.3464 8.49903 20.2812 8.19873C22.1894 10.0339 24.9514 11.5299 26.9112 13.2951C27.0241 13.3968 27.013 13.4898 27.0392 13.5215L27.04 13.5208Z" fill="#E0C5C5"/>
<path d="M12.3253 8.21997H20.3839L23.3963 10.8409L25.8861 14.248L23.855 16.9999H8.91797L10.424 10.8409L12.3253 8.21997Z" fill="#783E3E"/>
<path d="M11.2959 10.3428H11.6139C10.6193 11.316 9.2494 12.4687 8.15301 13.3593C7.88746 13.5754 7.11943 14.2356 6.84355 14.2356C6.5295 14.2356 6.50088 14.0465 6.36652 13.9972C6.61298 13.3212 7.12341 12.7833 7.4796 12.1708C7.36352 12.0786 6.13277 12.9184 5.91254 13.0415C5.78056 13.1154 5.73842 13.0391 5.73047 13.0439C6.38162 12.4703 7.11069 11.9841 7.79762 11.455C8.1546 11.6036 7.73163 11.8133 7.75707 12.0095L11.2959 10.3428Z" fill="#9A4D4D"/>
<path d="M27.0337 24.3253C26.2259 25.482 24.6525 26.8977 23.6491 27.9773C23.5664 28.0671 23.5537 28.199 23.5354 28.2181C23.0401 28.7496 22.4629 29.2914 21.9453 29.807C22.2387 29.1952 22.5392 28.5772 22.858 27.9781C23.1554 27.4188 23.933 25.8045 24.2868 25.4335C24.6318 25.072 26.1408 24.6168 26.7069 24.3562C26.7968 24.3149 26.951 24.1338 27.0337 24.3253Z" fill="#AC5D5D"/>
<path d="M6.20795 19.1612C6.30892 19.916 6.41625 20.7215 6.56652 21.4675C6.59514 21.6081 6.54346 21.8362 6.76449 21.7829C6.77165 22.285 6.75972 22.7903 6.76449 23.2924C6.30415 23.4235 5.80486 23.7691 5.40892 24.0447C5.28091 24.1337 5.20379 24.0717 5.25388 24.3252C5.22367 24.2823 5.12667 24.2998 5.09646 24.1281C5.08851 23.5053 5.10123 22.8817 5.09487 22.2596C5.38188 22.3255 5.18869 22.0173 5.26342 21.9482C5.2992 21.9148 5.45185 21.9903 5.49558 21.8918C5.73251 21.3531 5.82155 20.0121 5.96625 19.3535C6.01157 19.1477 5.89549 19.1366 6.20795 19.1612Z" fill="#8B4343"/>
<path d="M5.09198 15.5068L5.56822 15.3479C5.6199 16.0597 6.02856 16.8582 6.1184 17.539C6.15418 17.8091 6.09216 18.107 6.12476 18.3668C6.15736 18.6266 6.16928 18.9007 6.20427 19.1613C5.89181 19.1358 6.00789 19.1478 5.96257 19.3535C5.81787 20.0121 5.72882 21.3532 5.49189 21.8918C5.44817 21.9903 5.29552 21.9148 5.25974 21.9482C5.185 22.0181 5.3782 22.3256 5.09119 22.2596C5.09039 22.154 5.09119 22.0475 5.09119 21.9418C5.21521 21.9093 5.21044 21.6495 5.09119 21.6241C5.09119 21.5446 5.09119 21.4652 5.09119 21.3857V18.2079C5.09357 17.4937 5.08721 16.7771 5.09119 16.0629L5.1691 16.0232L5.09119 15.9835C5.09198 15.8246 5.0896 15.6657 5.09119 15.5068H5.09198Z" fill="#552828"/>
<path d="M5.09552 13.9973C5.28474 14.2913 5.28236 14.6345 5.45329 14.9539C5.50179 15.0444 5.45091 15.1445 5.61151 15.1096L6.2086 13.9965C6.24835 14.0116 6.32706 13.9815 6.36761 13.9965C6.50197 14.0458 6.5306 14.2341 6.84464 14.2349V14.3143C6.69756 15.684 6.76673 17.1299 6.76514 18.5249L6.12909 18.366C6.09649 18.1062 6.15851 17.8083 6.12273 17.5382C6.03289 16.8574 5.62343 16.0589 5.57255 15.3471L5.09631 15.506C5.10108 15.0047 5.07962 14.497 5.09631 13.9965L5.09552 13.9973Z" fill="#8B4343"/>
<path d="M9.2262 27.503C9.00676 27.4664 8.72452 27.7914 8.66966 27.9797C7.67584 26.9072 6.61761 25.8497 5.64844 24.7224C5.7987 24.7248 5.88934 24.8058 6.00383 24.8829C7.01276 25.5629 8.42239 26.6378 9.2262 27.503Z" fill="#AC5D5D"/>
<path d="M9.22451 27.5028C9.77866 28.0987 10.3567 28.7358 10.6031 29.5891C10.6453 29.7345 10.565 29.8933 10.6135 29.9664C10.755 30.177 10.8814 29.8846 11.0341 29.8274C11.1867 29.7702 11.4173 29.7742 11.5302 29.7273L11.7687 30.1245C11.3481 30.1166 10.9148 30.1666 10.4982 30.0832C10.0037 29.477 9.43361 28.9448 8.90649 28.3767C8.79915 28.2615 8.70693 28.0216 8.66797 27.9795C8.72283 27.7912 9.00507 27.4663 9.22451 27.5028Z" fill="#9A4D4D"/>
<path d="M5.7298 13.0441C5.73775 13.0401 5.77988 13.1156 5.91186 13.0417C6.1321 12.9178 7.36285 12.078 7.47892 12.171C7.12274 12.7835 6.61231 13.3213 6.36584 13.9974C6.32529 13.9823 6.24658 14.0125 6.20683 13.9974C5.82918 13.8528 5.46822 13.6709 5.09375 13.5208C5.12635 13.3913 5.58828 13.1188 5.7298 13.0441Z" fill="#C67A7A"/>
<path d="M6.20649 13.9974L5.6094 15.1104C5.448 15.1453 5.49888 15.0452 5.45118 14.9547C5.28024 14.6345 5.28263 14.2921 5.0934 13.9982C5.09818 13.8591 5.06558 13.6327 5.0934 13.5215C5.46788 13.6716 5.82883 13.8536 6.20649 13.9982V13.9974Z" fill="#AC5D5D"/>
<path d="M5.09352 21.3858C5.08716 20.3276 5.09034 19.2662 5.09352 18.208V21.3858Z" fill="#8B4343"/>
<path d="M5.09375 21.9418C5.09375 21.8361 5.09375 21.7297 5.09375 21.624C5.21301 21.6494 5.21778 21.9092 5.09375 21.9418Z" fill="#8B4343"/>
<path d="M5.56917 24.643C5.5326 24.5993 5.4674 24.5525 5.41016 24.4841C5.4841 24.2863 5.50318 24.5254 5.56917 24.643Z" fill="#AC5D5D"/>
<path d="M12.25 7.87952C12.2547 7.83858 12.3264 7.81023 12.3288 7.80078L12.25 7.87952Z" fill="#552828"/>
<path d="M5.09375 16.0621C5.09375 16.0362 5.09375 16.0094 5.09375 15.9834L5.17097 16.0228L5.09375 16.0621Z" fill="#8B4343"/>
<path d="M25.4463 14.3151C25.4718 16.4991 25.4137 18.6878 25.4431 20.8725C25.4527 21.6169 25.6658 22.4654 25.4463 23.213L22.5841 22.7363C22.3178 20.3299 21.8869 17.9267 21.7891 15.5068C22.5865 15.4194 24.4692 14.6377 25.2873 14.3151C25.3271 14.2992 25.4074 14.331 25.4463 14.3151Z" fill="#C17272"/>
<path d="M21.7108 15.5067C21.737 15.5051 21.764 15.5099 21.7903 15.5067C21.8881 17.9266 22.319 20.3298 22.5853 22.7362C22.0996 24.6207 21.2544 26.3979 20.8362 28.2974C20.806 28.3474 20.7845 28.4046 20.7567 28.4563H20.6772L19.2461 22.6568C19.5419 22.4264 20.5786 21.709 20.7329 21.5215C20.8362 21.3952 20.8068 21.28 20.8362 21.1473C21.1495 19.7316 21.128 18.1538 21.3745 16.7175C21.3761 16.5649 21.2504 16.5705 21.2337 16.5395C21.0556 16.217 20.7448 15.8126 20.5182 15.5067C20.8585 15.3637 21.2886 15.5298 21.7108 15.5067Z" fill="#A14646"/>
<path d="M17.3344 10.0252C17.6945 9.67009 17.8742 9.52232 18.0913 8.99162C18.1795 8.77553 18.0197 8.60234 18.3592 8.68258L21.7064 15.5069C21.2842 15.53 20.8541 15.3639 20.5138 15.5069C20.327 15.2551 19.2004 13.7488 19.0827 13.6797C18.8116 13.52 18.4784 13.6272 18.1652 13.6034C18.0626 13.5955 17.9561 13.5208 17.9299 13.5208H16.7373C16.4463 13.5208 15.9382 13.4564 15.5844 13.4413C15.5375 13.2213 15.6616 13.2102 15.7641 13.1045C16.261 12.5905 16.9877 11.2931 17.1746 10.5813C17.8702 11.3662 18.391 9.83215 17.3336 10.0252H17.3344Z" fill="#C17272"/>
<path d="M13.9186 8.59501C13.9456 9.01369 14.3288 9.98768 14.4361 10.5009C14.6349 11.4542 14.7462 12.4274 15.0316 13.3617C14.6659 13.3514 14.1928 13.3276 13.839 13.3617C13.8128 13.3641 13.785 13.3569 13.7595 13.3617C13.6617 13.3792 13.6586 13.407 13.6005 13.4412C13.3469 13.5913 12.722 14.4263 12.4874 14.7123C11.7329 14.636 10.7892 14.8148 10.0609 14.7123C9.95121 14.6972 9.92497 14.7568 9.94247 14.5931L13.68 8.7539C13.7309 8.71974 13.7659 8.56562 13.9186 8.59501Z" fill="#C17272"/>
<path d="M15.4911 10.1228C15.5126 10.1355 15.7376 10.489 15.7479 10.5454C15.9411 11.641 14.153 11.2104 14.7215 10.3111C14.8447 10.1164 15.3162 10.0211 15.4911 10.1228Z" fill="#903E3E"/>
<path d="M17.3387 10.025C18.3961 9.83198 17.8754 11.3661 17.1797 10.5811C17.229 10.3952 17.1224 10.2379 17.3387 10.025Z" fill="#903E3E"/>
<path d="M19.6422 28.5358C17.5298 28.7947 15.3823 29.1197 13.2412 29.3294C12.9399 29.3588 12.4493 29.2206 12.2482 29.4883C14.7486 29.6726 17.2594 29.7759 19.7599 29.9674C19.9785 29.984 20.283 30.1127 20.4373 30.1247C17.5512 30.0857 14.6572 30.1771 11.7711 30.1247L11.5326 29.7274C11.6511 29.679 11.8141 29.4692 12.0089 29.4883C11.993 29.3151 11.4889 29.3636 11.4531 29.3302C11.5692 29.0434 11.6749 28.7725 11.6916 28.4571C14.1953 28.4786 16.7021 28.4293 19.2057 28.4555C19.3401 28.4571 19.5595 28.4047 19.6422 28.5365V28.5358Z" fill="#8B4343"/>
<path d="M20.6776 28.4565H20.7571L21.6317 30.1248C21.3375 30.1646 20.7484 30.1487 20.4391 30.1248C20.2849 30.1129 19.9803 29.9842 19.7617 29.9675C17.2612 29.7769 14.7505 29.6728 12.25 29.4885C12.4511 29.2216 12.9417 29.359 13.243 29.3296C15.3841 29.1199 17.5316 28.7949 19.644 28.5359C19.9644 28.497 20.1656 28.528 20.5186 28.4565C20.5663 28.447 20.6267 28.4629 20.6776 28.4565Z" fill="#AC5D5D"/>
<path d="M25.4473 23.213C25.3376 23.5864 24.8208 24.0813 24.5338 24.4055C23.5829 25.4788 22.5676 26.529 21.592 27.5833C21.3957 27.7954 20.9536 28.102 20.8359 28.2975C21.2541 26.398 22.0993 24.6208 22.5851 22.7363L25.4473 23.213Z" fill="#903E3E"/>
<path d="M26.399 20.0351C26.1867 20.0931 26.2241 19.8833 26.1875 19.7332C26.0778 19.2867 25.6381 17.1345 25.6874 16.8223C25.7192 16.6221 26.6725 14.5605 26.8379 14.2372C26.8848 14.1458 26.9118 14.0171 27.0351 13.998C27.0653 16.0271 26.5755 18.0211 26.399 20.0351Z" fill="#E0C5C5"/>
<path d="M6.84438 14.3152L9.7861 14.7124L9.24466 21.729L13.6819 24.4055C13.6874 24.5016 13.6389 24.5715 13.7312 24.651C13.8051 24.7145 14.6654 25.0911 14.7147 25.0411V24.2466C14.826 24.2752 14.8896 24.1902 15.0335 24.3261C15.1003 24.7654 14.8045 25.2206 15.3515 25.2794C15.365 25.5193 15.6258 25.6305 15.8047 25.7402C17.1778 26.5831 18.6828 27.2536 20.0678 28.0774C20.1672 28.137 20.3818 28.377 20.5194 28.4572C20.1664 28.5287 19.9652 28.4977 19.6448 28.5366C19.5621 28.4048 19.3427 28.4572 19.2083 28.4556C16.7039 28.4294 14.1971 28.4779 11.6942 28.4572L11.513 28.4405L6.76488 23.2933C6.76011 22.7912 6.77203 22.2859 6.76488 21.7838C6.74977 20.7042 6.76329 19.6102 6.76488 18.5266C6.76647 17.1315 6.6973 15.6856 6.84438 14.316V14.3152Z" fill="#6A2B2B"/>
<path d="M13.6812 8.75397L9.94368 14.5932C9.92619 14.7568 9.95243 14.6973 10.0621 14.7123C10.7912 14.8148 11.7349 14.6361 12.4887 14.7123C12.3996 14.8204 12.3686 14.9809 12.3296 15.0301C12.27 15.1056 12.111 15.1858 12.014 15.3106C11.6316 15.8039 11.2269 16.2909 10.9129 16.8335C11.0862 18.3565 11.2921 19.8763 11.374 21.4096C11.405 21.5478 13.4165 22.6704 13.6812 23.0541V23.5307C13.6812 23.8191 13.6638 24.1178 13.6812 24.4046L9.24403 21.7281L9.78546 14.7116L6.84375 14.3143V14.2349C7.12043 14.2349 7.88766 13.5747 8.15321 13.3586C9.2488 12.468 10.6195 11.3145 11.6141 10.3421C11.6411 10.3159 11.6674 10.2888 11.6936 10.2626C11.8367 10.1188 11.944 10.0386 12.0911 9.8654C12.115 9.8376 12.1484 9.81615 12.1706 9.78596C12.3336 9.81615 12.3591 9.666 12.4092 9.62707C12.8138 9.31485 13.2559 9.03679 13.6812 8.75317V8.75397Z" fill="#A14646"/>
<path d="M12.0913 9.86632C11.9442 10.0395 11.8369 10.1197 11.6938 10.2635C11.6699 10.0053 11.8289 9.84249 12.0913 9.86632Z" fill="#9A4D4D"/>
<path d="M12.4065 9.62779C12.3564 9.66672 12.331 9.81687 12.168 9.78668C12.1998 9.74378 12.0781 9.56105 12.4065 9.62779Z" fill="#9A4D4D"/>
<path d="M12.4069 7.95959C12.395 8.01044 12.4284 8.18045 12.4069 8.19713C12.3743 8.22255 12.1978 8.16297 12.1072 8.21461C11.9203 8.32106 11.4727 10.0315 11.2938 10.3429L7.75502 12.0097C7.72958 11.8135 8.15255 11.6037 7.79557 11.4552C9.28948 10.304 10.7428 9.09566 12.2479 7.95959C12.3004 7.96198 12.3544 7.95562 12.4069 7.95959Z" fill="#552828"/>
<path d="M6.76105 18.5258C6.75946 19.6095 6.74594 20.7034 6.76105 21.7831C6.53923 21.8363 6.5909 21.6083 6.56308 21.4677C6.41281 20.7217 6.30548 19.9161 6.20451 19.1614C6.16952 18.9008 6.1576 18.6275 6.125 18.3669L6.76105 18.5258Z" fill="#9A4D4D"/>
<path d="M20.6745 28.4562C20.6237 28.4625 20.5632 28.4466 20.5155 28.4562C20.3772 28.3759 20.1633 28.136 20.0639 28.0764C18.6789 27.2518 17.1747 26.5813 15.8008 25.7391C15.6227 25.6295 15.3612 25.5183 15.3477 25.2784C16.1658 25.3665 15.9758 25.0821 15.9837 24.4045C16.1936 24.1836 16.2429 24.4593 16.3017 24.4839V25.1997H17.2566C17.2709 24.9908 17.2359 24.7715 17.2566 24.5634C17.3361 23.7641 17.7042 24.6611 17.6549 25.04C17.6764 25.0591 17.9149 24.9812 17.9721 24.9606C18.0612 24.928 18.574 24.6571 18.5915 24.6269C18.6519 24.5228 18.6209 23.32 18.6861 23.0309C18.8268 22.8728 19.09 22.7774 19.2442 22.6575L20.6753 28.457L20.6745 28.4562Z" fill="#903E3E"/>
<path d="M13.7567 13.3618L13.6772 13.4413H13.5977C13.6557 13.4071 13.6589 13.3793 13.7567 13.3618Z" fill="#6A3B3B"/>
<path d="M20.0415 19.1613C20.1011 19.8278 19.6877 20.9472 18.9284 20.9885C18.6477 21.0036 17.6793 20.7581 17.4949 20.5539C17.3104 20.3498 16.9757 19.2947 17.1085 19.0548C17.2182 18.8562 17.8892 18.3358 18.0912 18.3199C18.3758 18.2977 19.8864 18.9007 20.0415 19.1605V19.1613Z" fill="#A14646"/>
<path d="M20.0694 19.2492C20.1222 19.8394 19.7561 20.8307 19.0837 20.8672C18.8352 20.8806 17.9777 20.6632 17.8144 20.4824C17.651 20.3016 17.3546 19.3674 17.4722 19.1549C17.5694 18.9791 18.1636 18.5183 18.3424 18.5042C18.5944 18.4845 19.9321 19.0185 20.0694 19.2485V19.2492Z" fill="#FF0000"/>
<path d="M13.1257 18.6846C13.4652 19.2375 13.9621 19.9017 14.3994 20.3918C14.4924 20.4959 14.5592 20.5889 14.7159 20.5913C14.5012 20.774 13.3817 21.1315 13.1257 20.9885C12.5779 20.6818 12.3052 20.1789 12.2512 19.5585C12.2138 19.1311 12.3943 19.0762 12.4102 19.0024C12.6352 18.8633 12.884 18.7847 13.1257 18.6846Z" fill="#A14646"/>
<path d="M14.7151 20.5915C14.5585 20.5883 14.4909 20.4962 14.3987 20.3921C13.9614 19.9027 13.4653 19.2385 13.125 18.6848C13.3651 18.5855 14.0425 18.2614 14.2762 18.286C14.3836 18.2971 15.1317 18.9255 15.1985 19.0399C15.278 19.175 15.2685 19.1726 15.2406 19.3212C15.1977 19.5539 14.8749 20.4556 14.7151 20.5915Z" fill="#C17272"/>
<path d="M16.4623 20.9884C16.5712 21.199 16.995 22.2929 17.0053 22.4812C17.0164 22.6862 16.8709 22.7426 16.8598 22.8157C16.5147 22.9913 16.223 22.4939 16.1832 22.4963C16.0345 22.5051 15.311 23.259 15.2307 22.5082C15.2148 22.3597 15.9614 20.6961 16.0623 20.6286C16.2222 20.5221 16.4042 20.8772 16.4623 20.9884Z" fill="#A14646"/>
<path d="M24.5907 5.2971C24.1928 5.08466 23.6952 4.69895 23.403 4.34766C23.4849 4.17913 23.6168 4.04977 23.7676 3.94177L27.2025 1.49931C27.212 3.08133 27.1134 4.67047 26.9661 6.24536C26.2381 5.88338 25.2938 5.67095 24.5907 5.29591L24.5907 5.2971Z" fill="#753F2E"/>
<path d="M24.5894 5.29705C25.2925 5.67208 26.2368 5.88452 26.9648 6.2465C26.896 6.43402 24.131 8.40174 23.758 8.62012C23.543 8.53941 23.7449 8.25339 23.7877 8.11691C24.0823 7.18526 24.302 6.22988 24.5894 5.29705Z" fill="#552828"/>
<path d="M23.7584 8.62032C23.7228 8.64049 23.7454 8.80308 23.5221 8.73781C23.496 8.36515 23.5565 7.97825 23.5256 7.60678C23.5126 7.45487 23.4021 7.29465 23.4021 7.25549L23.4021 5.35659C23.4021 5.02547 23.1195 4.92578 23.4021 4.34781C23.6943 4.6991 24.192 5.08481 24.5898 5.29725C24.3024 6.23008 24.0827 7.18547 23.7881 8.11711C23.7454 8.25359 23.5435 8.53961 23.7584 8.62032Z" fill="#C17272"/>
<path d="M6.5478 6.00756C6.15234 6.14054 5.57696 6.23071 5.15512 6.20443C5.0937 6.04233 5.0903 5.87152 5.11333 5.70147L5.64916 1.83983C6.71992 2.83732 7.72688 3.91208 8.69337 5.01057C7.98774 5.27088 7.24559 5.77156 6.547 6.0068L6.5478 6.00756Z" fill="#753F2E"/>
<path d="M6.54911 6.0076C7.24769 5.77236 7.98985 5.27167 8.69547 5.01136C8.77796 5.17672 8.34771 8.28628 8.25803 8.67585C8.06729 8.76932 8.00292 8.45193 7.9382 8.33654C7.4981 7.54711 6.99453 6.79298 6.54911 6.0076Z" fill="#552828"/>
<path d="M8.2541 8.67617C8.24507 8.71296 8.36882 8.80094 8.18319 8.9098C7.91581 8.69091 7.69385 8.40463 7.42425 8.18969C7.31372 8.10209 7.1358 8.07476 7.10944 8.04991L5.83144 6.84494C5.60859 6.63482 5.36212 6.76181 5.1525 6.2048C5.57434 6.23107 6.14973 6.1409 6.54519 6.00792C6.99061 6.79331 7.49417 7.54744 7.93427 8.33687C7.999 8.45226 8.06337 8.76965 8.2541 8.67617Z" fill="#C17272"/>
<path d="M15.4696 4.49671C15.1095 4.48123 14.6175 4.3754 14.2856 4.22333C14.2863 4.07357 14.3366 3.93478 14.4079 3.80481L16.0382 0.857363C16.592 1.9939 17.0705 3.17294 17.5089 4.35856C16.8592 4.3495 16.1054 4.52294 15.4692 4.49586L15.4696 4.49671Z" fill="#753F2E"/>
<path d="M15.4676 4.49599C16.1039 4.52307 16.8577 4.34963 17.5074 4.35869C17.5226 4.51761 16.2108 6.8914 16.0176 7.17769C15.8348 7.19388 15.8814 6.91799 15.865 6.80487C15.7551 6.03178 15.5831 5.26746 15.4676 4.49599Z" fill="#552828"/>
<path d="M16.0191 7.17857C16.0004 7.20543 16.0729 7.31477 15.8894 7.34495C15.7418 7.08549 15.6516 6.78579 15.5009 6.52883C15.439 6.42389 15.304 6.34665 15.2905 6.31843L14.6339 4.95031C14.5194 4.71174 14.2812 4.73765 14.2851 4.22349C14.617 4.37556 15.109 4.48139 15.4691 4.49687C15.5846 5.26835 15.7566 6.03266 15.8665 6.80575C15.8829 6.91887 15.8363 7.19476 16.0191 7.17857Z" fill="#C17272"/>
<path d="M14.3951 11.9401C14.6449 11.9469 14.8525 12.0282 15.0808 12.038C15.5167 12.0566 16.1426 12.1358 16.5011 12.1358H17.9704C18.0037 12.1358 18.135 12.2278 18.2604 12.2376C18.6453 12.267 19.0558 12.1349 19.3908 12.3316C19.1194 12.6781 18.4915 15.0106 18.2545 15.0644C17.9479 15.1339 13.54 12.3189 12.9258 11.9401C13.3617 11.898 13.9445 11.9274 14.3951 11.9401Z" fill="#EAE4ED"/>
<path d="M12.7274 12.3313C13.0242 12.2765 12.9155 12.4811 12.9233 12.67C12.9772 14.0618 13.1251 15.4409 13.1202 16.8338L18.0767 15.2785C19.4128 15.2168 20.7195 15.6641 22.0331 15.855C22.0537 15.8931 22.2084 15.8863 22.2065 16.0742C21.9028 17.8439 21.9283 19.7878 21.5433 21.532C21.4934 21.4723 21.3719 21.3969 21.3474 21.3362C21.0594 20.6305 20.8625 19.7946 20.5638 19.085C20.3718 18.7649 18.5116 18.022 18.161 18.0494C17.9122 18.069 17.0854 18.7101 16.9502 18.9548C16.7867 19.2504 17.203 20.5551 17.4263 20.8018C17.6496 21.0485 18.8466 21.3558 19.1924 21.3372C19.5921 21.5065 19.2473 21.8775 19.2904 22.2181C19.259 22.2191 19.2238 22.222 19.1924 22.2181C18.4431 22.1271 17.346 21.2765 16.5731 21.0563L16.1558 21.3372C16.0843 21.2002 15.86 20.7627 15.6631 20.8938C15.5387 20.977 14.6189 23.0266 14.6385 23.2096C14.7384 24.1356 15.6288 23.2057 15.812 23.195C15.861 23.192 16.2205 23.8048 16.6456 23.5884C16.5937 23.9525 17.4449 24.1689 17.3313 24.6651H15.3232C15.0009 24.6651 14.6767 24.7317 14.2878 24.623C13.9234 24.5212 13.562 24.1003 13.3583 24.0739C13.1956 24.0524 12.8548 24.2051 12.8254 24.1757C12.796 24.1464 12.8528 23.9408 12.8254 23.8821C12.9008 23.6041 13.8755 22.3826 13.707 22.2181C13.3054 22.1985 12.8949 22.2504 12.4933 22.2064C12.2719 22.1829 12.0466 22.0351 11.9438 22.0214C11.9673 21.807 11.8556 21.4752 12.0417 21.3362C12.3572 21.5124 13.7364 21.072 14.0008 20.8468C14.1977 20.6795 14.5954 19.5685 14.6483 19.2817C14.6826 19.0987 14.6944 19.1016 14.5964 18.9352C14.5141 18.7953 13.5924 18.021 13.4601 18.0064C13.1731 17.976 12.3376 18.3754 12.0417 18.4977C11.7459 18.6201 11.4374 18.7179 11.1602 18.8892C11.4403 17.5659 11.6274 16.1907 11.9438 14.8762C12.1554 13.9992 12.5139 13.1525 12.7274 12.3313Z" fill="#F4EEFB"/>
<path d="M19.3947 12.3313C19.5397 12.4165 20.9277 14.2723 21.1579 14.5826C21.4371 14.9594 21.8201 15.4576 22.0395 15.855C20.7259 15.6632 19.4192 15.2168 18.0831 15.2785L13.1266 16.8338C13.1315 15.441 12.9846 14.0618 12.9297 12.67C12.9219 12.4821 13.0306 12.2775 12.7338 12.3313C12.7544 12.252 12.7201 12.1287 12.7338 12.0377L12.8318 11.9398C12.8631 11.9339 12.8974 11.9427 12.9297 11.9398C13.5439 12.3186 17.9518 15.1336 18.2584 15.0641C18.4955 15.0103 19.1244 12.6778 19.3947 12.3313Z" fill="#DBD4E0"/>
<path d="M21.5467 21.5322C21.5105 21.6956 21.5467 21.8376 21.4194 21.9932C21.2293 22.2242 19.952 23.108 19.5876 23.3919C19.3976 23.5397 19.0743 23.6572 18.9 23.8519C18.8187 24.2082 18.8579 25.6911 18.7834 25.8183C18.7619 25.8555 18.1301 26.1903 18.0203 26.2294C18.0037 26.017 18.2476 25.9231 18.2936 25.7694C18.47 25.187 17.9782 24.7877 18.0664 24.2709C18.1702 23.6611 19.1155 22.8986 19.1958 22.2164C19.2271 22.2203 19.2624 22.2173 19.2938 22.2164C19.3946 22.2125 19.4936 22.2144 19.5886 22.1723L21.3508 21.3354C21.3753 21.3961 21.4967 21.4715 21.5467 21.5312V21.5322Z" fill="#E7DFEF"/>
<path d="M12.7277 12.0376C12.714 12.1286 12.7483 12.252 12.7277 12.3312C12.5142 13.1524 12.1557 13.9991 11.9441 14.8761C11.3133 14.6157 11.9353 13.9482 11.0625 13.9952C11.1105 13.9345 11.1487 13.7368 11.2584 13.6037C11.5474 13.2513 12.3173 12.2226 12.6298 12.0376H12.7277Z" fill="#E9E0F2"/>
<path d="M19.1955 22.2172C19.1161 22.8985 18.1709 23.662 18.066 24.2717C17.9779 24.7876 18.4696 25.1879 18.2933 25.7703C18.2473 25.9239 18.0034 26.0189 18.02 26.2303C17.9495 26.2558 17.6556 26.3517 17.6292 26.3282C17.6899 25.8603 17.2364 24.7553 17.1384 25.7409C17.0013 26.1315 16.2892 25.782 15.963 25.643C15.8905 25.6127 15.8297 25.273 15.5711 25.5452C15.388 25.738 15.4928 25.9925 15.4732 26.2303C14.8091 26.3546 14.6896 25.7243 14.3957 25.4473C14.2194 25.2799 14.14 25.3846 14.0039 25.3494C13.6885 25.2682 13.6258 24.9324 13.3143 24.7181C13.136 24.5957 12.9215 24.5595 12.7305 24.4685V23.8812C12.7403 23.8949 12.8216 23.8675 12.8284 23.8812C12.8559 23.9399 12.7981 24.1455 12.8284 24.1748C12.8588 24.2042 13.1977 24.0515 13.3613 24.073C13.565 24.0995 13.9265 24.5204 14.2909 24.6222C14.6798 24.7308 15.004 24.6642 15.3263 24.6642H17.3343C17.448 24.168 16.5967 23.9517 16.6486 23.5876C16.6614 23.4975 16.8406 23.428 16.8279 23.1755C16.8161 22.9435 16.294 21.5957 16.1589 21.3363L16.5762 21.0554C17.349 21.2756 18.4461 22.1262 19.1955 22.2172Z" fill="#E9E0F2"/>
<path d="M12.7284 24.4685C12.9194 24.5595 13.134 24.5957 13.3122 24.7181C13.6247 24.9325 13.6864 25.2682 14.0018 25.3494V26.3282C13.9411 26.3909 12.8803 25.9259 12.7892 25.8476C12.6755 25.7497 12.7353 25.6636 12.7284 25.5452C12.7069 25.1918 12.7284 24.8238 12.7284 24.4685Z" fill="#E7DFEF"/>
<path d="M14.3972 25.4473C14.6901 25.7252 14.8105 26.3546 15.4747 26.2303C15.4952 25.9925 15.3895 25.738 15.5726 25.5451C15.5628 26.3801 15.7969 26.7305 14.789 26.6218C14.1151 26.5494 14.4795 25.9885 14.3972 25.4473Z" fill="#E7DFEF"/>
<path d="M11.9435 14.8762C11.6272 16.1907 11.4401 17.5659 11.1599 18.8893C11.1403 18.9803 10.918 19.0478 10.964 19.5744L10.7691 19.4295C10.7563 19.8328 9.79834 21.4909 9.99523 21.7189C10.0374 21.7669 10.963 21.9822 11.1227 22.0097C11.394 22.0557 11.6859 21.9881 11.9435 22.0224C12.0474 22.0361 12.2717 22.1839 12.4931 22.2074C12.8937 22.2504 13.3051 22.1995 13.7067 22.2191C13.8752 22.3826 12.9006 23.6041 12.8251 23.8831C12.8183 23.8694 12.737 23.8968 12.7272 23.8831C12.401 23.4103 9.92274 22.0282 9.88454 21.857C9.78365 19.9689 9.52995 18.0954 9.31641 16.2191C9.70333 15.5506 10.2019 14.9506 10.6731 14.3427C10.7926 14.1891 10.9885 14.0892 11.062 13.9972C11.9347 13.9502 11.3127 14.6178 11.9435 14.8781V14.8762Z" fill="#E7DFEF"/>
<path d="M10.9681 19.5743C11.0347 20.3387 11.3707 20.9583 12.0456 21.3361C11.8595 21.4751 11.9711 21.8069 11.9476 22.0213C11.69 21.988 11.3981 22.0556 11.1268 22.0086C10.9661 21.9812 10.0414 21.7658 9.99931 21.7179C9.80242 21.4908 10.7604 19.8317 10.7732 19.4285L10.9681 19.5733V19.5743Z" fill="#E9E0F2"/>
<path d="M21.3464 21.3364L19.5842 22.1733C19.4892 22.2144 19.3903 22.2134 19.2894 22.2174C19.2463 21.8767 19.5911 21.5058 19.1914 21.3364C20.1269 21.2855 20.6362 19.9064 20.5628 19.0852C20.8615 19.7948 21.0584 20.6307 21.3464 21.3364Z" fill="#E9E0F2"/>
<path d="M15.9658 25.6431C16.292 25.7821 17.0041 26.1315 17.1413 25.7409C17.1158 25.9974 17.1599 26.2675 17.1413 26.525H15.9648V25.6431H15.9658Z" fill="#E7DFEF"/>
<path d="M11.2829 19.2018C11.2244 19.856 11.6302 20.9547 12.3754 20.9953C12.6509 21.0101 13.6013 20.7691 13.7824 20.5687C13.9634 20.3683 14.2919 19.3328 14.1616 19.0973C14.0539 18.9024 13.3953 18.3917 13.1971 18.3761C12.9177 18.3542 11.4351 18.9461 11.2829 19.2011V19.2018Z" fill="#FF0000"/>
</svg>
