<svg width="32" height="32" viewBox="0 0 32 32" fill="none" xmlns="http://www.w3.org/2000/svg">
<g clip-path="url(#clip0_129_1313)">
<path d="M14.734 11.1337C14.7374 11.13 14.7938 11.1378 14.8252 11.0962C15.0333 10.8227 15.2422 10.5477 15.441 10.2674C15.4525 10.2326 15.5082 10.2333 15.5351 10.2415C15.5934 10.2593 16.0975 11.1422 16.266 11.2079L16.3033 11.245L16.3407 14.6596L15.5187 14.5854V18.5195L16.3781 14.9565C16.4662 15.8539 16.5832 16.9908 16.7532 17.8693C16.7622 17.9157 16.7255 17.9364 16.8074 17.9253L23.5897 13.2863C23.595 13.2923 23.685 13.2637 23.6652 13.3379L22.9624 16.3446L23.994 17.0787L24 17.1604L22.6186 19.9495C22.6205 20.0431 23.3151 20.6376 23.3278 20.7464L20.638 21.9708L22.5779 19.9803C22.5906 19.9083 21.8676 19.3067 21.7581 19.2065C21.6143 19.0751 21.201 18.5767 21.0322 18.5934L16.6773 21.1914L16.7517 17.9999L15.4679 18.9623L14.1739 17.9628L14.323 21.2285C12.8322 20.4079 11.4026 19.4129 9.92637 18.5615L8.42208 19.98L10.4368 22.0075L7.70955 20.8199C7.70095 20.8073 7.64379 20.7961 7.63706 20.7609C7.61913 20.6718 8.33166 20.1047 8.38136 19.9488L7 17.1604L7.00598 17.0787L7.95354 16.4426L8.01145 16.3116L7.34525 13.4422L7.33553 13.2863C9.64053 14.7683 11.894 16.3257 14.1175 17.9253C14.1949 17.9372 14.1624 17.9153 14.1773 17.8748C14.2117 17.7835 14.2289 17.6009 14.2431 17.494C14.351 16.6801 14.4445 15.8116 14.5095 14.9936C14.6541 14.9784 14.5995 14.9936 14.626 15.0805C14.8951 15.9631 15.0856 17.0071 15.2825 17.9186C15.3053 18.0244 15.3801 18.6064 15.4066 18.6309C15.4107 18.6346 15.5138 18.6338 15.5183 18.6305C15.5404 18.6127 15.4809 18.5444 15.4809 18.5381V14.5854C15.1675 14.5939 14.8618 14.6841 14.5468 14.6596C14.5988 13.8505 14.5827 13.0355 14.6201 12.2271C14.6313 11.9888 14.6346 11.4276 14.6963 11.245C14.7075 11.2116 14.7109 11.1601 14.7337 11.1337H14.734Z" fill="#62B246"/>
<path d="M10.0625 9.01816L10.5568 6.2431L11.9326 5.99517L12.7613 3.79353L13.7193 3.63171C13.7866 3.59051 14.0788 2.41249 14.1905 2.29966C14.2877 2.20131 14.6471 2.31859 14.7704 2.24474C14.8627 2.18981 15.2763 1.34025 15.3761 1.1762C15.3944 1.14614 15.49 0.982838 15.5177 1.00177C15.6589 1.15616 16.1084 2.20391 16.1985 2.25587C16.2997 2.31451 16.7249 2.20094 16.8079 2.30041L17.2458 3.59125L18.2285 3.78462L19.0479 5.97698L20.4453 6.24087L20.9363 9.01927L17.3388 9.76973L17.1834 9.91225L16.3027 11.2458L16.2653 11.2087L15.5177 7.42297C15.403 7.54693 15.3813 7.80117 15.3428 7.97264C15.1089 9.01853 14.9344 10.0819 14.7334 11.1344C14.7106 11.1608 14.7073 11.2124 14.696 11.2458C14.6161 11.2632 14.615 11.2031 14.584 11.1548C14.2873 10.6887 14.0145 10.1899 13.6607 9.76899C12.4587 9.53294 11.2522 9.30988 10.0629 9.0189L10.0625 9.01816Z" fill="#C5DC6D"/>
<path d="M20.9756 9.0553L19.0704 12.3952L22.3954 9.61202C22.4825 9.94828 22.3685 10.7937 22.3566 11.1879C22.3424 11.6574 22.3641 12.1247 22.3192 12.5934C22.3357 12.6606 23.408 13.1052 23.5657 13.2114C23.6004 13.2348 23.5866 13.2812 23.5911 13.2864L16.8087 17.9253C16.7269 17.9368 16.7639 17.916 16.7546 17.8693C16.5849 16.9908 16.4676 15.854 16.3794 14.9565C16.3697 14.8582 16.4123 14.7413 16.3421 14.6596L16.3047 11.2451L17.1854 9.91153L17.3408 9.76901L20.9382 9.01855C20.9573 9.01855 20.973 9.0553 20.9756 9.05567V9.0553ZM19.014 12.4698V12.507C19.0383 12.4947 19.0383 12.4821 19.014 12.4698Z" fill="#92C950"/>
<path d="M10.0635 9.01831C11.2532 9.30892 12.4593 9.53235 13.6613 9.7684C14.0152 10.1893 14.2879 10.6881 14.5846 11.1543C14.6152 11.2025 14.6167 11.2626 14.6967 11.2452C14.635 11.4278 14.6313 11.989 14.6205 12.2272C14.5831 13.0356 14.5992 13.8506 14.5472 14.6597C14.5394 14.7792 14.5188 14.8824 14.5099 14.9938C14.4449 15.8118 14.3515 16.6806 14.2435 17.4942C14.2293 17.6011 14.2121 17.7837 14.1777 17.875C14.1624 17.9154 14.1953 17.9373 14.1179 17.9255C11.8944 16.3254 9.64057 14.7685 7.33594 13.2865C7.36396 13.1985 8.51067 12.7413 8.63771 12.5939L8.56896 9.57503L11.9687 12.4325L10.0262 9.05543L10.0635 9.01831Z" fill="#92C950"/>
<path d="M14.3229 21.229C14.466 21.3077 15.4341 21.8202 15.4999 21.8202C15.6254 21.8202 16.5861 21.2078 16.6391 21.2665L16.2285 24.3466C16.4769 24.2383 16.7243 24.1095 16.9634 23.9822C17.9439 23.4596 18.8989 22.8606 19.8894 22.3606C19.963 22.3235 20.2806 22.1454 20.3385 22.1947L18.1718 25.2749C19.274 24.8911 20.361 24.4583 21.4606 24.0683C21.5181 24.0479 21.5772 24.0605 21.6089 24.0505L19.1593 25.9426C19.1096 26.0246 19.641 26.4811 19.5913 26.5368L15.7995 28.0963L15.5555 31.9922C15.4076 32.0115 14.6525 32.0045 14.6263 31.8972L15.1281 28.057L11.4089 26.5364C11.3853 26.5056 11.528 26.3338 11.5591 26.2966C11.6252 26.2176 11.7844 26.042 11.8569 25.98C12.5533 25.3884 13.7501 24.8766 14.5957 24.4869C14.6566 24.4587 14.7268 24.4758 14.7754 24.4353C14.8169 24.3812 14.7731 24.1874 14.7649 24.1117C14.6581 23.1575 14.4197 22.1892 14.3229 21.2294V21.229Z" fill="#2B6633"/>
<path d="M14.3244 21.2289L14.1753 17.9631L15.4693 18.9626L16.7531 18.0002L16.6787 21.1917L21.0335 18.5937C21.2024 18.577 21.6157 19.0755 21.7595 19.2068C21.869 19.3071 22.592 19.9087 22.5793 19.9807L20.6394 21.9711L23.3292 20.7467C23.3363 20.8087 23.2634 20.8781 23.2321 20.929L21.4517 23.1317C21.424 23.1796 21.4169 23.2252 21.4304 23.2794C21.458 23.3886 21.8302 23.8792 21.8302 23.9204C21.8302 23.9835 21.6635 24.0329 21.6105 24.0499C21.5787 24.0603 21.5197 24.0473 21.4621 24.0678C20.3621 24.4578 19.2752 24.8906 18.1733 25.2743L20.3401 22.1942C20.2822 22.1448 19.9646 22.323 19.8909 22.3601C18.9004 22.86 17.9454 23.4591 16.9649 23.9816C16.7258 24.1089 16.4785 24.2381 16.23 24.3461L16.6406 21.266C16.5876 21.2073 15.6269 21.8197 15.5014 21.8197C15.4356 21.8197 14.4675 21.3072 14.3244 21.2285C14.4212 22.1883 14.6596 23.1566 14.7664 24.1108C14.775 24.1865 14.8187 24.3803 14.7769 24.4344C14.7279 24.4753 14.6581 24.4582 14.5972 24.486C13.752 24.8757 12.5548 25.3875 11.8584 25.9792L9.18421 23.9382L9.61054 23.1822C9.02653 22.3839 8.25571 21.6382 7.71094 20.8202L10.4382 22.0079L8.42347 19.9803L9.92776 18.5618C11.404 19.4136 12.834 20.4082 14.3244 21.2289Z" fill="#418C41"/>
<path d="M20.9755 9.05542C21.4377 9.12742 21.9048 9.41283 22.3714 9.49931C22.4223 9.51861 22.3871 9.58022 22.3954 9.61214L19.0703 12.3954L20.9755 9.05542Z" fill="#C5DC6D"/>
<path d="M10.0275 9.05542L11.9701 12.4325L8.57031 9.57502C9.03326 9.35753 9.53655 9.20499 10.0275 9.05542Z" fill="#C5DC6D"/>
<path d="M16.2663 11.2081C16.0982 11.1424 15.5941 10.2594 15.5355 10.2416C15.5086 10.2334 15.4533 10.2327 15.4413 10.2676C15.2425 10.5478 15.0337 10.8232 14.8255 11.0963C14.7942 11.1379 14.7374 11.1301 14.7344 11.1338C14.9354 10.0813 15.1099 9.01792 15.3438 7.97203C15.3823 7.80056 15.4039 7.54633 15.5187 7.42236L16.2663 11.2081Z" fill="#92C950"/>
<path d="M14.5491 14.6597C14.8641 14.6842 15.1697 14.594 15.4832 14.5854V18.5382C15.4832 18.5445 15.5426 18.6128 15.5206 18.6306C15.5161 18.6339 15.4129 18.6347 15.4088 18.6309C15.3823 18.6064 15.3076 18.0245 15.2848 17.9187C15.0879 17.0068 14.8973 15.9631 14.6283 15.0806C14.6018 14.9933 14.6563 14.9785 14.5117 14.9937C14.5207 14.8824 14.5412 14.7792 14.5491 14.6597Z" fill="#418C41"/>
<path d="M16.3415 14.6597C16.4118 14.7413 16.3692 14.8582 16.3789 14.9566L15.5195 18.5196V14.5854L16.3415 14.6597Z" fill="#418C41"/>
<path d="M19.0117 12.47C19.036 12.4822 19.036 12.4948 19.0117 12.5071V12.47Z" fill="#C5DC6D"/>
</g>
<defs>
<clipPath id="clip0_129_1313">
<rect width="17" height="31" fill="white" transform="translate(7 1)"/>
</clipPath>
</defs>
</svg>
