<svg width="32" height="32" viewBox="0 0 32 32" fill="none" xmlns="http://www.w3.org/2000/svg">
<mask id="mask0_85_510" style="mask-type:alpha" maskUnits="userSpaceOnUse" x="2" y="5" width="28" height="23">
<path d="M5.85363 5.63513L11.1813 5.08545L16.0862 9.10238L20.9911 5.08545L26.2342 5.63513L29.1518 10.1595V14.5569L27.0799 19.1658L22.6824 23.6056L16.0862 27.7494L9.32085 23.6056L4.92337 19.1658L2.85156 14.5569V10.1595L5.85363 5.63513Z" fill="#D9D9D9"/>
</mask>
<g mask="url(#mask0_85_510)">
<path d="M5.85363 5.63513L11.1813 5.08545L16.0862 9.10238L20.9911 5.08545L26.2342 5.63513L29.1518 10.1595V14.5569L27.0799 19.1658L22.6824 23.6056L16.0862 27.7494L9.32085 23.6056L4.92337 19.1658L2.85156 14.5569V10.1595L5.85363 5.63513Z" fill="#EC6963"/>
<path d="M6.05363 7.24016C6.15154 7.40024 6.26957 7.49459 6.38983 7.6417C7.28354 8.73719 8.25237 9.91317 9.20509 10.9519C9.27305 11.0257 9.34235 11.1209 9.45143 11.1303V11.2197C10.1279 13.0038 10.798 14.7933 11.5076 16.5635L15.9788 20.2073L16.0235 20.252L16.0235 24.3553C16.3351 24.3937 16.7647 24.1604 17.07 24.13C17.7353 24.0638 19.0203 24.1475 19.5773 23.9641C19.6833 23.9293 19.813 23.9722 19.9395 23.9641C20.0892 23.9547 20.1545 24.0853 20.2265 24.0978C19.2438 24.9054 18.3278 25.7938 17.3656 26.6246C17.1256 26.8321 16.7831 27.0463 16.5622 27.252C16.4943 27.3155 16.4567 27.3472 16.4706 27.4509C16.3628 27.514 16.0973 27.7796 15.9779 27.7469L9.18184 23.5398L4.73743 19.042L2.61111 14.1261L2.56641 14.0367C2.59189 13.9643 2.59547 13.8874 2.61111 13.8131C2.71975 13.2945 2.91826 12.7346 3.03629 12.2039C3.16415 11.6284 3.22764 10.7833 3.37115 10.2807C3.37249 10.2754 3.4324 10.2521 3.44939 10.2038C3.93447 8.8141 4.63639 7.36044 5.20418 5.98817C5.21625 5.95866 5.193 5.88845 5.20418 5.85402L5.24888 5.80931C5.28912 5.73509 5.61594 5.23697 5.65126 5.22803C5.65752 5.5294 5.69954 5.83793 5.75185 6.13349C5.80773 6.45096 5.89804 6.98619 6.05363 7.24016Z" fill="#CC2327"/>
<path d="M3.46484 10.3726L9.49342 11.1454L3.7355 15.4348L3.46484 10.3726Z" fill="#C01815"/>
<path d="M3.72656 15.4114L8.45249 15.9343L4.54599 18.7583L3.72656 15.4114Z" fill="#C01815"/>
<path d="M6.7302 17.7598L9.3237 23.7971L4.54688 18.7584L6.7302 17.7598Z" fill="#C01815"/>
<path d="M8.52617 15.937L9.49229 11.1453L3.73438 15.4346L8.52617 15.937Z" fill="#C51916"/>
<path d="M8.52828 15.937L11.5844 16.5822L4.67969 18.6706L8.52828 15.937Z" fill="#C51916"/>
<path d="M8.52344 15.937L9.48956 11.1453L11.5128 16.5912L8.52344 15.937Z" fill="#D9221E"/>
<path d="M6.79688 17.9448L9.02138 23.3365L11.514 16.5911L6.79688 17.9448Z" fill="#D2211A"/>
<path d="M16.094 20.2842L9.96875 21.0439L11.5143 16.5911L16.094 20.2842Z" fill="#CB2019"/>
<path d="M16.093 20.2844L9.96769 21.0441L9.16016 23.6082L16.093 20.2844Z" fill="#DB261C"/>
<path d="M16.093 20.2844V28.119L9.16016 23.6082L16.093 20.2844Z" fill="#CE211B"/>
<path d="M24.7868 4.95947C25.2813 5.01134 25.8938 5.00508 26.373 5.09451C26.4204 5.10345 26.458 5.11955 26.4893 5.15711L29.5017 9.79039C29.55 11.2262 29.4333 12.6655 29.4387 14.1057L29.2576 14.4389C29.2916 14.2989 29.3944 14.1871 29.3242 14.0373C29.3081 14.0029 28.8745 13.4945 28.8297 13.456C28.781 13.414 28.7537 13.4256 28.7211 13.4104C28.6263 13.3662 28.608 13.3836 28.5423 13.3657C27.8171 13.169 26.994 13.1198 26.2461 13.0018C24.8199 12.7759 23.3888 12.5582 21.9702 12.2926C21.659 10.8295 21.5374 9.12236 21.3058 7.6137C21.2777 7.43037 21.2862 7.18579 21.2549 7.01632C21.2272 6.87994 21.3219 6.93449 21.4337 6.92689L26.7978 8.24685L28.6652 13.1743L28.7658 13.2316C28.9451 12.1209 29.3989 11.0527 29.4185 9.9205C29.064 9.33788 28.7023 8.75883 28.3375 8.18291C27.8395 7.39639 27.2641 6.64385 26.7709 5.85957C26.6784 5.71201 26.5085 5.24296 26.3659 5.19154C26.2979 5.16695 26.2219 5.19556 26.1732 5.18349C25.693 5.06455 25.2518 5.12715 24.7872 4.95992L24.7868 4.95947Z" fill="#F08C83"/>
<path d="M28.7211 13.4107C28.3036 15.092 27.8377 16.7683 27.4349 18.4536C27.4184 18.5229 27.4353 18.5953 27.4246 18.6423C27.4005 18.7447 27.3991 18.8556 27.3576 18.9553C25.8755 20.4429 24.3652 21.9252 22.9306 23.4701C20.7797 24.7994 18.6489 26.1757 16.4716 27.451C16.4577 27.3472 16.4953 27.3155 16.5633 27.252C16.7841 27.0458 17.1266 26.8317 17.3667 26.6246C18.3283 25.7938 19.2448 24.9054 20.2275 24.0978C20.2794 24.1068 21.1266 23.9346 21.2661 23.9069C21.8634 23.7871 22.6954 23.6708 23.0638 23.1562C23.6817 22.2923 24.0577 21.055 24.688 20.1746C24.6612 19.5267 24.5705 18.881 24.4748 18.2403C24.448 18.1307 24.5727 18.137 24.633 18.0646C25.6873 16.7965 26.8103 15.5887 27.8712 14.3269C28.0434 14.1221 28.346 13.7979 28.4775 13.5918C28.5285 13.5122 28.5647 13.4729 28.5428 13.3665C28.6085 13.3843 28.6268 13.3665 28.7216 13.4112L28.7211 13.4107Z" fill="#E03E36"/>
<path d="M21.8799 4.64653C21.7565 4.63624 21.6291 4.65413 21.5035 4.64295C21.1874 4.61433 21.1467 4.41669 20.8118 4.71852C19.8099 5.62263 18.855 6.85719 17.9023 7.84493C17.4529 8.3104 16.9768 8.78795 16.498 9.20513C16.333 9.09111 16.3129 8.82506 16.1376 8.71327C15.9338 8.5836 16.0093 8.72758 15.9364 8.82774C15.9078 8.86709 15.6655 9.15326 15.6472 9.16623C15.535 9.24627 15.37 9.14924 15.3083 9.29679C14.0046 8.47718 12.6889 7.65981 11.3704 6.86345C11.2153 6.76955 11.0624 6.65777 10.8822 6.61395C10.9859 5.95888 10.9265 5.26224 11.0163 4.60226L5.87491 5.22781C5.8074 5.23809 5.71083 5.21305 5.65137 5.22781C5.61605 5.23675 5.28924 5.73487 5.249 5.80909C5.24229 5.82161 5.211 5.83369 5.20429 5.85381C5.19311 5.88824 5.21636 5.95844 5.20429 5.98795L4.88016 6.40155C4.4304 7.37945 3.37886 8.41503 2.95593 9.35224C2.92016 9.43138 2.8303 9.72158 2.8522 9.78999C2.90317 9.95141 3.2899 10.0936 3.37171 10.2805C3.2282 10.7831 3.16471 11.6286 3.03685 12.2037C2.91882 12.7344 2.72032 13.2942 2.61168 13.8129C2.53746 13.7664 2.56697 13.643 2.56607 13.5674C2.55311 12.3168 2.51868 11.0733 2.48828 9.82174C3.52908 8.28312 4.56452 6.73691 5.52529 5.14688L11.0168 4.48511L15.8922 8.51117L16.0393 8.57421L20.9419 4.53519C21.1203 4.45381 21.685 4.56291 21.8799 4.64608V4.64653Z" fill="#EA544B"/>
<path d="M21.8802 4.64674C22.8495 4.72812 23.8165 4.85824 24.7862 4.95974C25.2508 5.12697 25.692 5.06437 26.1722 5.18331L21.4783 6.83818L21.5673 6.92671C21.523 6.92984 21.4778 6.92403 21.4336 6.92716C21.3218 6.93476 21.227 6.88021 21.2548 7.01659C21.253 7.0072 21.1931 6.97098 21.2092 6.92671C19.6395 7.76913 18.0742 8.63703 16.5032 9.48525C16.3145 9.59659 16.2001 9.44904 16.0239 9.43115C16.0212 9.52013 16.0266 9.61001 16.0239 9.69943C15.9242 9.64175 15.7575 9.59972 15.6363 9.52818C15.5151 9.45664 15.4163 9.36453 15.3086 9.29701C15.3703 9.14945 15.5348 9.24648 15.6475 9.16644C15.6658 9.15348 15.9081 8.86731 15.9367 8.82796C16.0101 8.7278 15.9341 8.58382 16.1379 8.71349C16.3136 8.82527 16.3333 9.09132 16.4983 9.20534C16.9771 8.78816 17.4532 8.31061 17.9026 7.84514C18.8557 6.85785 19.8102 5.62285 20.8121 4.71873C21.147 4.41691 21.1872 4.61455 21.5038 4.64316C21.6299 4.65479 21.7568 4.63646 21.8802 4.64674Z" fill="#E03E36"/>
<path d="M29.2549 14.4391C28.9893 15.531 28.0862 17.252 27.6088 18.3592C27.5743 18.4392 27.5287 18.6601 27.4219 18.6422C27.4331 18.5952 27.4161 18.5228 27.4322 18.4535C27.8345 16.7682 28.3004 15.0919 28.7184 13.4106C28.751 13.4258 28.7783 13.4142 28.827 13.4563C28.8718 13.4947 29.3054 14.0027 29.3215 14.0375C29.3917 14.1873 29.2889 14.2991 29.2549 14.4391Z" fill="#EA544B"/>
<path d="M24.4737 18.2397C24.5694 18.88 24.6601 19.5261 24.6869 20.174C24.0566 21.0545 23.6806 22.2917 23.0627 23.1556C22.6943 23.6707 21.8623 23.7865 21.265 23.9063C21.1255 23.9345 20.2662 24.1132 20.2662 24.1132L20.0306 24.1319L19.6721 24.1659L16.9404 24.4103L16.0234 24.4997V20.2514C18.8199 19.5606 21.6432 18.9712 24.429 18.2393H24.4737V18.2397Z" fill="#E12C27"/>
<path d="M16.0252 13.0528C16.0252 13.0675 16.0252 13.0827 16.0252 13.0975C16.0225 15.4369 16.027 17.7781 16.0252 20.1176L15.9805 20.207L11.5092 16.5633C10.7997 14.7926 10.1296 13.0031 9.45312 11.2195L16.0252 13.0528Z" fill="#EA544B"/>
<path d="M21.9713 12.4268C22.0017 12.5184 22.1529 12.7152 22.2034 12.843C22.9241 14.6522 23.7293 16.4242 24.4303 18.2396C21.6445 18.9716 18.8212 19.5609 16.0252 20.2517L15.9805 20.207L16.0252 20.1176L21.9713 12.4268Z" fill="#E03E36"/>
<path d="M15.3099 9.29686C15.4172 9.36438 15.5191 9.45828 15.6376 9.52803C15.7561 9.59779 15.9255 9.64161 16.0252 9.69929C15.9876 10.8019 16.0265 11.9453 16.0252 13.0528L9.45312 11.2196V11.1301L10.8838 6.61401C11.064 6.65783 11.2169 6.77007 11.372 6.86352C12.6904 7.65988 14.0062 8.4768 15.3099 9.29686Z" fill="#F08C83"/>
<path d="M5.875 5.2278L11.0164 4.60181C10.9266 5.26179 10.9865 5.95843 10.8823 6.61349L9.45164 11.1296C9.34255 11.1202 9.27325 11.025 9.2053 10.9512C8.25212 9.9125 7.28375 8.73652 6.39004 7.64103C6.26977 7.49392 6.15219 7.39912 6.05383 7.23949L10.6802 6.61171L10.7482 6.52407C9.11409 6.144 7.49343 5.6745 5.875 5.22691V5.2278Z" fill="#E03E36"/>
<path d="M5.87588 5.22797C7.49431 5.67511 9.11542 6.14506 10.7491 6.52513L10.6811 6.61277L6.05472 7.24055C5.89913 6.98702 5.80882 6.45135 5.75294 6.13388C5.70063 5.83832 5.6586 5.52934 5.65234 5.22842C5.71181 5.21366 5.80837 5.2387 5.87588 5.22842V5.22797Z" fill="#E12C27"/>
<path d="M5.20738 5.98804C4.63914 7.36031 3.93723 8.81397 3.45259 10.2037C3.4356 10.252 3.37614 10.2752 3.37435 10.2806C3.29254 10.0937 2.90626 9.9515 2.85485 9.79008C2.83339 9.72167 2.9228 9.43147 2.95857 9.35233C3.38151 8.41512 4.43304 7.37954 4.8828 6.40164L5.20693 5.98804H5.20738Z" fill="#E03E36"/>
<path d="M5.20312 5.85404C5.20983 5.83392 5.24113 5.82185 5.24783 5.80933L5.20312 5.85404Z" fill="#E03E36"/>
<path d="M21.2552 7.01639C21.286 7.18586 21.278 7.43089 21.3061 7.61377C21.5377 9.12198 21.6598 10.8292 21.9705 12.2927C21.979 12.332 21.9597 12.3942 21.9705 12.4268L16.0243 20.1176C16.0261 17.7782 16.0216 15.437 16.0243 13.0975C16.0744 13.0506 16.0972 12.9544 16.0976 12.8891C16.103 11.8652 16.0324 10.8332 16.0717 9.807C16.0654 9.75245 16.0815 9.73232 16.0243 9.69924C16.0274 9.61025 16.0216 9.51993 16.0243 9.43095C16.2005 9.44884 16.3149 9.59639 16.5036 9.48506C18.0746 8.63683 19.6399 7.76893 21.2095 6.92651C21.193 6.97033 21.2534 7.007 21.2552 7.01639Z" fill="#E12C27"/>
<path d="M28.5398 13.3659C28.5617 13.4723 28.5255 13.5116 28.4745 13.5912C28.3427 13.7969 28.0404 14.1215 27.8683 14.3263C26.8074 15.5882 25.6843 16.7959 24.6301 18.064C24.5698 18.1369 24.445 18.1306 24.4718 18.2397H24.4271C23.7261 16.4243 22.9214 14.6518 22.2002 12.8432C22.1493 12.7153 21.9986 12.5185 21.9682 12.4269C21.9575 12.3942 21.9767 12.3321 21.9682 12.2927C23.3868 12.5583 24.8179 12.7761 26.2441 13.0019C26.992 13.1204 27.8147 13.1691 28.5403 13.3659H28.5398Z" fill="#EA544B"/>
<path d="M26.1731 5.1832C26.2218 5.19527 26.2983 5.16666 26.3658 5.19125C26.5084 5.24267 26.6783 5.71217 26.7708 5.85928C27.2635 6.64401 27.8394 7.3961 28.3374 8.18262C28.7022 8.75899 29.0639 9.33804 29.4184 9.92021C29.3988 11.0524 28.945 12.1206 28.7657 13.2313L28.6651 13.1741L26.7977 8.24656L21.4336 6.9266C21.4779 6.92347 21.5235 6.92929 21.5673 6.92616L21.4783 6.83762L26.1722 5.18275L26.1731 5.1832Z" fill="#EA544B"/>
<path d="M16.0242 13.0975C16.0242 13.0827 16.0242 13.0675 16.0242 13.0528C16.0256 11.9452 15.9867 10.8019 16.0242 9.69922C16.0814 9.73231 16.0649 9.75243 16.0716 9.80698C16.0323 10.8332 16.1029 11.8652 16.0975 12.8891C16.0975 12.9544 16.0743 13.0501 16.0242 13.0975Z" fill="#CC2327"/>
</g>
</svg>
