<svg width="32" height="32" viewBox="0 0 32 32" fill="none" xmlns="http://www.w3.org/2000/svg">
<g clip-path="url(#clip0_135_6424)">
<path d="M26.8348 25.0036C25.9381 25.8454 25.0346 26.6698 24.1738 27.544C24.2376 27.1542 23.6235 27.1078 23.5449 27.014C23.4584 26.9111 23.9703 26.0145 24.0024 25.81C24.0378 25.5857 23.942 25.6383 23.9238 25.5835C23.9082 25.5366 23.8423 25.3176 23.8372 25.2852C23.8191 25.1709 23.8507 25.0583 23.879 24.9497C24.0649 24.7916 24.225 24.5976 24.4074 24.4351C24.4809 24.3698 24.7318 24.2555 24.7166 24.1582C24.671 23.8635 24.3985 24.0847 24.26 24.019C24.1054 23.9454 24.0611 23.7036 24.0467 23.6891C24.0345 23.6769 23.9263 23.7338 23.8664 23.7255C23.7498 23.7088 23.4681 23.4789 23.327 23.5783C23.2924 23.6028 23.2928 23.683 23.2856 23.6887C23.2218 23.7378 23.1441 23.5433 23.0157 23.5569C22.8873 23.5704 22.584 23.761 22.459 23.7763C22.3707 23.7872 22.2001 23.7242 22.1896 23.7329C22.1803 23.7399 22.1515 24.0036 22.0624 23.9086C21.9733 23.8135 22.0797 23.63 22.0916 23.5674C22.1984 23.0054 22.3581 22.3374 22.5266 21.8061C22.7838 20.9941 23.1568 20.1189 23.4558 19.3095C23.5842 18.9617 23.705 18.6034 23.8359 18.2583C24.1612 17.402 24.4577 16.4598 24.8074 15.6303C25.1246 14.8778 25.7206 13.8931 26.1167 13.1336C26.4986 12.4017 26.8774 11.6645 27.2774 10.9427C27.9072 10.6374 28.5779 10.411 29.2334 10.1679C29.317 10.1368 29.7305 10.043 29.7479 10.022C29.8218 9.93091 29.6317 9.73031 29.5608 9.67205C27.9942 8.93576 26.3773 8.31073 24.8028 7.59678C24.7027 7.55122 24.6798 7.43384 24.4712 7.46012L20.9647 4.81149L22.3581 9.62956H22.2736C22.0443 9.5551 21.7866 9.45217 21.5556 9.36676C21.4918 9.34311 21.42 9.30719 21.3444 9.27916C20.2982 8.89065 19.2621 8.45264 18.2189 8.05274C17.6364 7.82936 17.0552 7.59678 16.4652 7.39354L14.6709 8.09654C13.5567 8.53323 12.4417 9.02599 11.3342 9.45436C11.2227 9.49729 11.1066 9.54459 10.9963 9.58576C10.8561 9.63789 10.7146 9.67161 10.574 9.71717L11.9251 4.89909C11.8613 4.82639 10.8544 5.70459 10.7391 5.79307C10.1233 6.26611 9.16535 7.10051 8.53391 7.44829C7.85727 7.82104 7.01338 8.07158 6.32534 8.44695H5.97054C6.11668 7.9025 5.99927 8.23189 5.82271 8.22838C5.76654 8.22707 5.72726 8.15874 5.68544 8.14954C5.61787 8.13421 5.55493 8.18808 5.48946 8.1802C5.37669 8.16662 5.19972 8.08691 5.10553 8.09698C4.99994 8.10793 4.95221 8.24152 4.87027 8.29321C4.82297 8.32299 4.7575 8.3081 4.74609 8.31598C6.31478 6.69623 7.94386 5.1343 9.54126 3.54303C9.93829 3.14751 10.4603 2.47648 10.8696 2.15893C10.9241 2.11688 10.9414 2.11732 10.9976 2.09629C11.3934 2.96486 11.6877 3.89956 11.9893 4.81281C12.0472 4.87019 12.1439 4.8531 12.2098 4.89077C13.6328 5.7024 15.0346 6.5552 16.4664 7.35062C17.976 6.53899 19.4234 5.60779 20.9115 4.7563C21.2485 3.86014 21.6003 2.96267 21.8943 2.05249C22.032 2.1033 22.4654 2.54437 22.6128 2.68716C24.5717 4.57804 26.4867 6.52804 28.4187 8.4487C28.9183 8.9454 29.4873 9.40706 29.9181 9.95982L30.0026 21.8714L29.943 21.9848C28.8913 22.9025 27.9781 23.9839 26.9636 24.9414C26.9138 24.9887 26.8458 24.9944 26.8356 25.004L26.8348 25.0036Z" fill="#44539B"/>
<path d="M3.09558 12.3891C3.27213 12.4391 3.20666 12.2779 3.26157 12.2336C3.43981 12.0913 3.37604 12.3729 3.39082 12.3896C3.42376 12.4264 3.83642 12.3177 3.89471 12.4583L4.37452 13.9756C4.61823 14.4473 4.72677 15.04 4.96668 15.5091C4.99751 15.5691 5.07819 15.5927 5.08199 15.6168C5.09466 15.7027 5.03341 15.9366 5.03891 16.0899C5.04946 16.3969 5.09677 16.8205 5.12338 17.1411C5.21968 18.3022 5.39116 19.4599 5.46085 20.6241L5.58756 20.5934L8.12136 15.8494C8.41449 16.5152 8.66368 17.2646 8.92386 17.9518C9.13294 18.5037 9.35553 19.0775 9.55742 19.6162C9.8421 20.3775 10.0499 21.183 10.4047 21.9132C11.3508 22.2855 12.2931 22.6678 13.2337 23.055C13.2954 23.0804 13.3723 23.0647 13.401 23.0765C13.4086 23.0796 13.4508 23.1553 13.526 23.1864C14.4839 23.5802 15.4524 23.9468 16.3998 24.3686C16.4809 24.4229 16.3762 24.4829 16.3297 24.5149C15.9487 24.7755 15.2396 25.2293 14.8392 25.4216C14.7467 25.4658 14.6461 25.528 14.5397 25.5109C14.1934 25.3673 13.8449 25.2205 13.4855 25.1132C13.2582 25.0453 12.892 25.0221 12.7151 24.9485C12.6133 24.9061 12.5647 24.7711 12.4836 24.7492C12.4701 24.7457 12.234 24.7479 12.2086 24.7519C12.1449 24.7615 12.0697 24.8894 11.9624 24.8093C11.8995 24.7624 11.7677 24.3669 11.747 24.3528C11.6764 24.3064 11.3812 24.3717 11.4154 24.0839C11.7085 24.0997 11.8488 24.338 12.1326 24.1706C12.1267 23.8062 11.7111 23.9849 11.5007 23.7979C11.3766 23.6875 11.4036 23.3183 11.1071 23.3901C10.8566 23.4506 11.0247 23.7445 10.9728 23.8636C10.9052 24.0173 10.5926 24.1649 10.4444 24.2153L10.4009 24.0406C10.2387 24.0156 10.1618 24.2236 10.0191 24.2784C9.90883 24.3209 9.78254 24.2994 9.67399 24.3493C9.47759 24.5596 8.95681 24.9442 8.92302 24.4339C8.91119 24.4203 8.71859 24.4694 8.71226 24.4786C8.65904 24.5565 9.19883 25.143 9.323 25.1816C9.3285 25.3138 9.54855 25.3922 9.51434 25.5066C9.48013 25.6209 8.79335 25.5368 8.94583 25.8776C8.98131 25.9573 9.2512 26.3103 9.13589 26.3843C8.99989 26.4719 8.84319 26.3405 8.72788 26.3313C8.52472 26.3151 8.00817 26.4053 7.86752 26.5801C7.83542 26.5503 7.67534 26.5205 7.63479 26.4496L7.65633 26.5801C6.11722 25.0445 4.55909 23.529 3.01871 21.9942C3.00562 19.4498 3.00646 16.9041 3.01026 14.3597L3.09431 15.1039C3.09643 14.1994 3.09305 13.2927 3.09474 12.3887L3.09558 12.3891Z" fill="#44539B"/>
<path d="M4.74169 8.31569C4.75309 8.30825 4.81856 8.32314 4.86587 8.29292C4.94823 8.24079 4.99596 8.10764 5.10113 8.09669C5.19532 8.08705 5.37229 8.16677 5.48506 8.17991C5.55095 8.18779 5.61388 8.13392 5.68104 8.14925C5.72328 8.15889 5.76256 8.22721 5.81831 8.22809C5.99528 8.23159 6.11228 7.90221 5.96614 8.44666H6.32093C7.00897 8.07128 7.85245 7.82074 8.5295 7.448C9.16095 7.10022 10.1193 6.26582 10.7347 5.79277C10.85 5.7043 11.8569 4.82609 11.9207 4.8988L10.5696 9.71687C9.72566 9.99019 8.84966 10.1899 7.99309 10.4177C7.30252 10.6012 6.43244 10.7563 5.77776 10.9893C5.7351 11.0042 5.69582 11.0033 5.67006 11.0541C5.94967 11.6467 6.24955 12.2315 6.54986 12.8127C6.58829 12.8872 6.65629 12.9485 6.68375 13.0024C7.15596 13.9169 7.70842 14.9147 8.11981 15.8494L5.58601 20.5934L5.4593 20.6241C5.38961 19.4599 5.21812 18.3022 5.12182 17.1411C5.09521 16.8205 5.04791 16.3969 5.03735 16.0899C5.03228 15.9361 5.0931 15.7022 5.08043 15.6168C5.07663 15.5927 4.99596 15.5691 4.96512 15.5091C4.72522 15.0395 4.61667 14.4469 4.37296 13.9756L3.89315 12.4584C3.83486 12.3182 3.42221 12.4264 3.38926 12.3896C3.37448 12.3734 3.43826 12.0913 3.26002 12.2337C3.20469 12.2779 3.27058 12.4391 3.09403 12.3892C3.09529 11.6844 3.02391 10.7615 3.09191 10.0874C3.10163 9.99063 3.16034 9.93719 3.1785 9.84871C3.19328 9.83601 3.20638 9.81893 3.22074 9.80491L3.26297 9.76111C3.27733 9.74666 3.29085 9.73177 3.30521 9.71731C3.39137 9.70987 3.43065 9.61745 3.47416 9.58591C3.87499 9.29376 4.24879 8.90919 4.60358 8.54521C4.66102 8.48608 4.72268 8.47951 4.69903 8.35949C4.71424 8.34854 4.72522 8.3262 4.74127 8.31569H4.74169Z" fill="#2B4190"/>
<path d="M21.8928 2.05216C21.5988 2.96234 21.247 3.85981 20.91 4.75597C19.422 5.60746 17.9741 6.53866 16.4649 7.35029C15.0331 6.55487 13.6313 5.70207 12.2083 4.89044C12.142 4.85277 12.0457 4.87029 11.9878 4.81248C11.6858 3.89923 11.3919 2.96497 10.9961 2.09596C11.0227 2.08633 11.0358 2.05742 11.0979 2.04997C11.7044 1.97726 12.5344 2.0653 13.1734 2.05391C16.0265 2.00354 18.8906 1.99916 21.7501 2.00529C21.8151 1.98339 21.8569 2.03902 21.8928 2.05216Z" fill="#8D92BD"/>
<path d="M26.8314 25.0037C25.9896 25.888 25.1347 26.7644 24.2537 27.6085C23.8017 28.1328 23.308 28.633 22.8189 29.1209C22.5722 29.3671 22.3243 29.6435 22.0586 29.8655C22.1608 29.7043 22.3192 29.594 22.4387 29.4494C22.976 28.7977 23.5749 28.149 24.1704 27.5441C25.0312 26.6698 25.9347 25.8455 26.8314 25.0037Z" fill="#2A3271"/>
<path d="M3.17925 9.84863C3.16067 9.93755 3.10238 9.99055 3.09267 10.0873C3.02466 10.7614 3.09605 11.6839 3.09478 12.3891C3.09309 13.2936 3.09647 14.2002 3.09436 15.1043L3.0103 14.3601C3.0103 14.3018 3.0103 14.2432 3.0103 14.1849C3.07366 14.1788 3.07366 14.0596 3.0103 14.0535C3.0103 13.9076 3.0103 13.7613 3.0103 13.6155L3.05212 13.5502L3.0103 13.5279C3.01199 12.58 2.9951 11.6283 3.0103 10.6808C3.08084 10.5188 3.08168 10.1951 3.0103 10.0238C3.0386 9.83943 3.12139 9.89857 3.17925 9.84863Z" fill="#2A3271"/>
<path d="M7.86944 26.5805C7.89605 26.605 7.93449 26.7198 7.99404 26.7798C8.94015 27.7289 9.85754 28.6956 10.8159 29.6334C10.8869 29.7026 10.8843 29.6789 10.826 29.7779C10.5836 29.5537 10.3369 29.3158 10.108 29.0771C9.30043 28.2357 8.48906 27.4092 7.65826 26.5805L7.63672 26.45C7.67727 26.5209 7.83734 26.5507 7.86944 26.5805Z" fill="#2A3271"/>
<path d="M3.47583 9.58579H3.43359C3.82091 9.19422 4.26608 8.67299 4.7007 8.35938C4.72436 8.47939 4.66269 8.48596 4.60525 8.54509C4.25046 8.90907 3.87624 9.29364 3.47583 9.58579Z" fill="#44539B"/>
<path d="M3.01157 10.6809C3.01453 10.4838 2.98412 10.2031 3.01157 10.0239C3.08295 10.1952 3.08211 10.5189 3.01157 10.6809Z" fill="#44539B"/>
<path d="M3.47754 9.58594C3.43404 9.61747 3.39476 9.70989 3.30859 9.71734C3.35125 9.67354 3.3918 9.62974 3.4353 9.58594H3.47754Z" fill="#2A3271"/>
<path d="M3.01172 14.1849C3.01172 14.1411 3.01172 14.0973 3.01172 14.0535C3.07507 14.0596 3.07507 14.1787 3.01172 14.1849Z" fill="#44539B"/>
<path d="M3.01172 13.6154C3.01172 13.5861 3.01172 13.5572 3.01172 13.5278L3.05353 13.5502L3.01172 13.6154Z" fill="#44539B"/>
<path d="M3.22266 9.80479C3.23702 9.79077 3.25053 9.77544 3.26489 9.76099L3.22266 9.80479Z" fill="#2A3271"/>
<path d="M16.6133 16.2436C16.623 16.3031 16.6429 16.3044 16.6555 16.3312C16.6682 16.3579 16.6627 16.3986 16.6978 16.4188C16.6978 16.4919 16.7476 16.5962 16.7751 16.6676L19.5682 23.0581L22.5269 21.8062C22.3588 22.3375 22.1987 23.0055 22.0919 23.5675C22.08 23.6305 21.9706 23.811 22.0627 23.9087C22.1548 24.0064 22.1806 23.7405 22.1899 23.733C22.2008 23.7247 22.3715 23.7873 22.4593 23.7764C22.5844 23.7611 22.8906 23.5701 23.016 23.557C23.1415 23.5438 23.2221 23.7379 23.2859 23.6888C23.2935 23.6831 23.2927 23.6029 23.3273 23.5784C23.4684 23.479 23.7501 23.7089 23.8667 23.7256C23.9266 23.7339 24.0343 23.677 24.047 23.6892C24.0614 23.7037 24.1057 23.9455 24.2603 24.0191C24.3989 24.0848 24.6713 23.8636 24.7169 24.1583C24.7321 24.2556 24.4812 24.3699 24.4077 24.4352C24.2253 24.5977 24.0652 24.7917 23.8793 24.9498C23.851 25.058 23.8194 25.1706 23.8375 25.2853C23.8426 25.3182 23.9085 25.5367 23.9241 25.5836C23.9423 25.6384 24.0381 25.5854 24.0027 25.8101C23.9706 26.0146 23.4587 26.9112 23.5452 27.0141C23.6242 27.1079 24.2379 27.1543 24.1742 27.5441C23.5786 28.149 22.9797 28.7977 22.4424 29.4495C22.3229 29.5944 22.1645 29.7044 22.0623 29.8656C22.0475 29.8783 22.0357 29.898 22.0201 29.9094C21.9778 29.9076 21.9352 29.912 21.8934 29.9094C21.6927 28.9887 21.3354 28.1179 21.1001 27.206C21.0609 27.1087 20.7247 26.8862 20.6465 26.8876C20.4928 26.8902 20.505 27.1639 20.3893 27.1836C20.3471 27.1911 20.285 27.1486 20.2301 27.1547C19.9821 27.1806 19.2603 27.3974 19.0892 27.3711C19.0609 27.3667 19.0626 27.2796 19.0415 27.2783C19.0107 27.2765 18.6077 27.4351 18.451 27.4557C18.1258 27.4986 17.8597 27.5827 17.5615 27.6282C17.3938 27.6541 17.1687 27.5831 17.0644 27.6006C17.0179 27.6085 16.9736 27.6803 16.8883 27.6803C16.7975 27.6803 16.7392 27.5897 16.6838 27.5945C16.547 27.6063 16.324 27.9694 16.4448 27.4565L15.9569 27.6291C15.8163 27.6182 15.6292 27.6554 15.4974 27.633C15.4433 27.6238 15.5342 27.358 15.3263 27.3238C15.2503 27.3111 15.233 27.3733 15.2626 27.4123C15.2723 27.4254 15.3859 27.3742 15.3466 27.4999C15.1173 27.5314 14.9779 27.3269 14.7747 27.4981C13.9638 27.4924 13.1769 27.2949 12.3905 27.1495C12.3626 27.1223 12.4492 26.8381 12.3279 26.8871C12.3051 26.8963 11.9377 27.1596 11.9258 27.1819C11.7839 27.4521 11.7713 27.9637 11.5651 28.2204C11.4815 28.7872 11.2137 29.3097 11.0811 29.8651C11.0262 29.8581 10.9675 29.8699 10.9122 29.8651C10.8729 29.8318 10.8543 29.8021 10.8277 29.7775C10.886 29.6785 10.8885 29.7022 10.8175 29.633C9.85877 28.6952 8.9418 27.7285 7.99569 26.7794C7.93614 26.7194 7.89728 26.6042 7.87109 26.5801C8.01174 26.4053 8.52872 26.3151 8.73146 26.3313C8.84677 26.3405 9.00347 26.4719 9.13947 26.3843C9.25436 26.3103 8.98488 25.9572 8.9494 25.8775C8.79735 25.5363 9.48455 25.6191 9.51791 25.5065C9.55128 25.394 9.33207 25.3138 9.32658 25.1815C9.20283 25.1425 8.66261 24.5565 8.71583 24.4785C8.72217 24.4693 8.91477 24.4207 8.9266 24.4338C8.96039 24.9441 9.48075 24.56 9.67757 24.3493C9.78612 24.2994 9.91283 24.3208 10.0226 24.2784C10.165 24.2232 10.2419 24.0151 10.4045 24.0405L10.448 24.2153C10.5962 24.1645 10.9088 24.0173 10.9764 23.8636C11.0283 23.7449 10.8602 23.4505 11.1107 23.3901C11.4072 23.3187 11.3801 23.6875 11.5043 23.7979C11.7151 23.9849 12.1303 23.8062 12.1362 24.1706C11.8519 24.3384 11.7121 24.1001 11.419 24.0839C11.3844 24.3716 11.6796 24.3059 11.7506 24.3528C11.7713 24.3664 11.903 24.7619 11.966 24.8092C12.0728 24.8894 12.1484 24.7615 12.2122 24.7518C12.2376 24.7479 12.4741 24.7457 12.4872 24.7492C12.5683 24.7711 12.6168 24.906 12.7186 24.9485C12.8956 25.0221 13.2618 25.0453 13.489 25.1132C13.8485 25.2205 14.1965 25.3672 14.5433 25.5109C14.6497 25.5275 14.7502 25.4658 14.8427 25.4215C15.2431 25.2293 15.9523 24.7755 16.3333 24.5149C16.3797 24.4829 16.4845 24.4229 16.4034 24.3686C15.4564 23.9468 14.4879 23.5802 13.5296 23.1864C13.454 23.1553 13.4122 23.0795 13.4046 23.0765L16.4034 16.0684C16.4482 16.1082 16.5614 16.152 16.6146 16.2436H16.6133ZM19.6083 23.1246C19.5112 23.0357 17.6954 23.9691 17.5915 23.9017C17.5729 23.8894 17.5712 23.797 17.5172 23.7803C17.4526 23.7602 17.2959 23.8522 17.2046 23.8211C17.1463 23.9542 17.5155 23.9008 17.4158 24.0392C17.3871 24.0791 16.6336 24.3252 16.5293 24.4119L19.0107 25.8723C19.1902 25.9327 19.7726 25.4294 19.4212 25.3554C19.3186 25.3339 19.1986 25.3484 19.0833 25.3112C19.0233 25.2919 19.0086 25.3375 19.0212 25.2227C19.1826 25.2805 19.24 25.1495 19.3194 25.1158C19.537 25.0238 20.0358 24.917 20.0755 24.6279C20.1042 24.4185 19.9412 24.1649 19.8786 23.9608C19.8292 23.7996 19.7929 23.528 19.7283 23.3726C19.6941 23.2898 19.6012 23.239 19.6083 23.1246ZM12.643 26.9309C12.5716 26.8652 12.453 26.987 12.5167 27.0619C12.5564 27.1087 12.6882 26.973 12.643 26.9309Z" fill="#2B4190"/>
<path d="M18.216 8.05273C19.2593 8.45263 20.2954 8.89064 21.3416 9.27915L21.5249 9.57043C21.8235 9.82097 21.8847 10.0036 22.2708 10.0676C22.3291 10.0772 22.4026 10.1363 22.482 10.1114C22.5052 10.3724 22.6104 10.3628 22.7012 10.5629C22.7852 10.7478 22.846 11.0097 22.9259 11.2059C23.0919 11.6129 23.2528 12.0255 23.4492 12.4183L23.4357 12.4779L16.5012 15.9377L16.391 15.9272L9.51562 12.3456C9.77243 11.7005 10.0465 10.8879 10.3604 10.287C10.4575 10.3093 10.4482 10.2047 10.5158 10.1652C10.8271 9.98128 10.9796 10.0627 11.2216 9.71278C11.2685 9.64489 11.3048 9.53539 11.3322 9.45479C12.4397 9.02642 13.5547 8.53367 14.669 8.09697L18.2169 8.05317L18.216 8.05273Z" fill="#2B4190"/>
<path d="M22.439 9.67334C23.1444 9.88796 23.8721 10.0496 24.5931 10.1994C24.5162 10.3982 24.4575 10.6597 24.6531 10.8152C24.8288 10.9549 24.7515 10.6965 24.9623 10.8016C24.9876 10.8143 25.2972 11.0754 25.3124 11.0955C25.366 11.1665 25.3779 11.3264 25.437 11.3632C25.5206 11.4153 26.0157 11.2283 25.5278 11.6742C25.5789 11.781 25.516 11.9295 25.5308 12.0066C25.5582 12.149 25.7673 12.2427 25.7757 12.5427C25.7829 12.8095 25.7183 12.6658 25.8408 12.9579C25.8632 13.0114 25.8543 13.1279 25.8602 13.1345C25.8902 13.1669 26.071 13.0359 26.1132 13.1345C25.717 13.894 25.1211 14.8786 24.8039 15.6311C24.7131 15.5628 24.6721 15.416 24.6277 15.31C24.3832 14.7196 24.1585 14.017 23.8835 13.4538C23.8531 13.3916 23.8261 13.3381 23.748 13.3539C23.8012 13.9299 23.7251 14.5151 23.7213 15.091C23.7154 15.9671 23.7446 16.8615 23.7741 17.748C23.7792 17.9009 23.6985 18.1032 23.832 18.2591C23.7011 18.6043 23.5803 18.9626 23.4519 19.3104C23.3446 19.1597 23.3125 19.5013 23.2779 19.5237C23.179 19.5881 22.4661 19.136 22.3212 19.0589C20.6959 18.1921 19.0263 17.2876 17.4006 16.4511C17.1573 16.3258 16.9005 16.2246 16.672 16.0695C16.6057 16.0209 16.6078 16.2351 16.6095 16.2443C16.5563 16.1528 16.4431 16.109 16.3983 16.0691C16.389 16.0608 16.4321 15.9587 16.3379 15.9828L9.5559 19.617C9.354 19.0782 9.13141 18.5044 8.92234 17.9525C8.99246 17.907 8.96458 17.7861 8.96542 17.7121C8.97936 16.557 8.8687 15.3709 8.88433 14.2466C8.89235 13.6636 9.29107 12.905 9.51366 12.3461L16.389 15.9276L16.4992 15.9381L23.4337 12.4783L23.4472 12.4188C23.2512 12.0259 23.0899 11.6133 22.9239 11.2064C22.8437 11.0101 22.7833 10.7486 22.6992 10.5634C22.6084 10.3632 22.5028 10.3728 22.48 10.1118C22.48 10.1087 22.5117 10.0868 22.5083 10.0557C22.4952 9.92826 22.4656 9.79817 22.4378 9.67378L22.439 9.67334Z" fill="#2A3271"/>
<path d="M22.3543 9.62959L20.9609 4.81152L24.4675 7.46015C24.6761 7.43343 24.6989 7.55125 24.799 7.59681C26.3736 8.31119 27.9904 8.93579 29.557 9.67208C29.628 9.73034 29.8185 9.93094 29.7441 10.022C29.7268 10.0431 29.3137 10.1368 29.2297 10.1679C28.5742 10.411 27.9034 10.6374 27.2737 10.9427C26.8737 11.6646 26.4953 12.4017 26.113 13.1336C26.0708 13.0355 25.8896 13.1661 25.86 13.1336C25.8541 13.1271 25.863 13.0106 25.8406 12.9571C25.7177 12.665 25.7827 12.8086 25.7755 12.5419C25.7671 12.2419 25.558 12.1486 25.5306 12.0058C25.5158 11.9287 25.5791 11.7806 25.5276 11.6733C26.0154 11.2274 25.5204 11.4149 25.4368 11.3623C25.3777 11.3256 25.3658 11.1652 25.3122 11.0947C25.297 11.0746 24.9874 10.8135 24.962 10.8008C24.7513 10.6957 24.8286 10.9541 24.6529 10.8144C24.4569 10.6585 24.5156 10.3974 24.5929 10.1986C23.8719 10.0488 23.1437 9.88714 22.4388 9.67252C22.4152 9.66551 22.3776 9.67996 22.3543 9.67252V9.62872V9.62959Z" fill="#2B4190"/>
<path d="M16.6099 16.2435C16.6082 16.2343 16.6061 16.0201 16.6724 16.0687C16.9009 16.2237 17.1578 16.3249 17.401 16.4502C19.0267 17.2868 20.6964 18.1913 22.3216 19.0581C22.4665 19.1352 23.1795 19.5872 23.2783 19.5228C23.3129 19.5 23.345 19.1584 23.4523 19.3095C23.1533 20.1189 22.7803 20.9941 22.5231 21.8061L19.5644 23.058L16.7713 16.6674C16.7438 16.5965 16.694 16.4918 16.694 16.4187C16.694 16.3972 16.8177 16.3135 16.6518 16.3311C16.6391 16.3043 16.6192 16.303 16.6095 16.2435H16.6099Z" fill="#21245B"/>
<path d="M10.9957 9.58578C11.1308 9.57439 11.0789 9.61162 11.0172 9.67382C10.7406 9.95327 10.5606 9.90684 10.3621 10.2866C10.0483 10.8875 9.77418 11.7 9.51738 12.3452C9.29479 12.9046 8.89607 13.6627 8.88805 14.2457C8.87242 15.3701 8.98266 16.5562 8.96914 17.7112C8.9683 17.7853 8.99617 17.9057 8.92606 17.9517C8.66588 17.2645 8.41668 16.515 8.12356 15.8493C7.71217 14.9146 7.15971 13.9168 6.6875 13.0022C6.73058 12.8844 6.86954 12.937 6.9443 12.8524C7.04778 12.7346 7.07904 12.3851 7.11325 12.2392C7.1445 12.1069 7.20321 11.9966 7.23109 11.8358C7.31092 11.3777 7.14915 11.4556 7.48367 11.0465C7.52802 10.9922 7.57068 10.8613 7.61629 10.8337C7.69696 10.7846 7.8355 10.8337 7.86549 10.8069C7.8807 10.7938 7.98249 10.4758 7.99642 10.4176C8.85299 10.1898 9.72899 9.99006 10.5729 9.71674C10.7135 9.67119 10.855 9.63746 10.9953 9.58534L10.9957 9.58578Z" fill="#21245B"/>
<path d="M24.8055 15.6302C24.4558 16.4598 24.1593 17.4019 23.8341 18.2582C23.7006 18.1019 23.7813 17.9 23.7762 17.7471C23.7467 16.8606 23.7175 15.9662 23.7234 15.0901C23.7272 14.5142 23.8028 13.9286 23.75 13.353C23.8286 13.3368 23.8556 13.3907 23.8856 13.4529C24.1606 14.0162 24.3853 14.7187 24.6298 15.3091C24.6738 15.4156 24.7147 15.5619 24.806 15.6302H24.8055Z" fill="#21245B"/>
<path d="M18.2159 8.05275L14.668 8.09656L16.4622 7.39355C17.0522 7.59635 17.6334 7.82937 18.2159 8.05275Z" fill="#2A3271"/>
<path d="M22.2727 9.62975C22.2896 9.635 22.3166 9.66085 22.3572 9.67355C22.3804 9.68099 22.418 9.66654 22.4417 9.67355C22.4695 9.79838 22.4991 9.92847 22.5122 10.0555C22.5156 10.0861 22.4835 10.1081 22.4839 10.1116C22.4045 10.1365 22.331 10.0774 22.2727 10.0678C22.2943 9.96876 22.2191 9.97577 22.168 9.93767L21.7 9.58814L21.5547 9.36694C21.7857 9.45235 22.0434 9.55529 22.2727 9.62975Z" fill="#21245B"/>
<path d="M11.3312 9.45435C11.3042 9.53494 11.2675 9.64444 11.2206 9.71233C10.9786 10.0623 10.8261 9.98083 10.5148 10.1648C10.4477 10.2047 10.4565 10.3089 10.3594 10.2866C10.5579 9.90681 10.7378 9.95323 11.0145 9.67379C11.0761 9.61159 11.1281 9.57436 10.9929 9.58575C11.1032 9.54458 11.2193 9.49727 11.3308 9.45435H11.3312Z" fill="#2A3271"/>
<path d="M21.5549 9.3669L21.7002 9.58809L22.1682 9.93762C22.2193 9.97573 22.2945 9.96872 22.273 10.0677C21.8869 10.0038 21.8257 9.82155 21.5271 9.57057L21.3438 9.2793C21.4194 9.30733 21.4912 9.34325 21.5549 9.3669Z" fill="#2A3271"/>
<path d="M22.354 9.62964V9.67344C22.3135 9.66074 22.2864 9.63489 22.2695 9.62964H22.354Z" fill="#2A3271"/>
<path d="M9.55859 19.6162L16.3406 15.9821C16.4348 15.9575 16.3913 16.0596 16.401 16.0684L13.4022 23.0765C13.3734 23.0646 13.2966 23.0804 13.2349 23.055C12.2943 22.6678 11.3524 22.285 10.4059 21.9131C10.0511 21.183 9.84327 20.3775 9.55859 19.6162Z" fill="#21245B"/>
<path d="M7.99449 10.418C7.98055 10.4767 7.87876 10.7942 7.86355 10.8074C7.83356 10.8336 7.69503 10.785 7.61435 10.8341C7.56874 10.8617 7.52608 10.9926 7.48173 11.0469C7.14679 11.456 7.30856 11.3776 7.22915 11.8362C7.20128 11.997 7.14257 12.1074 7.11131 12.2396C7.07668 12.3851 7.04584 12.735 6.94236 12.8528C6.86803 12.9374 6.72864 12.8853 6.68556 13.0026C6.65769 12.9492 6.59011 12.8874 6.55167 12.813C6.25137 12.2318 5.95191 11.647 5.67188 11.0544C5.69764 11.0036 5.73692 11.0045 5.77958 10.9896C6.43425 10.757 7.30433 10.6019 7.99491 10.418H7.99449Z" fill="#2A3271"/>
<path d="M21.8918 29.9094C21.9336 29.9121 21.9762 29.9077 22.0185 29.9094C22.0092 29.916 22.0045 29.962 21.9767 29.9747L11.0563 29.9997C10.9938 29.9918 10.9668 29.9129 10.9102 29.8652C10.9655 29.87 11.0242 29.8582 11.0791 29.8652C11.4259 29.9094 11.8808 29.6142 12.2026 29.6033C12.3175 29.5993 12.6208 29.7049 12.7842 29.6782C12.8446 29.6685 12.8945 29.5673 12.9988 29.5638C13.6978 29.5398 14.4124 29.7439 15.1178 29.7732C16.1319 29.8153 17.3031 29.8047 18.3232 29.6988C18.5149 29.679 18.7037 29.6111 18.8364 29.605C18.9576 29.5993 19.0674 29.6528 19.2085 29.6466C19.3495 29.6405 19.5468 29.5284 19.6245 29.5262C19.7297 29.5231 19.992 29.6541 20.152 29.6769C20.492 29.7255 20.9174 29.6239 21.2781 29.6917C21.4593 29.7259 21.5788 29.8906 21.8922 29.909L21.8918 29.9094Z" fill="#21245B"/>
<path d="M11.079 29.8655C11.2112 29.3101 11.4794 28.7876 11.563 28.2208C11.7691 27.9641 11.7818 27.4525 11.9237 27.1823C11.9355 27.16 12.303 26.8967 12.3258 26.8875C12.4474 26.8385 12.3609 27.1227 12.3883 27.1499C13.1748 27.2953 13.9616 27.4928 14.7726 27.4985C14.9762 27.3273 15.1151 27.5318 15.3445 27.5003C15.3838 27.3746 15.2706 27.4258 15.2604 27.4127C15.2309 27.3737 15.2482 27.3115 15.3242 27.3242C15.5316 27.3584 15.4412 27.6242 15.4953 27.6334C15.627 27.6558 15.8146 27.619 15.9548 27.6295L16.4426 27.4569C16.3218 27.9698 16.5449 27.6067 16.6817 27.5949C16.737 27.5901 16.7953 27.6812 16.8861 27.6807C16.9715 27.6807 17.0158 27.6089 17.0623 27.601C17.1666 27.5839 17.3917 27.6545 17.5594 27.6286C17.8572 27.5831 18.1233 27.4985 18.4489 27.456C18.606 27.4355 19.0085 27.2769 19.0394 27.2787C19.0609 27.28 19.0588 27.3671 19.0871 27.3715C19.2582 27.3978 19.9796 27.181 20.2279 27.1551C20.2828 27.1494 20.3449 27.1915 20.3872 27.184C20.5029 27.1639 20.4906 26.8901 20.6444 26.888C20.7225 26.8866 21.0587 27.1091 21.098 27.2064C21.3337 28.1179 21.6906 28.9891 21.8912 29.9098C21.5778 29.8914 21.4583 29.7267 21.2771 29.6925C20.9164 29.6246 20.4906 29.7262 20.1511 29.6776C19.991 29.6548 19.7287 29.5239 19.6235 29.5269C19.5458 29.5291 19.3549 29.6413 19.2075 29.6474C19.0601 29.6535 18.9566 29.6001 18.8354 29.6058C18.7027 29.6119 18.5139 29.6794 18.3222 29.6995C17.3022 29.8055 16.1309 29.8165 15.1168 29.774C14.4115 29.7446 13.6972 29.5405 12.9978 29.5646C12.8935 29.5681 12.8436 29.6693 12.7832 29.6789C12.6198 29.7052 12.3165 29.6001 12.2016 29.604C11.8802 29.615 11.4249 29.9102 11.0781 29.866L11.079 29.8655Z" fill="#2A3271"/>
<path d="M19.6064 23.1246C19.5992 23.2389 19.6917 23.2898 19.7264 23.3725C19.791 23.5285 19.8273 23.8 19.8767 23.9608C19.9392 24.1645 20.1019 24.4181 20.0736 24.6279C20.0339 24.9169 19.535 25.0234 19.3175 25.1158C19.2381 25.1495 19.1802 25.2805 19.0193 25.2227C19.0067 25.3374 19.0214 25.2919 19.0814 25.3112C19.1967 25.3484 19.3167 25.3335 19.4193 25.3554C19.7707 25.4294 19.1887 25.9331 19.0088 25.8722L16.5273 24.4119C16.6321 24.3252 17.3856 24.079 17.4139 24.0392C17.5136 23.9003 17.1444 23.9538 17.2027 23.8211C17.2939 23.8522 17.4502 23.7602 17.5153 23.7803C17.5698 23.7974 17.5714 23.8898 17.5896 23.9017C17.6935 23.9695 19.5089 23.0357 19.6064 23.1246Z" fill="#44539B"/>
<path d="M12.6406 26.9309C12.6858 26.973 12.554 27.1087 12.5143 27.0619C12.4505 26.987 12.5692 26.8652 12.6406 26.9309Z" fill="#2A3271"/>
<path d="M16.6523 16.3313C16.8183 16.3137 16.6946 16.3974 16.6946 16.4189C16.6595 16.3987 16.6646 16.3567 16.6523 16.3313Z" fill="#2A3271"/>
</g>
<defs>
<clipPath id="clip0_135_6424">
<rect width="27" height="28" fill="white" transform="translate(3 2)"/>
</clipPath>
</defs>
</svg>
