<svg width="32" height="32" viewBox="0 0 32 32" fill="none" xmlns="http://www.w3.org/2000/svg">
<g clip-path="url(#clip0_117_268)">
<path d="M10.3164 18.242C11.3143 17.1215 13.3373 14.8648 13.4414 14.8018L17.3818 14.0664H19.0362L21.5048 15.0906L22.7128 18.0844L21.7674 23.3628L20.5856 27.1182L15.8586 28.1949L12.576 26.8556L13.0749 24.9648L11.0528 23.7042L10.3164 21.7347V18.242Z" fill="#4CA146"/>
<path d="M19.8162 3.77275V9.57224C19.4935 8.92794 19.2812 8.19228 19.1031 7.46456L18.6245 6.31579C18.5418 6.82821 18.4726 7.3446 18.3764 7.85622C18.3343 8.08026 18.1872 8.26854 18.1538 8.50767C18.0735 9.08127 18.1975 9.7788 18.1474 10.3675L19.8958 9.81137C19.9935 9.94484 20.0389 9.95755 20.1343 10.0497C20.1987 10.3508 20.4539 10.6884 20.6264 10.9482C21.237 11.8698 22.0082 13.1536 22.6808 13.9798C23.3391 14.7886 24.4355 15.3876 25.1439 16.1662C24.3258 16.4887 22.4431 17.2705 21.6457 17.3579C21.6194 17.361 21.5924 17.3563 21.5662 17.3579L18.219 10.5335C17.8795 10.4533 18.0393 10.6265 17.951 10.8426C17.734 11.3733 17.5543 11.521 17.1941 11.8761C16.9779 12.0891 17.0844 12.2464 17.0351 12.4323C16.8483 13.1441 16.1216 14.4414 15.6247 14.9554C15.5221 15.0611 15.3981 15.073 15.445 15.2923C15.2598 15.2843 15.0912 15.2184 14.8885 15.2128C14.6031 14.2786 14.4917 13.3054 14.293 12.352C14.1856 11.8388 13.8024 10.8648 13.7754 10.4461C13.769 10.3452 13.8613 10.1689 13.8581 10.0132C13.8215 8.25424 13.7484 6.46753 13.7754 4.72609H14.3319C14.359 4.8246 14.4671 4.98587 14.5116 5.14238C14.747 5.96543 15.0006 6.78292 15.2033 7.61471C15.2494 7.72117 15.3774 7.64808 15.445 7.66556C15.9054 7.78314 16.1868 7.60995 16.6376 7.58611C16.6646 7.58452 16.7704 7.68939 16.7958 7.66635C16.9103 7.5599 17.4931 5.03831 17.5917 4.64665C18.304 4.53383 18.7246 4.0524 19.4203 3.85219C19.5499 3.81486 19.662 3.73859 19.8178 3.77275H19.8162ZM16.7243 8.46636C16.5724 8.74442 16.3689 9.15594 16.8348 9.18216C17.4581 9.21712 17.2283 8.4759 16.7243 8.46636ZM15.3472 11.9739C15.1723 11.873 14.7008 11.9675 14.5776 12.1621C14.0091 13.0615 15.7972 13.4921 15.604 12.3965C15.5937 12.3401 15.3687 11.9866 15.3472 11.9739Z" fill="#7AC6B1"/>
<path d="M26.8903 15.3717C26.8983 15.3813 27.0843 15.328 27.0557 15.4853L27.0088 26.0968C26.9849 26.1484 26.9031 26.158 26.8903 26.1762C26.8076 25.9848 26.6534 26.1659 26.5636 26.2072C25.9975 26.4678 24.4885 26.923 24.1434 27.2845C23.7896 27.6555 23.012 29.2698 22.7147 29.8291C22.3959 30.4289 22.0953 31.0462 21.802 31.658C21.6501 31.8097 21.7503 31.94 21.4839 31.9757L20.6094 30.3074C20.6372 30.2557 20.6587 30.1985 20.6889 30.1485C20.8073 29.9531 21.2486 29.6472 21.445 29.4343C22.4205 28.3801 23.4358 27.3298 24.3867 26.2565C24.6737 25.9323 25.1905 25.4366 25.3002 25.064C25.5197 24.3164 25.3066 23.468 25.297 22.7236C25.2676 20.5388 25.3257 18.3501 25.3002 16.1662C25.8337 15.9493 26.3568 15.6013 26.8903 15.3717ZM26.2543 21.8862C26.4308 19.8715 26.9205 17.8774 26.8903 15.8492C26.7679 15.869 26.7401 15.997 26.6932 16.0883C26.5278 16.4124 25.5737 18.474 25.5427 18.6735C25.4934 18.9849 25.9331 21.1378 26.0428 21.5843C26.0794 21.7345 26.0428 21.9442 26.2543 21.8862Z" fill="#7AC6B1"/>
<path d="M6.61979 25.1436L11.3679 30.2909L11.5492 30.3075C11.5325 30.6237 11.4267 30.8938 11.3106 31.1806C11.3464 31.2148 11.8505 31.1656 11.8664 31.3387C11.6716 31.3197 11.5086 31.5294 11.3901 31.5779C11.2717 31.6263 11.0507 31.6192 10.894 31.678C10.7374 31.7368 10.615 32.0275 10.4734 31.817C10.4241 31.7439 10.5044 31.585 10.4631 31.4396C10.2166 30.5864 9.63783 29.95 9.08447 29.3534C8.28067 28.4883 6.87103 27.4134 5.8621 26.7333C5.74761 26.6563 5.65618 26.5752 5.50671 26.5728C5.48286 26.545 5.45106 26.522 5.42721 26.4934C5.36122 26.3758 5.34213 26.1367 5.26819 26.3345C5.22844 26.2868 5.16802 26.2582 5.10918 26.1756C5.05909 25.923 5.13621 25.9849 5.26422 25.8952C5.66016 25.6187 6.15945 25.2731 6.61979 25.1428V25.1436Z" fill="#357567"/>
<path d="M14.6493 0.118281C15.7075 0.103186 16.7713 0.118281 17.8295 0.118281H18.6246C18.6142 0.118281 18.5379 0.199314 18.433 0.201697C16.9502 0.225531 15.4539 0.138937 13.9727 0.197726C13.8757 0.201698 13.6769 0.138141 13.696 0.276376L18.6437 1.09307L19.659 1.78663C19.488 2.0909 19.1064 2.23787 18.8512 2.45079C18.7375 2.54612 18.6532 2.51037 18.7049 2.73997C18.4934 2.74076 18.2803 2.73997 18.0688 2.73997C17.9361 2.73997 17.8041 2.73997 17.6713 2.73997C17.7166 2.49051 17.5481 2.60412 17.3986 2.57949C16.214 2.38564 15.2798 2.19736 14.1882 1.79457C13.9703 1.71433 13.1538 1.49189 13.0592 1.42674C12.9765 1.36954 12.9956 1.24561 12.9805 1.23051C13.1236 0.926237 13.1427 0.528217 13.1395 0.197726C13.211 0.195343 13.2834 0.119075 13.2985 0.118281C13.7469 0.10557 14.2009 0.124637 14.6501 0.118281H14.6493Z" fill="#7AC6B1"/>
<path d="M26.8955 15.3718C26.362 15.6014 25.8389 15.9494 25.3054 16.1663C25.2664 16.1822 25.1861 16.1504 25.1464 16.1663C24.4388 15.3877 23.3416 14.7879 22.6833 13.9799C22.0107 13.1537 21.2395 11.8699 20.6289 10.9483C20.4563 10.6885 20.2019 10.3501 20.1367 10.0498C22.0449 11.885 24.8069 13.3809 26.7667 15.1462C26.8796 15.2479 26.8685 15.3408 26.8947 15.3726L26.8955 15.3718Z" fill="#C5E0DC"/>
<path d="M12.182 3.7727C12.4388 3.72821 12.3156 3.9022 12.3378 4.04997C12.5581 5.48474 12.6885 6.94335 12.8984 8.38052C13.0931 8.22639 13.1416 7.77435 13.1925 7.5233C13.3698 6.64225 13.408 5.73341 13.5368 4.84521C13.5694 4.62276 13.4573 4.62833 13.7721 4.64739C13.7721 4.67361 13.7721 4.70062 13.7721 4.72684C13.7451 6.46827 13.8182 8.25499 13.8548 10.0139C13.858 10.1696 13.7658 10.346 13.7721 10.4469C13.6195 10.4175 13.5845 10.5716 13.5336 10.6058C13.1083 10.8894 12.6662 11.1674 12.2615 11.4797C11.9332 11.4129 12.0548 11.5957 12.023 11.6386C12.0007 11.6687 11.9673 11.6902 11.9435 11.718C11.6811 11.6942 11.5221 11.857 11.546 12.1152C11.5197 12.1414 11.4935 12.1685 11.4665 12.1947H11.1484C11.3273 11.8832 11.7741 10.1728 11.9618 10.0663C12.0516 10.0147 12.2281 10.0743 12.2615 10.0489C12.283 10.0322 12.2504 9.86217 12.2615 9.81132C12.4444 9.82483 13.2545 10.1712 13.2943 10.1291C13.2196 9.6715 12.9373 9.25997 12.9763 8.77854C12.7942 9.04785 12.3299 9.51896 12.2615 9.81132C12.209 9.80735 12.155 9.8137 12.1025 9.81132V9.73188L12.182 9.65243C12.1931 9.61033 12.1764 9.54518 12.182 9.49354V9.4141C12.2345 7.83711 12.182 6.22756 12.182 4.64739V3.7735V3.7727Z" fill="#438B79"/>
<path d="M11.1513 12.1938H11.4694C10.4747 13.167 9.10486 14.3198 8.00848 15.2104C7.74293 15.4265 6.9749 16.0867 6.69902 16.0867C6.38497 16.0867 6.35635 15.8976 6.22198 15.8483C6.46845 15.1722 6.97888 14.6344 7.33506 14.0219C7.21899 13.9297 5.98824 14.7695 5.76801 14.8926C5.63603 14.9665 5.59389 14.8902 5.58594 14.895C6.23709 14.3214 6.96616 13.8352 7.65309 13.3061C8.01007 13.4546 7.5871 13.6644 7.61254 13.8606L11.1513 12.1938Z" fill="#4D9A89"/>
<path d="M13.9327 2.73999C13.9176 2.86472 13.9542 3.02043 13.9327 3.13721C13.8198 3.74894 13.7904 4.00873 13.7737 4.64667C13.4597 4.6284 13.571 4.62204 13.5384 4.84449C13.4088 5.73268 13.3706 6.64233 13.1941 7.52258C13.1432 7.77442 13.0947 8.22646 12.8999 8.37979C12.69 6.94263 12.5597 5.48402 12.3394 4.04924C12.3164 3.90147 12.4404 3.7267 12.1836 3.77198V2.73919C12.7656 2.74555 13.3507 2.73681 13.9327 2.73919V2.73999Z" fill="#357567"/>
<path d="M11.6271 1.54827C11.418 1.08113 11.0412 0.739515 10.9124 0.277939C11.0078 0.179427 12.0127 0.815783 12.2393 0.818167C12.3554 0.818961 12.5112 0.603665 12.5812 0.674371C12.5995 0.693438 12.6901 1.02393 12.7879 1.1431C12.865 1.23684 12.9668 1.21857 12.9795 1.23049C12.9946 1.24558 12.9755 1.36952 13.0582 1.42672C13.1528 1.49186 13.9686 1.71431 14.1872 1.79454C15.2788 2.19733 16.213 2.38562 17.3977 2.57946C17.5471 2.60409 17.7157 2.49049 17.6704 2.73994C16.4261 2.74312 15.1778 2.7455 13.9336 2.73994C13.3516 2.73756 12.7664 2.7463 12.1845 2.73994C12.1582 2.73994 12.1312 2.73994 12.1049 2.73994C12.0517 2.73994 11.9992 2.73994 11.9459 2.73994C11.6422 2.56199 11.1843 2.7034 10.8329 2.6605C10.8201 2.63031 10.8376 2.55166 10.8329 2.50161C11.2161 2.43328 11.2805 1.94231 11.6279 1.7866C11.6359 1.79772 11.7782 1.81361 11.868 1.901C11.9889 2.01779 12.1161 2.23706 12.1773 2.29267C12.675 2.73994 12.7656 0.839616 12.3148 0.919061C12.1081 0.955606 11.8951 1.53397 11.6279 1.54827H11.6271Z" fill="#4D9A89"/>
<path d="M26.8892 26.1763C26.0814 27.333 24.508 28.7488 23.5046 29.8284C23.4219 29.9182 23.4092 30.0501 23.3909 30.0691C22.8956 30.6006 22.3184 31.1424 21.8008 31.658C22.0942 31.0463 22.3947 30.4282 22.7135 29.8292C23.0109 29.2699 23.7884 27.6556 24.1422 27.2846C24.4873 26.9231 25.9963 26.4679 26.5624 26.2073C26.6522 26.166 26.8065 25.9849 26.8892 26.1763Z" fill="#5DAC9A"/>
<path d="M18.7008 0.118428C19.5205 0.102539 20.3457 0.129551 21.1662 0.118428C21.1702 0.170862 21.163 0.22409 21.1662 0.277319C20.9325 0.216146 20.9667 0.33293 20.876 0.423497C20.4586 0.841378 20.1724 1.38081 19.7351 1.78677C19.7089 1.7836 19.6819 1.78916 19.6556 1.78677L18.6403 1.09322L13.6927 0.276523C13.6736 0.138289 13.8732 0.201846 13.9694 0.197873C15.4506 0.13829 16.9461 0.225678 18.4296 0.201845C18.5346 0.200256 18.6109 0.119223 18.6212 0.118428C18.6475 0.118428 18.6745 0.118428 18.7008 0.118428Z" fill="#C5E0DC"/>
<path d="M6.06342 21.0123C6.16439 21.767 6.27172 22.5726 6.42199 23.3186C6.45061 23.4592 6.39893 23.6872 6.61996 23.634C6.62711 24.1361 6.61519 24.6414 6.61996 25.1435C6.15962 25.2745 5.66032 25.6201 5.26439 25.8958C5.13638 25.9848 5.05926 25.9228 5.10935 26.1762C5.07914 26.1333 4.98214 26.1508 4.95193 25.9792C4.94398 25.3564 4.9567 24.7327 4.95034 24.1107C5.23735 24.1766 5.04415 23.8684 5.11889 23.7993C5.15467 23.7659 5.30732 23.8414 5.35105 23.7428C5.58797 23.2042 5.67702 21.8632 5.82172 21.2046C5.86704 20.9988 5.75096 20.9877 6.06342 21.0123Z" fill="#438B79"/>
<path d="M4.94745 17.3579L5.42369 17.199C5.47537 17.9108 5.88403 18.7092 5.97387 19.3901C6.00965 19.6602 5.94763 19.9581 5.98023 20.2179C6.01283 20.4777 6.02475 20.7518 6.05974 21.0123C5.74728 20.9869 5.86336 20.9988 5.81804 21.2046C5.67334 21.8632 5.58429 23.2042 5.34736 23.7429C5.30364 23.8414 5.15098 23.7659 5.11521 23.7993C5.04047 23.8692 5.23367 24.1766 4.94665 24.1107C4.94586 24.005 4.94665 23.8986 4.94665 23.7929C5.07068 23.7603 5.06591 23.5006 4.94665 23.4751C4.94665 23.3957 4.94665 23.3162 4.94665 23.2368V20.059C4.94904 19.3448 4.94268 18.6282 4.94665 17.914L5.02457 17.8743L4.94665 17.8345C4.94745 17.6756 4.94506 17.5168 4.94665 17.3579H4.94745Z" fill="#357567"/>
<path d="M4.95099 15.8484C5.14021 16.1424 5.13782 16.4856 5.30876 16.8049C5.35726 16.8955 5.30638 16.9956 5.46698 16.9606L6.06407 15.8476C6.10382 15.8627 6.18253 15.8325 6.22308 15.8476C6.35744 15.8969 6.38606 16.0852 6.70011 16.086V16.1654C6.55303 17.535 6.6222 18.9809 6.62061 20.376L5.98456 20.2171C5.95196 19.9573 6.01398 19.6594 5.9782 19.3893C5.88836 18.7084 5.4789 17.91 5.42802 17.1982L4.95178 17.3571C4.95655 16.8558 4.93508 16.3481 4.95178 15.8476L4.95099 15.8484Z" fill="#438B79"/>
<path d="M19.8152 9.57219C19.8526 9.64687 19.8764 9.7851 19.8947 9.81052L18.1464 10.3666C18.1973 9.77875 18.0724 9.08042 18.1527 8.50683C18.1861 8.2677 18.334 8.08021 18.3753 7.85538C18.4716 7.34376 18.5407 6.82816 18.6234 6.31494L19.102 7.46371C19.2793 8.19222 19.4916 8.92789 19.8152 9.57139V9.57219Z" fill="#C5E0DC"/>
<path d="M9.08167 29.3541C8.86223 29.3175 8.57999 29.6424 8.52513 29.8307C7.5313 28.7582 6.47308 27.7008 5.50391 26.5735C5.65417 26.5759 5.74481 26.6569 5.8593 26.734C6.86823 27.414 8.27786 28.4889 9.08167 29.3541Z" fill="#5DAC9A"/>
<path d="M9.07998 29.3539C9.63413 29.9498 10.2121 30.5869 10.4586 31.4401C10.5007 31.5855 10.4204 31.7444 10.4689 31.8175C10.6105 32.028 10.7369 31.7357 10.8895 31.6785C11.0422 31.6213 11.2727 31.6252 11.3856 31.5784L11.6242 31.9756C11.2036 31.9677 10.7703 32.0177 10.3537 31.9343C9.85914 31.3281 9.28908 30.7958 8.76195 30.2278C8.65462 30.1126 8.5624 29.8727 8.52344 29.8306C8.5783 29.6423 8.86054 29.3174 9.07998 29.3539Z" fill="#4D9A89"/>
<path d="M21.1655 0.27701C21.1949 0.882382 21.1846 1.57514 21.1655 2.18369C20.6972 2.3108 20.0667 1.82539 19.7344 1.78647C20.1717 1.3805 20.4579 0.84107 20.8753 0.423189C20.9659 0.332622 20.9309 0.215838 21.1655 0.27701Z" fill="#7AC6B1"/>
<path d="M5.58527 14.8952C5.59322 14.8912 5.63535 14.9667 5.76733 14.8928C5.98756 14.7688 7.21831 13.9291 7.33439 14.0221C6.97821 14.6346 6.46778 15.1724 6.22131 15.8485C6.18076 15.8334 6.10205 15.8636 6.0623 15.8485C5.68465 15.7039 5.32369 15.522 4.94922 15.3718C4.98182 15.2423 5.44374 14.9698 5.58527 14.8952Z" fill="#7AC6B1"/>
<path d="M21.1677 2.18388C21.1638 2.3094 21.1964 2.57872 21.1677 2.66055C21.0183 2.67167 20.7798 2.59938 20.6907 2.73999C20.4275 2.75271 20.1588 2.73761 19.8956 2.73999C19.8694 2.73999 19.8424 2.73999 19.8161 2.73999C19.4464 2.74317 19.0736 2.73761 18.7031 2.73999C18.6514 2.5104 18.7357 2.54615 18.8494 2.45081C19.1046 2.23711 19.4862 2.09013 19.6571 1.78665C19.6834 1.78904 19.7104 1.78348 19.7366 1.78665C20.069 1.82558 20.6995 2.31099 21.1677 2.18388Z" fill="#5DAC9A"/>
<path d="M13.1352 0.197806C13.1384 0.528297 13.1193 0.926317 12.9762 1.23059C12.9634 1.21788 12.8625 1.23695 12.7846 1.1432C12.6868 1.02483 12.5961 0.693543 12.5778 0.674476C12.5079 0.602976 12.3528 0.819066 12.236 0.818272C12.0094 0.815888 11.0044 0.179532 10.909 0.278044C11.0378 0.73962 11.4155 1.08203 11.6238 1.54837C11.6468 1.59922 11.6007 1.75334 11.6238 1.78671C11.2763 1.94242 11.2119 2.43339 10.8287 2.50171C10.8057 2.23716 10.7993 0.363846 10.8637 0.272484C10.9623 0.131072 12.7925 0.208928 13.1344 0.197806H13.1352Z" fill="#5DAC9A"/>
<path d="M6.06195 15.8484L5.46487 16.9615C5.30347 16.9964 5.35435 16.8963 5.30665 16.8057C5.13571 16.4856 5.1381 16.1432 4.94887 15.8492C4.95364 15.7102 4.92105 15.4838 4.94887 15.3726C5.32335 15.5227 5.6843 15.7046 6.06195 15.8492V15.8484Z" fill="#5DAC9A"/>
<path d="M4.94898 23.2369C4.94262 22.1787 4.9458 21.1173 4.94898 20.0591V23.2369Z" fill="#438B79"/>
<path d="M19.8151 3.05786V3.77287C19.6593 3.73871 19.5472 3.81497 19.4176 3.85231C19.3277 3.51944 19.579 3.4098 19.6561 3.13731C19.6648 3.13492 19.8088 3.06422 19.8151 3.05786Z" fill="#5DAC9A"/>
<path d="M11.9451 2.73976C11.7241 2.73738 10.8917 2.80173 10.832 2.66032C11.1834 2.70322 11.6414 2.56181 11.9451 2.73976Z" fill="#5DAC9A"/>
<path d="M12.1854 3.53444C12.016 3.34616 12.1401 2.98945 12.1059 2.73999C12.1321 2.73999 12.1591 2.73999 12.1854 2.73999V3.53444Z" fill="#5DAC9A"/>
<path d="M12.1822 4.64665C12.0486 4.49888 12.0486 4.07941 12.1822 3.93164V4.64665Z" fill="#5DAC9A"/>
<path d="M21.1684 2.66049C21.1581 2.69147 21.1748 2.72643 21.1239 2.73278C20.98 2.75582 20.8345 2.73278 20.6914 2.73993C20.7805 2.59931 21.019 2.67161 21.1684 2.66049Z" fill="#7AC6B1"/>
<path d="M4.94922 23.7929C4.94922 23.6872 4.94922 23.5808 4.94922 23.4751C5.06848 23.5005 5.07325 23.7603 4.94922 23.7929Z" fill="#438B79"/>
<path d="M19.8125 3.05777V2.73999C19.8387 2.73999 19.8658 2.73999 19.892 2.73999C19.9031 2.87902 19.9246 2.95211 19.8125 3.05777Z" fill="#C5E0DC"/>
<path d="M5.42464 26.4941C5.38806 26.4504 5.32287 26.4035 5.26562 26.3352C5.33957 26.1374 5.35865 26.3765 5.42464 26.4941Z" fill="#5DAC9A"/>
<path d="M12.1055 9.7306C12.1102 9.68965 12.1819 9.6613 12.1843 9.65186L12.1055 9.7306Z" fill="#357567"/>
<path d="M4.94922 17.9132C4.94922 17.8872 4.94922 17.8605 4.94922 17.8345L5.02644 17.8738L4.94922 17.9132Z" fill="#438B79"/>
<path d="M25.3018 16.1662C25.3272 18.3502 25.2692 20.5389 25.2986 22.7236C25.3082 23.468 25.5212 24.3165 25.3018 25.0641L22.4396 24.5874C22.1732 22.181 21.7423 19.7778 21.6445 17.3579C22.442 17.2705 24.3247 16.4888 25.1428 16.1662C25.1825 16.1503 25.2628 16.1821 25.3018 16.1662Z" fill="#72C174"/>
<path d="M21.5662 17.3578C21.5925 17.3562 21.6195 17.361 21.6457 17.3578C21.7435 19.7777 22.1745 22.1809 22.4408 24.5873C21.955 26.4717 21.1099 28.2489 20.6917 30.1485C20.6615 30.1985 20.64 30.2557 20.6122 30.3074H20.5327L19.1016 24.5079C19.3973 24.2775 20.4341 23.5601 20.5883 23.3726C20.6917 23.2463 20.6623 23.1311 20.6917 22.9984C21.0049 21.5827 20.9835 20.0049 21.2299 18.5686C21.2315 18.416 21.1059 18.4216 21.0892 18.3906C20.9111 18.068 20.6002 17.6637 20.3737 17.3578C20.7139 17.2148 21.1441 17.3808 21.5662 17.3578Z" fill="#4CA146"/>
<path d="M17.1898 11.8763C17.55 11.5212 17.7297 11.3734 17.9467 10.8427C18.035 10.6266 17.8752 10.4534 18.2147 10.5337L21.5619 17.358C21.1397 17.381 20.7096 17.215 20.3693 17.358C20.1824 17.1061 19.0558 15.5999 18.9382 15.5308C18.667 15.3711 18.3339 15.4783 18.0207 15.4545C17.9181 15.4465 17.8116 15.3719 17.7853 15.3719H16.5927C16.3018 15.3719 15.7937 15.3075 15.4399 15.2924C15.393 15.0724 15.517 15.0612 15.6196 14.9556C16.1165 14.4416 16.8432 13.1442 17.03 12.4324C17.7257 13.2173 18.2465 11.6832 17.189 11.8763H17.1898Z" fill="#72C174"/>
<path d="M13.774 10.4461C13.8011 10.8648 14.1843 11.8388 14.2916 12.352C14.4904 13.3053 14.6017 14.2785 14.8871 15.2128C14.5214 15.2025 14.0483 15.1786 13.6945 15.2128C13.6683 15.2152 13.6404 15.208 13.615 15.2128C13.5172 15.2303 13.514 15.2581 13.456 15.2922C13.2024 15.4424 12.5775 16.2774 12.3429 16.5634C11.5884 16.4871 10.6447 16.6658 9.9164 16.5634C9.80668 16.5483 9.78044 16.6078 9.79793 16.4442L13.5355 10.605C13.5864 10.5708 13.6214 10.4167 13.774 10.4461Z" fill="#72C174"/>
<path d="M17.7496 3.9317C17.6916 4.16765 17.651 4.40758 17.5906 4.64671C17.4912 5.03758 16.9085 7.55996 16.7948 7.66641C16.7701 7.68945 16.6636 7.58538 16.6366 7.58617C16.6294 7.37962 16.1245 6.23879 16.0403 6.2372L15.444 7.66562C15.3764 7.64814 15.2484 7.72123 15.2023 7.61477C15.0003 6.78298 14.7459 5.96549 14.5106 5.14244C14.466 4.98673 14.3579 4.82466 14.3309 4.72615C14.2744 4.52118 14.2275 4.23756 14.1719 4.01115C14.3206 3.97857 14.8747 4.11522 14.9479 4.1891C15.1236 4.36468 14.8071 4.72059 15.5108 4.51403C15.9194 4.39407 16.1325 4.28603 16.4449 4.10012C16.7916 3.89436 17.364 3.77281 17.7504 3.9317H17.7496Z" fill="#357567"/>
<path d="M19.657 3.13721C19.5799 3.4097 19.3286 3.51934 19.4185 3.85221C18.7228 4.05241 18.3022 4.53385 17.5898 4.64666C17.6503 4.40753 17.6908 4.16761 17.7489 3.93166C17.795 3.74417 17.9508 3.44625 17.9874 3.2961C18.4795 3.22539 19.1998 3.26352 19.657 3.13721Z" fill="#438B79"/>
<path d="M15.3466 11.9738C15.368 11.9866 15.593 12.3401 15.6034 12.3965C15.7966 13.492 14.0085 13.0614 14.577 12.1621C14.7002 11.9675 15.1717 11.8722 15.3466 11.9738Z" fill="#3E9044"/>
<path d="M16.634 7.58604C16.1832 7.60987 15.9017 7.78306 15.4414 7.66548L16.0377 6.23706C16.122 6.23865 16.6268 7.37948 16.634 7.58604Z" fill="#5DAC9A"/>
<path d="M14.171 4.0111C14.2266 4.23752 14.2735 4.52114 14.33 4.72611H13.7734C13.7734 4.69989 13.7734 4.67288 13.7734 4.64666C13.7901 4.00872 13.8196 3.74893 13.9324 3.13721C14.0851 3.39064 14.1002 3.72351 14.171 4.0111Z" fill="#4D9A89"/>
<path d="M17.1942 11.8761C18.2516 11.683 17.7308 13.2171 17.0352 12.4322C17.0844 12.2463 16.9779 12.089 17.1942 11.8761Z" fill="#3E9044"/>
<path d="M16.7243 8.46631C17.2283 8.47584 17.4573 9.21706 16.8348 9.1821C16.3689 9.15589 16.5732 8.74437 16.7243 8.46631Z" fill="#438B79"/>
<path d="M19.4977 30.3868C17.3852 30.6458 15.2378 30.9707 13.0967 31.1805C12.7954 31.2099 12.3048 31.0716 12.1037 31.3394C14.6041 31.5237 17.1149 31.627 19.6154 31.8184C19.834 31.8351 20.1385 31.9638 20.2927 31.9757C17.4067 31.9368 14.5127 32.0282 11.6266 31.9757L11.3881 31.5785C11.5066 31.53 11.6695 31.3203 11.8643 31.3394C11.8484 31.1662 11.3444 31.2146 11.3086 31.1813C11.4247 30.8945 11.5304 30.6236 11.5471 30.3082C14.0507 30.3296 16.5576 30.2804 19.0612 30.3066C19.1956 30.3082 19.415 30.2557 19.4977 30.3876V30.3868Z" fill="#438B79"/>
<path d="M20.5331 30.3076H20.6126L21.4872 31.9759C21.193 32.0156 20.6038 31.9998 20.2946 31.9759C20.1403 31.964 19.8358 31.8353 19.6172 31.8186C17.1167 31.628 14.6059 31.5239 12.1055 31.3396C12.3066 31.0726 12.7972 31.2101 13.0985 31.1807C15.2396 30.9709 17.387 30.646 19.4995 30.387C19.8199 30.3481 20.0211 30.3791 20.3741 30.3076C20.4218 30.298 20.4822 30.3139 20.5331 30.3076Z" fill="#5DAC9A"/>
<path d="M25.3027 25.0641C25.193 25.4375 24.6762 25.9324 24.3892 26.2565C23.4383 27.3298 22.423 28.3801 21.4475 29.4343C21.2511 29.6465 20.8091 29.9531 20.6914 30.1486C21.1096 28.249 21.9548 26.4718 22.4405 24.5874L25.3027 25.0641Z" fill="#3E9044"/>
<path d="M26.2545 21.8861C26.0422 21.9441 26.0796 21.7344 26.043 21.5843C25.9333 21.1378 25.4936 18.9856 25.5429 18.6734C25.5747 18.4732 26.528 16.4116 26.6934 16.0883C26.7403 15.9969 26.7673 15.8682 26.8905 15.8491C26.9207 17.8781 26.431 19.8722 26.2545 21.8861Z" fill="#C5E0DC"/>
<path d="M6.69985 16.1663L9.64157 16.5635L9.10013 23.5801L13.5374 26.2566C13.5429 26.3527 13.4944 26.4226 13.5866 26.5021C13.6606 26.5656 14.5208 26.9422 14.5701 26.8921V26.0977C14.6814 26.1263 14.745 26.0413 14.8889 26.1771C14.9557 26.6165 14.66 27.0717 15.207 27.1305C15.2205 27.3704 15.4813 27.4816 15.6602 27.5913C17.0332 28.4342 18.5383 29.1047 19.9233 29.9285C20.0226 29.9881 20.2373 30.228 20.3748 30.3083C20.0218 30.3798 19.8207 30.3488 19.5003 30.3877C19.4176 30.2558 19.1982 30.3083 19.0638 30.3067C16.5594 30.2805 14.0525 30.3289 11.5497 30.3083L11.3684 30.2916L6.62035 25.1443C6.61558 24.6423 6.6275 24.137 6.62035 23.6349C6.60524 22.5552 6.61876 21.4613 6.62035 20.3776C6.62194 18.9826 6.55277 17.5367 6.69985 16.1671V16.1663Z" fill="#2B6A35"/>
<path d="M17.671 2.73999C17.8038 2.73999 17.9358 2.73999 18.0686 2.73999C17.9755 2.90762 18.0256 3.14675 17.9891 3.29611C17.9525 3.44546 17.7966 3.74418 17.7505 3.93167C17.3641 3.77278 16.7917 3.89433 16.445 4.10009C16.1334 4.2852 15.9195 4.39404 15.5109 4.514C14.8072 4.72056 15.1237 4.36464 14.948 4.18907C14.8748 4.11598 14.3207 3.97933 14.172 4.01111C14.1012 3.72352 14.0861 3.39065 13.9335 3.13722C13.9549 3.02043 13.9184 2.86472 13.9335 2.73999C15.1777 2.74555 16.426 2.74317 17.6702 2.73999H17.671Z" fill="#3B2B4D"/>
<path d="M18.7038 2.73987C19.0743 2.73749 19.4472 2.74305 19.8169 2.73987V3.05765C19.8106 3.06401 19.6666 3.13471 19.6579 3.1371C19.2007 3.26341 18.4804 3.22528 17.9883 3.29599C18.0249 3.14663 17.9748 2.9075 18.0678 2.73987C18.2793 2.73987 18.4923 2.74066 18.7038 2.73987Z" fill="#357567"/>
<path d="M13.5367 10.605L9.79915 16.4443C9.78166 16.6079 9.80789 16.5483 9.91761 16.5634C10.6467 16.6659 11.5904 16.4872 12.3441 16.5634C12.2551 16.6715 12.2241 16.8319 12.1851 16.8812C12.1255 16.9567 11.9665 17.0369 11.8695 17.1616C11.4871 17.655 11.0824 18.142 10.7683 18.6846C10.9416 20.2076 11.1476 21.7273 11.2295 23.2606C11.2605 23.3989 13.272 24.5214 13.5367 24.9052V25.3818C13.5367 25.6702 13.5192 25.9689 13.5367 26.2557L9.0995 23.5792L9.64093 16.5626L6.69922 16.1654V16.086C6.9759 16.086 7.74313 15.4258 8.00868 15.2097C9.10427 14.3191 10.4749 13.1656 11.4696 12.1931C11.4966 12.1669 11.5228 12.1399 11.5491 12.1137C11.6922 11.9699 11.7995 11.8897 11.9466 11.7165C11.9705 11.6887 12.0038 11.6672 12.0261 11.637C12.1891 11.6672 12.2145 11.5171 12.2646 11.4781C12.6693 11.1659 13.1114 10.8879 13.5367 10.6042V10.605Z" fill="#4CA146"/>
<path d="M12.2617 9.81062C12.3301 9.51826 12.7944 9.04715 12.9765 8.77783C12.9375 9.25927 13.2198 9.67079 13.2945 10.1284C13.254 10.1713 12.4446 9.82492 12.2617 9.81062Z" fill="#5DAC9A"/>
<path d="M11.9468 11.7174C11.7997 11.8906 11.6923 11.9708 11.5492 12.1146C11.5254 11.8564 11.6844 11.6936 11.9468 11.7174Z" fill="#4D9A89"/>
<path d="M12.262 11.4789C12.2119 11.5178 12.1864 11.6679 12.0234 11.6378C12.0552 11.5949 11.9336 11.4121 12.262 11.4789Z" fill="#4D9A89"/>
<path d="M12.2624 9.81067C12.2504 9.86151 12.2838 10.0315 12.2624 10.0482C12.2298 10.0736 12.0533 10.014 11.9626 10.0657C11.7758 10.1721 11.3282 11.8826 11.1493 12.194L7.61049 13.8608C7.58505 13.6645 8.00802 13.4548 7.65104 13.3062C9.14495 12.1551 10.5983 10.9467 12.1034 9.81067C12.1558 9.81305 12.2099 9.80669 12.2624 9.81067Z" fill="#357567"/>
<path d="M11.6277 1.54838C11.8949 1.53408 12.108 0.955721 12.3147 0.919176C12.7655 0.839731 12.6748 2.73926 12.1771 2.29278C12.1151 2.23717 11.9879 2.0179 11.8679 1.90112C11.778 1.81373 11.6357 1.79784 11.6277 1.78672C11.6047 1.75335 11.6508 1.59923 11.6277 1.54838Z" fill="#438B79"/>
<path d="M6.61651 20.3769C6.61492 21.4605 6.60141 22.5545 6.61651 23.6342C6.39469 23.6874 6.44637 23.4594 6.41855 23.3188C6.26828 22.5728 6.16095 21.7672 6.05997 21.0125C6.02499 20.7519 6.01307 20.4786 5.98047 20.218L6.61651 20.3769Z" fill="#4D9A89"/>
<path d="M20.53 30.3072C20.4791 30.3136 20.4187 30.2977 20.371 30.3072C20.2327 30.227 20.0188 29.9871 19.9194 29.9275C18.5344 29.1028 17.0302 28.4323 15.6563 27.5902C15.4782 27.4806 15.2166 27.3694 15.2031 27.1294C16.0212 27.2176 15.8312 26.9332 15.8392 26.2555C16.0491 26.0347 16.0984 26.3104 16.1572 26.335V27.0508H17.1121C17.1264 26.8418 17.0914 26.6226 17.1121 26.4144C17.1916 25.6152 17.5597 26.5121 17.5104 26.8911C17.5318 26.9102 17.7704 26.8323 17.8276 26.8117C17.9167 26.7791 18.4295 26.5082 18.447 26.478C18.5074 26.3739 18.4764 25.1711 18.5416 24.8819C18.6823 24.7238 18.9455 24.6285 19.0997 24.5085L20.5308 30.308L20.53 30.3072Z" fill="#3E9044"/>
<path d="M13.6121 15.2129L13.5326 15.2923H13.4531C13.5112 15.2582 13.5143 15.2304 13.6121 15.2129Z" fill="#523B6A"/>
<path d="M19.8969 21.0123C19.9566 21.6789 19.5431 22.7983 18.7838 22.8396C18.5032 22.8547 17.5348 22.6092 17.3504 22.405C17.1659 22.2008 16.8312 21.1458 16.964 20.9059C17.0737 20.7073 17.7447 20.1869 17.9466 20.171C18.2313 20.1488 19.7419 20.7518 19.8969 21.0115V21.0123Z" fill="#4CA146"/>
<path d="M12.9812 20.5356C13.3207 21.0886 13.8176 21.7527 14.2549 22.2429C14.3479 22.347 14.4147 22.4399 14.5713 22.4423C14.3567 22.625 13.2372 22.9826 12.9812 22.8396C12.4334 22.5329 12.1607 22.03 12.1066 21.4095C12.0693 20.9821 12.2498 20.9273 12.2657 20.8534C12.4907 20.7144 12.7395 20.6357 12.9812 20.5356Z" fill="#4CA146"/>
<path d="M14.5706 22.4426C14.414 22.4394 14.3464 22.3472 14.2542 22.2432C13.8169 21.7538 13.3208 21.0896 12.9805 20.5359C13.2206 20.4366 13.898 20.1124 14.1317 20.1371C14.239 20.1482 14.9872 20.7766 15.054 20.891C15.1335 21.0261 15.1239 21.0237 15.0961 21.1722C15.0532 21.405 14.7304 22.3067 14.5706 22.4426Z" fill="#72C174"/>
<path d="M16.3177 22.8395C16.4267 23.05 16.8504 24.144 16.8608 24.3323C16.8719 24.5373 16.7264 24.5937 16.7153 24.6668C16.3702 24.8423 16.0784 24.345 16.0387 24.3474C15.89 24.3561 15.1665 25.1101 15.0862 24.3593C15.0703 24.2107 15.8168 22.5472 15.9178 22.4796C16.0776 22.3732 16.2597 22.7283 16.3177 22.8395Z" fill="#4CA146"/>
<path d="M14.6295 13.8307C14.8793 13.8376 15.0869 13.9188 15.3152 13.9286C15.7511 13.9472 16.377 14.0265 16.7355 14.0265H18.2048C18.2381 14.0265 18.3694 14.1185 18.4948 14.1283C18.8797 14.1576 19.2901 14.0255 19.6251 14.2222C19.3538 14.5687 18.7259 16.9012 18.4889 16.955C18.1823 17.0245 13.7743 14.2095 13.1602 13.8307C13.5961 13.7886 14.1789 13.818 14.6295 13.8307Z" fill="#9066A9"/>
<path d="M12.9618 14.2219C13.2586 14.1671 13.1499 14.3717 13.1577 14.5606C13.2116 15.9524 13.3595 17.3316 13.3546 18.7244L18.3111 17.1691C19.6472 17.1074 20.9539 17.5547 22.2675 17.7456C22.288 17.7838 22.4428 17.7769 22.4408 17.9648C22.1372 19.7345 22.1627 21.6784 21.7777 23.4226C21.7277 23.3629 21.6063 23.2875 21.5818 23.2269C21.2938 22.5211 21.0969 21.6852 20.7982 20.9756C20.6062 20.6556 18.746 19.9126 18.3953 19.9401C18.1465 19.9596 17.3198 20.6007 17.1846 20.8454C17.021 21.141 17.4373 22.4458 17.6607 22.6924C17.884 22.9391 19.081 23.2464 19.4268 23.2278C19.8264 23.3972 19.4816 23.7681 19.5247 24.1087C19.4934 24.1097 19.4581 24.1127 19.4268 24.1087C18.6774 24.0177 17.5804 23.1671 16.8075 22.9469L16.3902 23.2278C16.3187 23.0908 16.0944 22.6533 15.8975 22.7844C15.7731 22.8676 14.8533 24.9172 14.8729 25.1003C14.9728 26.0262 15.8632 25.0964 16.0464 25.0856C16.0954 25.0826 16.4549 25.6954 16.88 25.4791C16.8281 25.8432 17.6793 26.0595 17.5657 26.5557H15.5576C15.2353 26.5557 14.9111 26.6223 14.5222 26.5136C14.1578 26.4119 13.7964 25.991 13.5926 25.9645C13.43 25.943 13.0891 26.0957 13.0598 26.0663C13.0304 26.037 13.0872 25.8314 13.0598 25.7727C13.1352 25.4947 14.1098 24.2732 13.9413 24.1087C13.5397 24.0892 13.1293 24.141 12.7277 24.097C12.5063 24.0735 12.281 23.9257 12.1782 23.912C12.2017 23.6977 12.09 23.3658 12.2761 23.2269C12.5915 23.403 13.9707 22.9626 14.2352 22.7375C14.4321 22.5701 14.8298 21.4591 14.8827 21.1724C14.917 20.9893 14.9287 20.9923 14.8308 20.8259C14.7485 20.6859 13.8267 19.9117 13.6945 19.897C13.4075 19.8666 12.5719 20.266 12.2761 20.3883C11.9803 20.5107 11.6717 20.6086 11.3945 20.7799C11.6747 19.4565 11.8618 18.0813 12.1782 16.7668C12.3897 15.8898 12.7483 15.0431 12.9618 14.2219Z" fill="#523B6A"/>
<path d="M19.6291 14.222C19.7741 14.3071 21.1621 16.1629 21.3923 16.4732C21.6714 16.85 22.0544 17.3482 22.2739 17.7456C20.9603 17.5538 19.6536 17.1074 18.3175 17.1691L13.361 18.7244C13.3659 17.3316 13.2189 15.9525 13.1641 14.5606C13.1563 14.3727 13.265 14.1681 12.9682 14.222C12.9888 14.1427 12.9545 14.0193 12.9682 13.9283L13.0661 13.8304C13.0975 13.8246 13.1318 13.8334 13.1641 13.8304C13.7783 14.2092 18.1862 17.0242 18.4928 16.9548C18.7299 16.9009 19.3587 14.5684 19.6291 14.222Z" fill="#72528B"/>
<path d="M21.7811 23.4228C21.7448 23.5863 21.7811 23.7282 21.6537 23.8838C21.4637 24.1148 20.1864 24.9987 19.822 25.2825C19.632 25.4303 19.3087 25.5478 19.1344 25.7426C19.053 26.0988 19.0922 27.5817 19.0178 27.709C18.9962 27.7462 18.3644 28.0809 18.2547 28.1201C18.2381 27.9077 18.482 27.8137 18.528 27.66C18.7043 27.0776 18.2126 26.6783 18.3008 26.1615C18.4046 25.5517 19.3499 24.7892 19.4302 24.107C19.4615 24.1109 19.4968 24.108 19.5281 24.107C19.629 24.1031 19.728 24.105 19.823 24.0629L21.5852 23.2261C21.6097 23.2868 21.7311 23.3621 21.7811 23.4218V23.4228Z" fill="#271C33"/>
<path d="M12.9621 13.9282C12.9484 14.0193 12.9827 14.1426 12.9621 14.2219C12.7486 15.0431 12.39 15.8897 12.1785 16.7667C11.5476 16.5064 12.1696 15.8388 11.2969 15.8858C11.3449 15.8251 11.3831 15.6274 11.4928 15.4943C11.7817 15.1419 12.5517 14.1132 12.8641 13.9282H12.9621Z" fill="#3B2B4D"/>
<path d="M19.4298 24.1079C19.3505 24.7891 18.4052 25.5526 18.3004 26.1624C18.2123 26.6782 18.704 27.0785 18.5277 27.6609C18.4816 27.8146 18.2377 27.9095 18.2544 28.1209C18.1839 28.1464 17.89 28.2423 17.8635 28.2188C17.9243 27.751 17.4707 26.6459 17.3728 27.6315C17.2357 28.0221 16.5235 27.6726 16.1973 27.5337C16.1249 27.5033 16.0641 27.1637 15.8055 27.4358C15.6223 27.6286 15.7272 27.8831 15.7076 28.1209C15.0434 28.2452 14.9239 27.6149 14.6301 27.3379C14.4538 27.1705 14.3744 27.2753 14.2383 27.24C13.9228 27.1588 13.8601 26.8231 13.5487 26.6087C13.3704 26.4863 13.1559 26.4501 12.9648 26.3591V25.7718C12.9746 25.7855 13.0559 25.7581 13.0628 25.7718C13.0902 25.8306 13.0324 26.0361 13.0628 26.0655C13.0932 26.0948 13.4321 25.9421 13.5957 25.9637C13.7994 25.9901 14.1609 26.411 14.5253 26.5128C14.9141 26.6214 15.2384 26.5549 15.5606 26.5549H17.5687C17.6823 26.0586 16.8311 25.8423 16.883 25.4782C16.8958 25.3881 17.075 25.3186 17.0623 25.0661C17.0505 24.8341 16.5284 23.4863 16.3932 23.227L16.8105 22.946C17.5834 23.1663 18.6805 24.0168 19.4298 24.1079Z" fill="#3B2B4D"/>
<path d="M12.9628 26.3591C13.1538 26.4502 13.3683 26.4864 13.5466 26.6087C13.8591 26.8231 13.9208 27.1588 14.2362 27.24V28.2188C14.1755 28.2815 13.1146 27.8166 13.0235 27.7383C12.9099 27.6404 12.9697 27.5542 12.9628 27.4358C12.9412 27.0825 12.9628 26.7144 12.9628 26.3591Z" fill="#271C33"/>
<path d="M14.6315 27.3379C14.9244 27.6159 15.0449 28.2452 15.709 28.1209C15.7296 27.8831 15.6238 27.6286 15.807 27.4358C15.7972 28.2707 16.0313 28.6211 15.0234 28.5124C14.3494 28.44 14.7138 27.8792 14.6315 27.3379Z" fill="#271C33"/>
<path d="M12.1779 16.7668C11.8615 18.0813 11.6744 19.4565 11.3943 20.7799C11.3747 20.8709 11.1523 20.9384 11.1984 21.465L11.0034 21.3202C10.9907 21.7234 10.0327 23.3815 10.2296 23.6096C10.2717 23.6575 11.1974 23.8729 11.3571 23.9003C11.6284 23.9463 11.9203 23.8787 12.1779 23.913C12.2817 23.9267 12.5061 24.0745 12.7274 24.098C13.1281 24.1411 13.5395 24.0902 13.9411 24.1097C14.1096 24.2732 13.1349 25.4947 13.0595 25.7737C13.0527 25.76 12.9713 25.7874 12.9616 25.7737C12.6354 25.3009 10.1571 23.9189 10.1189 23.7476C10.018 21.8595 9.76432 19.9861 9.55078 18.1097C9.9377 17.4412 10.4363 16.8412 10.9074 16.2334C11.027 16.0797 11.2229 15.9799 11.2963 15.8879C12.1691 15.8409 11.5471 16.5084 12.1779 16.7688V16.7668Z" fill="#271C33"/>
<path d="M11.2025 21.4649C11.2691 22.2294 11.605 22.8489 12.28 23.2268C12.0938 23.3658 12.2055 23.6976 12.182 23.9119C11.9244 23.8786 11.6325 23.9462 11.3611 23.8992C11.2005 23.8718 10.2758 23.6565 10.2337 23.6085C10.0368 23.3814 10.9948 21.7224 11.0075 21.3191L11.2025 21.464V21.4649Z" fill="#3B2B4D"/>
<path d="M21.5808 23.2271L19.8186 24.0639C19.7236 24.105 19.6246 24.1041 19.5237 24.108C19.4806 23.7674 19.8254 23.3964 19.4258 23.2271C20.3612 23.1762 20.8706 21.797 20.7971 20.9758C21.0959 21.6855 21.2928 22.5213 21.5808 23.2271Z" fill="#3B2B4D"/>
<path d="M16.2002 27.5337C16.5264 27.6727 17.2385 28.0221 17.3757 27.6316C17.3502 27.888 17.3943 28.1582 17.3757 28.4156H16.1992V27.5337H16.2002Z" fill="#271C33"/>
<path d="M25.7452 6.80641C26.1431 7.01885 26.6408 7.40456 26.9329 7.75586C26.851 7.92439 26.7192 8.05375 26.5683 8.16175L23.1334 10.6042C23.1239 9.02219 23.2225 7.43305 23.3698 5.85815C24.0979 6.22013 25.0421 6.43257 25.7452 6.8076V6.80641Z" fill="#271C33"/>
<path d="M25.7465 6.80646C25.0434 6.43143 24.0992 6.21899 23.3711 5.85702C23.44 5.6695 26.205 3.70177 26.5779 3.4834C26.7929 3.5641 26.591 3.85012 26.5482 3.98661C26.2537 4.91825 26.034 5.87363 25.7465 6.80646Z" fill="#357567"/>
<path d="M26.5775 3.4832C26.6131 3.46302 26.5906 3.30043 26.8139 3.36571C26.84 3.73836 26.7794 4.12526 26.8103 4.49673C26.8234 4.64865 26.9338 4.80886 26.9338 4.84803V6.74692C26.9338 7.07804 27.2165 7.17773 26.9338 7.75571C26.6416 7.40441 26.144 7.0187 25.7461 6.80626C26.0335 5.87343 26.2532 4.91805 26.5478 3.98641C26.5906 3.84992 26.7925 3.5639 26.5775 3.4832Z" fill="#72C174"/>
<path d="M5.51468 9.70087C5.20867 9.89135 4.74286 10.0817 4.38298 10.1435C4.29909 10.0194 4.26224 9.87651 4.24777 9.72895L3.92987 6.37573C5.02858 7.0013 6.08902 7.70452 7.12015 8.43575C6.5787 8.795 6.05438 9.36362 5.51386 9.70039L5.51468 9.70087Z" fill="#271C33"/>
<path d="M5.51266 9.70144C6.05318 9.36467 6.5775 8.79605 7.11895 8.4368C7.2212 8.5594 7.47821 11.2593 7.48033 11.6047C7.33857 11.7212 7.2213 11.4672 7.14392 11.3831C6.61683 10.8069 6.04342 10.2731 5.51266 9.70144Z" fill="#357567"/>
<path d="M7.48209 11.6046C7.48181 11.6373 7.60336 11.6867 7.46896 11.8151C7.2006 11.6843 6.95704 11.4878 6.6876 11.3607C6.57725 11.3091 6.42222 11.3215 6.39512 11.3058L5.0809 10.5471C4.85174 10.4148 4.66979 10.5706 4.38272 10.144C4.7426 10.0821 5.20841 9.89184 5.51442 9.70135C6.04518 10.273 6.6186 10.8068 7.14568 11.383C7.22306 11.4671 7.34033 11.7211 7.48209 11.6046Z" fill="#72C174"/>
</g>
<defs>
<clipPath id="clip0_117_268">
<rect width="32" height="32" fill="white"/>
</clipPath>
</defs>
</svg>
