<svg width="32" height="32" viewBox="0 0 32 32" fill="none" xmlns="http://www.w3.org/2000/svg">
<g clip-path="url(#clip0_129_1099)">
<path d="M16.7237 16.7896C16.7986 16.9875 16.8936 17.3614 17.0831 17.2918C17.3184 17.2053 18.195 16.063 18.3737 16.0579C18.7021 16.1246 20.0986 17.2632 20.2867 17.1452C20.3703 17.0924 20.5085 16.5887 20.731 16.5747C20.8969 16.5638 21.7627 16.8893 21.9852 16.9743C22.0924 17.0154 22.2246 16.9582 22.1855 17.1562C22.1026 17.3255 21.9259 17.4868 21.7809 17.5961C21.7277 17.5345 21.3622 17.173 21.3325 17.1672C21.2455 17.1488 20.6886 17.5638 20.4114 17.5711C20.2044 17.577 19.8646 17.4612 19.6744 17.357C19.5483 17.2881 18.9172 16.5982 19.0285 17.0322C19.0777 17.2243 19.373 17.8314 19.4876 17.9993C20.0986 18.896 21.3575 20.1402 22.1154 21.0075C22.4148 21.3499 22.731 21.6872 23.0614 21.9951C23.0459 22.023 23.0924 22.1652 23.0533 22.2033C22.9973 22.2576 22.199 22.391 22.05 22.435C21.9063 22.2099 21.5011 21.468 21.3062 21.3741C21.0561 21.2539 20.2435 21.1395 20.0945 21.4819C19.317 20.6644 18.4985 19.8535 17.7095 19.0675L14.835 21.6285C14.7797 21.5853 14.5916 21.5581 14.4763 21.4687C14.1176 21.1915 13.7676 20.8924 13.419 20.6021C13.4129 20.4364 13.5127 20.4063 13.5997 20.322C14.0339 19.9026 14.5511 19.5038 14.9045 19.025C14.9031 18.7992 14.2268 18.0902 14.0218 17.9964C13.9908 17.9824 13.419 17.9575 13.3516 17.9619C13.5356 17.4707 14.0751 17.2485 14.363 16.8255C14.3846 16.7749 13.9058 16.7632 13.9584 16.2756L16.723 16.7888L16.7237 16.7896Z" fill="#B24C27"/>
<path d="M24.1378 7.18506L24.2571 7.89771L25.6252 10.4088C26.0433 10.2893 26.5072 10.3377 26.667 9.82449C26.7453 9.79736 26.7439 9.84062 26.7675 9.8978C26.8228 10.032 26.6913 10.0804 27.0372 10.0444C27.0453 9.60527 26.9158 9.26874 27.3744 9.09131C27.493 9.28854 27.4715 9.41244 27.5274 9.51215C27.5753 9.59867 27.9913 9.85088 28.079 10.0481C28.1114 10.1214 28.4425 11.5262 28.4505 11.6296C28.4829 12.0291 28.2523 12.4793 28.2456 12.8679C28.2408 13.1619 28.3663 13.2953 28.3838 13.5607L27.8464 13.7103C27.8396 13.6795 27.7392 13.5014 27.7115 13.4904V13.2704C27.8214 13.2792 28.0123 13.2455 27.9806 13.0886C27.9731 13.0504 27.5389 12.5167 27.5086 12.4962C27.3986 12.4214 27.1707 12.6171 27.0372 12.6105C26.9024 12.2835 26.7655 11.8708 26.7675 11.5108H26.8349C26.8262 11.6068 26.8397 11.708 26.8349 11.8041C26.8565 11.8268 27.4148 11.7483 27.4357 11.7241C27.4802 11.6728 27.5787 10.5247 27.6434 10.3377C27.2948 10.2241 27.2044 10.4623 27.0365 10.5569C27.0318 10.5599 26.984 10.4895 26.9455 10.5019C26.7459 10.5679 26.7203 10.8267 26.8343 10.9968C26.6333 11.3121 25.9968 11.2608 25.7554 11.4367C25.4695 10.9367 25.46 11.4199 25.2948 11.7058C25.1404 11.9727 24.8653 12.2806 24.8161 12.5798C24.7938 12.7132 24.7547 12.873 24.9462 12.8298C24.7628 13.1428 24.5801 13.4625 24.4068 13.7829L21.5363 13.2015C21.4622 12.5864 21.4466 11.9602 21.3529 11.348C21.3064 11.046 21.2767 10.6134 21.069 10.4103C21.0043 11.3883 21.098 12.3781 21.2383 13.3423C21.063 13.354 20.7697 13.7521 20.5647 13.7829C20.5431 13.8511 20.8013 13.9222 20.8337 13.9288C20.4669 14.0241 20.4925 13.7873 20.328 13.6355C19.6658 13.0233 19.0354 12.3796 18.4062 11.7293C18.6544 10.9807 19.0967 10.2556 19.148 9.45643C19.7238 9.63019 19.4993 9.73137 19.8519 9.90074C20.0488 9.99532 20.9632 10.293 21.1385 10.2695C21.2707 10.2519 21.7049 9.63533 21.8465 9.56714C22.0704 9.45936 22.45 9.65952 22.5181 9.27754C22.51 9.24455 22.3644 9.12504 22.3178 9.08985C22.5228 9.07445 22.7238 8.91682 22.9024 8.80904C23.0811 8.70126 23.7689 8.29582 23.8498 8.19024C23.9018 8.12206 24.0953 7.35516 24.1384 7.18359L24.1378 7.18506ZM25.2847 10.9235C25.3056 10.7417 25.2072 10.6097 25.1364 10.4623C25.0197 10.2189 24.0757 8.53777 23.9611 8.5143C23.7332 8.46665 23.4716 8.93515 23.3259 9.05099C23.1546 9.18736 22.7177 9.37578 22.6064 9.48283C22.5835 9.50482 22.5896 9.59354 22.5599 9.64559C22.5404 9.67932 22.4567 9.68518 22.4513 9.72771C22.4412 9.80249 22.6577 10.5159 22.7076 10.6104C22.8633 10.9037 22.9753 10.7028 23.2254 10.7006C23.5896 10.6977 24.102 10.6574 24.4432 10.7028C24.8013 10.7505 24.9199 11.087 25.2847 10.9235Z" fill="#D4812F"/>
<path d="M25.6905 1.24629C25.8408 1.22063 25.9042 1.42665 26.0074 1.45524C26.0883 1.47797 26.4248 1.37973 26.6035 1.38852C27.5178 1.43178 28.4227 1.64734 29.3134 1.85262L30.1111 3.51473C30.3229 3.59025 30.4813 3.96783 30.5467 4.03162C30.8515 4.32708 30.4914 3.38936 30.4753 3.33803C30.4449 3.24272 30.3512 3.06896 30.478 3.00591C30.6472 3.42308 30.9034 3.9341 30.8825 4.39894C30.3687 4.14379 29.7625 3.93337 29.1968 3.88571C29.184 3.74348 29.2467 3.41722 29.1341 3.3307C29.0471 3.26398 27.8091 3.21633 27.5104 3.11662C26.9318 2.92526 26.2677 2.27053 25.6237 2.12463C25.6642 1.97213 25.9359 1.99119 25.8927 1.75878H23.9036C23.7202 1.75878 23.1349 2.23901 22.8584 2.19941L23.4646 2.67598L23.263 2.93112L24.88 3.29844C24.9015 3.11735 25.234 2.25954 25.3756 2.28153C25.9656 2.67818 26.6041 2.99344 27.1948 3.38642C27.3546 3.49273 27.7019 3.86005 27.7814 3.88498V4.10493C27.7814 4.22737 27.7801 4.34908 27.7814 4.47152C27.7841 4.7208 27.745 5.14751 27.886 5.34766C28.0269 5.54782 28.8961 5.9232 28.9952 6.19521C28.7693 6.28026 28.8509 6.90126 28.8603 7.18426C28.8637 7.28251 28.9183 7.41888 28.9277 7.55085V7.62417C28.9372 7.79353 28.921 7.96729 28.9277 8.13739C28.9062 8.13226 28.8812 8.14325 28.8603 8.13739C28.8482 8.13372 28.7497 8.2239 28.6398 8.14325C28.565 8.08827 28.54 7.95116 28.4598 7.87784C27.8347 7.31037 27.1678 6.79421 26.5623 6.19888C26.4052 5.97233 26.7147 5.43638 26.5003 5.05733C26.3742 4.83517 25.7444 4.72813 25.4915 4.69367L25.354 5.42391C24.9589 5.43418 24.5448 5.22669 24.1403 5.27801C24.1234 5.29047 24.1895 5.38212 24.2077 5.42391C24.3756 5.81689 24.3277 5.91221 24.41 6.2304H24.3425C24.3372 6.17102 24.2664 5.85355 24.1409 5.93713C24.1038 5.98772 24.1207 6.61899 23.9386 6.67031C24.0809 6.20034 23.1787 5.96793 23.0755 5.77584C23.0027 5.64093 23.0978 5.11085 23.0614 4.91069C23.1794 4.97741 23.3999 5.1805 23.4457 5.19296C23.5563 5.22302 23.6952 5.10791 23.8321 5.12918C23.9339 5.14457 24.0196 5.28388 24.0971 5.27068C24.1443 5.26261 24.733 4.59323 24.7471 4.54484C24.8314 4.65261 25.4625 4.64675 25.4882 4.61742C25.5138 4.58809 25.5502 3.92824 25.5563 3.81166C25.3385 3.74861 25.1079 3.88645 24.9224 3.89158C24.8591 3.89305 24.9083 3.55505 24.7471 3.88498C24.7431 3.81166 24.766 3.61957 24.7438 3.59538C24.6494 3.492 22.4383 3.15181 22.118 3.00444L22.7242 2.7493C22.4464 2.60559 22.1275 2.38857 21.8477 2.27273C21.9495 2.14736 22.0027 2.00292 21.9825 1.83283C22.4734 1.86509 23.0472 1.32694 23.5037 1.25069C24.0647 1.15684 24.8206 1.40612 25.383 1.38779C25.4578 1.38559 25.6682 1.31154 25.6911 1.24629H25.6905ZM25.8927 3.00591C25.915 2.86734 25.8139 2.76176 25.6911 2.78669L25.8927 3.00591ZM26.5664 3.88571C26.65 3.43481 26.2569 3.25592 25.9932 3.00737L26.5664 3.88571ZM30.714 4.10567V4.17898C30.7578 4.15479 30.7578 4.12986 30.714 4.10567Z" fill="#F6B147"/>
<path d="M21.3728 23.6082C21.8461 24.1954 22.5582 23.8237 23.1893 24.2358C23.3505 24.3413 23.3478 24.5598 23.4645 24.6698C23.6148 24.8106 24.2015 25.0613 24.426 25.2197C24.5244 25.2893 24.4381 25.4514 24.542 25.5151C24.3538 26.5584 24.1529 29.4574 23.6654 30.1708C23.5649 30.3182 23.2696 30.6246 23.126 30.7207C22.9136 30.2756 22.5535 29.8863 22.246 29.5146L20.4288 29.0344C20.3991 28.2931 20.5973 27.0995 20.6985 26.3216C20.714 26.2007 20.8098 25.9778 20.8334 25.8084C21.1159 25.8817 21.4092 25.1735 21.4368 24.9601C21.4645 24.7468 21.4935 23.798 21.1031 23.9022C21.1172 23.8142 21.0936 23.702 21.1031 23.6089C21.1725 23.6221 21.2959 23.6148 21.3728 23.6089V23.6082Z" fill="#DA6527"/>
<path d="M10.1125 17.0829L12.6074 18.3293C12.7821 18.4862 12.7564 18.8836 12.8097 19.1358C12.6843 19.212 12.749 19.399 12.7612 19.517C12.7955 19.855 12.84 20.1879 12.8097 20.5288L7.58459 17.962C7.54009 18.0338 7.6709 18.201 7.71069 18.2648C8.09773 18.8872 8.59671 19.5977 8.92914 20.2399C8.99117 20.3595 9.04916 20.454 9.03433 20.6021C8.78619 20.4775 8.33508 20.3617 8.09031 20.2355C7.91028 20.1424 7.66214 20.0391 7.48345 19.9423C7.39444 19.8939 7.08831 19.7069 6.98784 19.638C6.78892 19.5031 6.02899 18.4085 6 18.1827C6.09238 18.1922 6.58596 18.0595 6.60754 18.0353C6.62642 18.0133 6.5536 17.8667 6.56169 17.7911C6.61496 17.2845 6.77342 17.5441 6.97638 17.5235C7.08966 17.5118 7.14226 17.3747 7.24745 17.3732C7.30004 17.3732 7.24407 17.547 7.37286 17.5162C7.60347 17.4612 7.94804 17.0836 8.2926 16.9715C8.46859 16.9143 8.63919 16.9597 8.81653 16.8813C8.94195 16.8256 9.02084 16.6489 9.03567 16.643C9.21504 16.5741 9.86169 17.1188 10.1145 17.0829H10.1125Z" fill="#DA6527"/>
<path d="M16.116 13.5637C16.1241 13.5549 16.1956 13.5769 16.2293 13.5424C16.3142 13.4559 16.3439 13.2 16.5165 13.3048L18.2373 15.0322C18.5617 15.0931 18.7356 15.2705 18.9642 15.4186C19.2987 15.6356 20.3391 16.412 20.6021 16.4942C20.7531 16.5411 20.7248 16.2903 20.6864 16.2177C20.6398 16.1298 19.8449 15.6943 19.6898 15.6151C19.5974 15.4699 20.3998 14.7301 20.4254 14.5454C20.4564 14.3188 20.1584 14.3995 20.0937 14.3701C20.0289 14.3408 19.9892 14.1238 19.9588 14.0769C20.1051 14.1715 20.5535 14.1986 20.6196 14.2389C20.7268 14.3034 21.1651 14.791 21.42 14.9442C21.5596 15.0278 22.0572 15.1994 22.0876 15.2456C22.2474 15.4912 21.4112 16.0726 21.3748 16.3849C21.3843 16.4318 22.0633 16.8527 22.1847 16.7163C22.182 16.8974 22.3101 16.8996 22.1847 17.1562C22.2238 16.9583 22.0916 17.0154 21.9844 16.9744C21.7619 16.8893 20.8961 16.5638 20.7302 16.5748C20.507 16.5895 20.3688 17.0932 20.2858 17.1452C20.0977 17.264 18.7012 16.1246 18.3729 16.0579C18.1949 16.0623 17.3183 17.2046 17.0823 17.2918C16.8928 17.3615 16.7977 16.9876 16.7229 16.7896C16.7033 16.7383 16.7741 16.599 16.6797 16.566L14.228 16.129C14.1956 15.6092 14.7256 15.8563 15.0054 15.618C15.0877 15.5484 15.8011 14.6854 15.8996 14.541C15.9771 14.4281 16.0843 14.3225 16.114 14.1839C16.1356 14.0835 16.1828 13.7983 15.9811 13.8569C16.0041 13.8313 16.0412 13.6487 16.116 13.5637Z" fill="#D4812F"/>
<path d="M24.4094 13.7837C25.6015 13.4619 26.4275 12.8416 26.7694 11.5109C26.7674 11.8709 26.9042 12.2837 27.0391 12.6107C27.1598 12.9032 27.3776 13.2434 27.7134 13.2705V13.4905C27.3547 13.3475 26.7485 13.5015 26.3655 13.3438L26.4997 14.5169C26.4943 14.522 26.5165 14.6305 26.4545 14.6665C26.0823 14.8806 25.7195 15.099 25.3534 15.3234C25.3534 15.2105 25.2017 14.5264 25.1585 14.3974C25.1396 14.3402 25.1693 14.2478 25.0513 14.2984C24.9683 14.3336 24.4417 14.816 24.3413 14.9194C24.1329 15.1335 23.7506 15.7831 23.5051 15.7655C23.3453 15.7538 23.255 15.5565 23.0635 15.6511C22.9522 15.7054 22.1869 16.5881 22.1842 16.7172C22.0635 16.8528 21.3838 16.432 21.3744 16.3858C21.4108 16.0734 22.2476 15.492 22.0871 15.2464C22.0567 15.2002 21.5598 15.0287 21.4195 14.9451C21.1646 14.7918 20.7264 14.3043 20.6191 14.2398C20.5531 14.1994 20.1047 14.1723 19.9583 14.0777C19.7662 13.7793 19.3373 13.4032 19.2166 13.1979C19.1795 13.1341 19.3218 12.9054 19.0143 12.978L18.0703 12.0248C18.1155 11.9677 18.0926 11.7822 18.2726 11.7316C18.3097 11.7213 18.365 11.7389 18.4075 11.7316C19.0366 12.3819 19.667 13.0256 20.3292 13.6378C20.4931 13.7896 20.4681 14.0264 20.8349 13.9311C20.9347 13.9516 21.0676 13.915 21.1721 13.9311C22.019 14.0638 22.8726 14.132 23.7175 14.283C23.9003 14.286 23.8773 14.0697 23.8692 13.9318C23.0102 13.8834 22.2037 13.6107 21.3744 13.4179C21.3339 13.4083 21.2692 13.3424 21.2395 13.3446C21.0992 12.3797 21.0062 11.3907 21.0702 10.4126C21.2779 10.615 21.3083 11.0483 21.3541 11.3503C21.4479 11.9625 21.4634 12.5887 21.5375 13.2038L24.408 13.7852L24.4094 13.7837Z" fill="#B24C27"/>
<path d="M21.7805 17.5961C21.796 17.6137 21.8055 17.7362 21.8769 17.8183C22.6045 18.6534 23.3112 19.5156 24.0731 20.3089C23.8398 20.6212 23.2795 21.6117 23.0617 21.9952C22.7319 21.6872 22.4157 21.35 22.1156 21.0076C21.3577 20.1403 20.0988 18.8961 19.4879 17.9994C19.3733 17.8308 19.0779 17.2237 19.0287 17.0323C18.9175 16.5983 19.5486 17.2882 19.6747 17.3571C19.8648 17.4612 20.2047 17.5771 20.4117 17.5712C20.6882 17.5639 21.2451 17.1489 21.3328 17.1672C21.3618 17.1731 21.7279 17.5346 21.7812 17.5961H21.7805Z" fill="#DA6527"/>
<path d="M23.0593 4.91222C23.0958 5.11238 23.0007 5.64246 23.0735 5.77737C23.1767 5.96873 24.0789 6.20114 23.9366 6.67184C24.1187 6.62125 24.1011 5.98925 24.1389 5.93867C24.2643 5.85508 24.3351 6.17255 24.3405 6.23193C24.3466 6.29572 24.3472 6.38957 24.3405 6.45189C24.3405 6.45702 24.2798 6.48195 24.2731 6.5252C24.2367 6.74882 24.1935 6.96657 24.1382 7.18506C24.0951 7.35662 23.9015 8.12279 23.8496 8.19171C23.7694 8.29728 23.0735 8.70786 22.9022 8.81051C22.731 8.91315 22.5226 9.07518 22.3176 9.09131C22.1275 8.94761 20.5597 8.17191 20.3622 8.13819C20.1956 7.82365 19.791 7.58171 19.6306 7.28404C19.4532 6.95704 19.3386 6.20334 19.1484 5.93867C19.1646 5.79496 19.1154 5.3118 19.3507 5.35286C19.1727 5.83162 19.3541 5.71285 19.5031 5.9548C19.8787 6.56186 19.938 7.12274 20.497 7.62496C20.7364 7.83978 22.1524 8.72399 22.3851 8.72473C22.6932 8.72473 23.2192 8.13305 23.5577 8.07073C23.6244 8.06487 23.6116 7.91897 23.5968 7.88377C23.5664 7.81046 22.4619 7.27744 22.3169 7.25911C22.2947 7.25618 22.2718 7.26131 22.2495 7.25911C22.2826 7.10221 22.1673 7.10295 22.087 7.03623C21.905 6.88446 20.8665 6.02225 20.8443 5.89248L21.5078 4.32642C21.853 4.33082 22.735 4.73039 23.0587 4.91295L23.0593 4.91222Z" fill="#F6E471"/>
<path d="M29.601 14.7368C29.8559 14.8556 29.7999 15.3967 30.0049 15.5074C30.1883 15.6064 30.4499 15.4971 30.6333 15.5448C30.6778 15.5565 30.6671 15.6496 30.7338 15.6855C30.7824 15.7119 30.8983 15.6643 30.9408 15.698C30.9873 15.7354 31.1316 16.7633 31.1526 16.9356C31.0332 16.9928 30.8956 17.0038 30.8195 17.0492C30.5922 17.1841 30.5066 17.5309 30.1715 17.5911C29.6394 17.6856 29.5707 17.421 29.2342 17.3726C28.6287 17.2853 27.6813 17.6123 27.0893 17.5045C26.7683 17.4459 26.4568 17.1783 26.1628 17.0463C25.9955 16.9715 25.6099 16.9495 25.5053 16.844C25.4723 16.811 25.1574 16.0008 25.1534 15.9414C25.1372 15.6738 25.3206 15.5242 25.3536 15.3959C25.5175 15.5352 25.5262 15.7838 25.6092 15.9634C25.6328 16.014 25.6152 16.1057 25.7231 16.0551C25.8486 15.9957 26.3415 15.5338 26.5343 15.3945C26.6152 15.3358 26.6746 15.1943 26.7022 15.176C26.7184 15.165 26.7521 15.1863 26.7696 15.176C27.1445 15.6086 26.5512 15.6833 26.4649 15.8344C26.3104 16.1064 26.7669 17.0434 26.949 17.2905C27.0596 17.3315 28.1196 17.2611 28.1769 17.2193C28.3138 17.1196 28.3643 16.3542 28.4068 16.1863C28.4385 16.0609 28.5572 15.8901 28.5902 15.7625C28.7109 15.7867 28.9651 15.7171 29.0514 15.7743C29.2585 15.9121 29.4243 17.3887 30.073 17.0815C29.9752 16.635 29.4318 16.0265 29.3987 15.6159C29.3846 15.4414 29.5383 14.9282 29.601 14.7361V14.7368Z" fill="#B24C27"/>
<path d="M24.4107 20.0889L23.197 22.5076C23.3406 22.5296 23.4168 22.383 23.4944 22.2818C23.9434 21.6982 24.261 20.8748 24.7479 20.3088C24.9185 20.6886 25.4316 22.2239 25.4222 22.5817H23.6016C23.4815 22.7092 24.0082 23.2151 24.1053 23.317C24.29 23.5113 24.5827 23.8009 24.7789 23.9776C24.8787 24.0678 24.932 24.1484 25.085 24.1213C25.0365 24.4263 25.2185 24.4798 24.8827 24.6345C24.8807 24.4894 24.8005 24.4293 24.7135 24.342C24.4869 24.1162 23.64 23.3317 23.404 23.273C23.2658 23.2386 23.1774 23.2378 23.0379 23.2481C22.5281 23.2877 21.8963 23.5685 21.3764 23.6074C21.2995 23.6132 21.1761 23.6206 21.1067 23.6074C20.9637 23.5802 20.7709 23.3552 20.7695 23.2027C20.7689 23.1381 21.1444 22.6674 21.1741 22.6542C21.2914 22.6044 21.8349 22.4973 22.0507 22.4343C22.1997 22.3903 22.9981 22.2569 23.054 22.2026C23.0932 22.1645 23.0466 22.0215 23.0621 21.9944C23.2799 21.6109 23.8403 20.6204 24.0736 20.3081C24.1464 20.2106 24.2968 20.1299 24.4107 20.0881V20.0889Z" fill="#D4812F"/>
<path d="M12.8121 20.5288C12.7919 20.7538 12.7171 20.8631 12.6773 21.042C12.5411 21.0926 12.5546 20.9115 12.4959 20.8968C12.2619 20.8404 11.3348 20.7326 11.1089 20.7656C11.0044 20.781 10.6254 20.9621 10.5634 21.0339C10.4514 21.163 10.6227 21.3836 10.3854 21.3345C9.91941 21.1109 9.49124 20.8294 9.03676 20.6013C9.0516 20.454 8.99361 20.3594 8.93157 20.2392C8.59915 19.5969 8.10017 18.8872 7.71312 18.264C7.67334 18.2002 7.5432 18.0323 7.58703 17.9612L12.8121 20.528V20.5288Z" fill="#B24C27"/>
<path d="M18.0715 5.93868C18.1309 6.17256 18.1161 7.01865 18.2199 7.16968C18.2604 7.22833 19.2104 7.58099 19.2185 7.44095C19.1511 7.04871 18.8113 6.54282 19.0156 6.15863C19.1012 6.66012 19.6582 7.96371 20.0971 8.17706C20.2104 8.23205 20.3095 8.12867 20.3642 8.1382C20.5617 8.17193 22.1295 8.94763 22.3196 9.09133C22.3661 9.12652 22.5125 9.24603 22.5199 9.27902C22.4518 9.66174 22.0721 9.46085 21.8483 9.56862C21.7067 9.63681 21.2724 10.2534 21.1403 10.271C20.9649 10.2945 20.0506 9.9968 19.8537 9.90222C19.5011 9.73212 19.7256 9.63168 19.1497 9.45792C19.0938 9.44105 19.0054 9.34867 18.9475 9.31128C19.1551 8.92197 19.2988 8.48059 19.6878 8.24818C19.6899 8.1646 18.3696 7.60152 18.2732 7.62498C18.2051 7.64184 18.2388 7.80168 18.139 7.77088C18.0742 7.42922 17.9859 7.0905 17.936 6.74517C17.9326 6.72171 17.9394 6.69605 17.936 6.67186C17.9185 6.54208 17.8693 6.46363 17.8686 6.4519C17.8591 6.33166 17.8538 6.12637 17.8686 6.012C17.872 5.98634 17.8625 5.95701 17.8686 5.93868C17.8699 5.93355 17.9313 5.8661 17.936 5.86536C17.9771 5.85657 18.0614 5.90202 18.0709 5.93868H18.0715Z" fill="#B24C27"/>
<path d="M21.5105 4.32564L20.847 5.8917C20.8693 6.02221 21.9077 6.88442 22.0897 7.03545C22.17 7.10217 22.2853 7.10217 22.2522 7.25834L20.4991 7.62492C19.9401 7.12197 19.8807 6.56182 19.5052 5.95475C19.3555 5.71281 19.1748 5.83158 19.3528 5.35282C19.1174 5.31176 19.1673 5.79492 19.1505 5.93862C19.1316 5.91223 19.0493 5.89463 19.0156 5.86531V5.71867C19.05 5.68861 19.2402 4.92831 19.2867 4.80294C19.2867 4.78754 19.0608 4.70689 19.0156 4.69223C19.3784 4.77654 19.4708 4.27945 19.7938 4.25526C20.0284 4.23766 20.4168 4.43562 20.6778 4.44515C20.9387 4.45468 21.2455 4.32271 21.5105 4.32564Z" fill="#F6B147"/>
<path d="M10.1124 17.0829C9.85951 17.1188 9.21286 16.574 9.0335 16.643V16.5696C9.15487 16.5015 8.8656 16.2668 8.77996 16.2221L5.19069 15.1766C5.07606 15.3188 5.66944 15.7705 5.46445 15.9494L2.96484 17.6694C3.09498 16.9238 3.09363 17.2222 3.43415 16.6767C3.51979 16.5388 3.59396 16.3622 3.63914 16.2031C3.65667 16.1928 3.68971 16.2133 3.70657 16.2031L3.774 16.1297C3.88795 16.0586 4.52988 15.6598 4.55416 15.6187C4.62496 15.4985 4.51707 15.3951 4.44829 15.3232C4.76993 15.1612 5.11045 14.7132 5.45973 14.6634C5.55481 14.6502 5.64854 14.6693 5.74294 14.6825C6.68695 14.8115 7.77998 15.2983 8.74422 15.4545L10.1124 17.0829Z" fill="#F6B147"/>
<path d="M16.4531 5.71875C16.5051 5.75688 16.5455 5.74514 16.5738 5.84119C16.6251 6.01422 16.7491 7.06119 16.7094 7.20636C16.6258 7.50916 15.47 7.99306 16.2508 8.13896C16.3398 8.27606 15.6318 9.28784 15.5765 9.53125C15.4424 9.4484 15.3116 9.38242 15.172 9.3113C14.907 9.17566 14.5051 9.06129 14.3271 8.94691C14.0951 8.79661 13.7883 8.2504 13.6211 7.99159C13.9515 7.9234 14.2522 7.29507 14.4977 7.11178C14.648 6.9996 14.7607 7.13011 14.9178 7.09858C15.5624 6.96954 16.5415 6.60442 16.4531 5.71875Z" fill="#D4812F"/>
<path d="M28.7926 14.5168C29.0117 14.4919 28.9173 14.5777 28.8742 14.7148C28.7467 15.1151 28.6901 15.3805 28.5903 15.7632C28.5573 15.8915 28.4386 16.0616 28.4069 16.187C28.3651 16.3549 28.3138 17.1203 28.177 17.22C28.1196 17.2618 27.0596 17.3322 26.9491 17.2911C26.7677 17.0441 26.3105 16.1071 26.4649 15.8351C26.5506 15.684 27.1439 15.6092 26.7697 15.1767C26.9504 15.0667 27.9929 14.6642 28.0407 14.5799C28.1021 14.4728 28.0077 14.2052 27.9834 14.0769C28.3152 14.1356 28.1277 14.67 28.7926 14.5168Z" fill="#DA6527"/>
<path d="M16.1144 5.49886C16.1987 5.61836 16.37 5.65869 16.4516 5.71881C16.5399 6.60448 15.5608 6.9696 14.9162 7.09864C14.7591 7.13017 14.6458 6.99966 14.4961 7.11184C14.5089 6.91315 14.3882 6.93074 14.2803 6.86989C13.4051 6.37353 12.1523 5.68142 11.2595 5.2789C11.2325 4.96144 11.1873 4.76935 11.3269 4.47241C12.5973 5.06702 13.8124 5.77233 15.0146 6.51577C15.0861 6.52823 16.0389 5.6147 16.1144 5.49886Z" fill="#F6B147"/>
<path d="M24.4745 6.37857C24.5737 6.63151 25.0382 7.26204 25.2169 7.51425C25.3707 7.73127 25.9674 8.34347 25.9479 8.52237C25.9364 8.62868 25.8373 8.75332 25.8353 8.84936C25.8299 9.07005 26.3794 9.4381 26.5979 9.38605L26.6323 9.16463C26.7152 9.05759 26.9849 9.79662 26.7665 9.8978C26.7429 9.84135 26.7442 9.79736 26.666 9.82448C26.5062 10.3377 26.0423 10.2893 25.6242 10.4088L24.2561 7.8977L24.1367 7.18506C24.192 6.96657 24.2352 6.74882 24.2716 6.5252L24.339 6.45189C24.3458 6.38957 24.3451 6.29572 24.339 6.23193H24.4064C24.4118 6.2532 24.455 6.32945 24.4739 6.37857H24.4745Z" fill="#DA6527"/>
<path d="M18.544 4.5456C18.3256 4.55806 18.1138 4.96424 18.0855 5.18859C18.0478 5.48993 18.1954 5.65929 18.2069 5.93863C18.1658 5.93057 18.1152 5.94376 18.072 5.93863C18.0626 5.90197 17.9783 5.85651 17.9372 5.86531L17.8697 5.93863C17.8637 5.95696 17.8731 5.98629 17.8697 6.01195C17.7693 5.77147 17.7686 5.27731 17.8057 5.02583C17.8772 4.5478 18.2413 4.6981 17.5528 4.19368C16.5238 4.17975 15.4915 4.16215 14.4619 4.17608C13.675 4.18634 12.8685 4.2472 12.0708 4.25233C12.0506 3.86595 12.6554 3.78603 12.88 3.59247C14.4625 3.57928 16.0471 3.59907 17.6304 3.59614C17.8886 3.6482 18.4422 4.26186 18.544 4.5456Z" fill="#F6B147"/>
<path d="M17.3948 12.8306C17.3355 12.9156 17.1008 13.302 17.1258 13.3423C17.1332 13.3548 17.2829 13.3702 17.3274 13.4171C17.7501 13.8526 18.0738 14.1642 18.5411 14.5902C18.5532 14.6012 18.5822 14.7698 18.7097 14.8827C18.854 15.0103 19.2707 15.3593 19.442 15.3292C19.4959 15.3197 20.0225 14.5103 20.092 14.3702C20.1567 14.3996 20.4547 14.3189 20.4237 14.5455C20.3981 14.7302 19.5957 15.4707 19.6881 15.6152C19.8432 15.6943 20.6382 16.1298 20.6847 16.2178C20.7231 16.2904 20.7514 16.5412 20.6004 16.4942C20.3374 16.4121 19.297 15.6364 18.9625 15.4187C18.7339 15.2698 18.56 15.0931 18.2356 15.0323L16.5148 13.3049C16.3422 13.2001 16.3126 13.4552 16.2276 13.5425C16.1939 13.5769 16.1224 13.5549 16.1143 13.5637C15.1588 13.7852 14.1791 13.8497 13.2148 14.0036C13.2883 13.5667 13.817 13.7016 14.024 13.3438C14.0698 13.3379 14.1717 13.2866 14.2937 13.2705L14.3295 13.3445L14.4286 13.2705C14.552 13.2536 14.7779 13.1568 14.9431 13.1334C15.7576 13.0175 16.5809 12.9435 17.3955 12.8306H17.3948Z" fill="#F6B147"/>
<path d="M3.30183 17.8894C4.11301 18.0096 4.93025 18.2113 5.72929 18.4034C5.78526 18.6299 5.25796 18.8587 5.25864 18.9525C5.43126 19.1299 5.58634 19.3301 5.76503 19.5002C5.87966 19.6087 6.57823 20.2011 6.6551 20.2238C6.83379 20.2766 7.3031 20.0464 7.48246 19.9416C7.66115 20.0383 7.90929 20.1417 8.08932 20.2348C7.78589 20.3426 6.82839 20.9203 6.57621 20.8954C6.46495 20.8844 5.69625 20.2238 5.527 20.0882C5.42181 20.0039 5.30179 20.0039 5.18514 19.9093C4.90396 19.6827 4.68751 19.2641 4.44813 18.9884C4.51893 18.9261 4.6457 18.7135 4.71785 18.6226C4.34699 18.6042 3.97073 18.6438 3.59987 18.6248C3.51289 18.6204 3.44681 18.5493 3.43669 18.5485C3.58504 18.3924 3.17574 18.1929 3.30183 17.8887V17.8894ZM3.80755 18.4759V18.5493C3.85138 18.5251 3.85138 18.5001 3.80755 18.4759Z" fill="#F6B147"/>
<path d="M24.8125 5.49884C25.0296 5.52523 25.3661 5.64914 25.5724 5.62934C25.8185 5.60588 26.2366 5.28622 26.4976 5.20557L26.2447 5.49517C26.1436 5.57362 25.8199 5.6506 25.9217 5.86469L28.2514 7.99163C26.772 8.19692 25.008 7.19833 24.8125 5.49884Z" fill="#B24C27"/>
<path d="M23.1269 30.72C22.0837 31.418 20.6333 30.7464 20.4459 29.4171C20.4263 29.28 20.4351 29.1649 20.4297 29.0337L22.2469 29.5139C22.5544 29.8849 22.9151 30.275 23.1269 30.72Z" fill="#B24C27"/>
<path d="M15.9791 13.857C16.1807 13.7983 16.1335 14.0835 16.1119 14.184C16.0823 14.3233 15.9744 14.4281 15.8975 14.541C15.7991 14.6855 15.0857 15.5484 15.0034 15.6181C14.7229 15.8564 14.1936 15.6093 14.2259 16.1291L16.6777 16.5661C16.7721 16.5991 16.7013 16.7384 16.7208 16.7897L13.9562 16.2765C13.9771 16.0836 14.089 16.0558 14.1585 15.9106C13.9326 15.9348 13.6831 15.7984 13.4842 15.7632L13.5375 15.6694L13.0122 15.0301C13.1889 14.9406 13.1929 14.8922 13.1471 14.7368C13.1012 14.5814 13.0041 14.4633 13.0122 14.2969C13.0223 14.302 13.0614 14.2998 13.0796 14.2969C13.1241 14.2896 13.1403 14.272 13.1471 14.2236C13.5044 14.1906 14.0931 14.5777 14.4956 14.5176L13.5523 15.2493L14.526 15.3981C15.0189 14.9516 15.5239 14.3753 15.9798 13.857H15.9791Z" fill="#F6B147"/>
<path d="M14.9032 10.411C14.8223 10.727 14.7171 11.0049 14.4973 11.2527C14.0421 11.3114 13.6888 11.6867 13.2174 11.5108C13.4042 11.4169 13.3914 11.271 13.2889 11.1024L12.2734 10.1911C12.2734 9.90806 12.68 9.28267 12.8803 9.09131C12.8803 9.33912 13.3901 9.89927 13.56 10.0019C13.8992 10.2065 14.5438 10.1207 14.9032 10.411Z" fill="#DA6527"/>
<path d="M13.3512 17.9627C13.4187 17.9583 13.9905 17.9832 14.0215 17.9971C14.2265 18.091 14.9028 18.7992 14.9041 19.0258C14.5501 19.5045 14.0329 19.9026 13.5994 20.3228C13.5124 20.4071 13.4126 20.4364 13.4187 20.6028H13.3512C13.3957 20.0024 13.0019 19.0052 12.9608 18.341C12.9507 18.1812 12.952 18.1907 13.0815 18.11C13.1004 18.1064 13.1928 17.9744 13.3512 17.9634V17.9627Z" fill="#DA6527"/>
<path d="M24.8813 24.6347C24.8496 24.6494 24.7869 24.6296 24.7451 24.6684C24.6669 24.7418 24.5752 25.343 24.5442 25.5145C24.4403 25.4507 24.5267 25.2887 24.4282 25.219C24.2037 25.0607 23.617 24.8107 23.4667 24.6692C23.35 24.5599 23.352 24.3407 23.1915 24.2351C22.5604 23.8224 21.8484 24.1948 21.375 23.6075C21.8956 23.5687 22.5267 23.2879 23.0365 23.2483C23.176 23.2373 23.2644 23.2387 23.4026 23.2732C23.6386 23.3319 24.4848 24.1164 24.7121 24.3422C24.7991 24.4287 24.8793 24.4888 24.8813 24.6347Z" fill="#B24C27"/>
<path d="M17.8672 24.488L20.2272 24.6347C20.2319 24.7366 20.2468 24.7747 20.1814 24.8576C20.0202 25.0606 19.5084 25.3092 19.3506 25.5871L20.8341 25.6611C20.8273 25.708 20.8408 25.7608 20.8341 25.8077C20.8105 25.9771 20.7147 26.2 20.6992 26.321C20.2319 26.1641 19.644 26.2506 19.1841 26.1707C19.0722 26.1516 19.0014 26.0416 18.9461 26.0277C18.9548 25.8136 18.6339 25.5533 18.4741 25.5145L18.7431 25.2219C18.555 25.2967 18.3183 25.1582 18.2043 25.1479C18.2333 24.9815 18.0708 24.9844 17.9859 24.8363C17.9232 24.7278 17.8996 24.6083 17.8672 24.488Z" fill="#F6B147"/>
<path d="M11.3292 3.59241L11.1943 4.25227C11.172 4.25227 11.1491 4.2508 11.1269 4.25227C11.0635 4.25594 10.9239 4.22074 10.9239 4.28893C10.9435 4.37251 11.0776 4.30286 11.1269 4.32559C11.197 4.35785 11.2617 4.4407 11.3292 4.47222C11.1896 4.76916 11.2348 4.96125 11.2617 5.27871C10.3649 4.874 9.35077 5.13575 8.42969 4.87547L10.4505 3.62687C10.7391 3.55722 11.0372 3.59975 11.3292 3.59241Z" fill="#DA6527"/>
<path d="M30.4768 3.00602C30.3501 3.06907 30.4438 3.24284 30.4741 3.33815C30.4903 3.38947 30.8504 4.3272 30.5456 4.03173C30.4802 3.96794 30.3211 3.59036 30.11 3.51484L29.3123 1.85274C28.4209 1.64745 27.5167 1.4319 26.6023 1.38864C26.4237 1.37984 26.0872 1.47809 26.0063 1.45536C25.9031 1.42676 25.8397 1.22074 25.6893 1.2464C25.7055 1.19875 25.6705 1.04405 25.6893 1.02645C25.7918 0.928207 28.0763 1.13423 28.4108 1.18408C28.6879 1.22514 29.4027 1.31606 29.6178 1.41137C29.8565 1.51695 30.3514 2.69735 30.4768 3.00675V3.00602Z" fill="#F6E471"/>
<path d="M31.6925 15.03C31.76 15.6458 31.5503 16.302 31.3554 16.8629C31.2644 16.912 31.2023 16.9127 31.1531 16.9362C31.1322 16.7646 30.9879 15.736 30.9414 15.6986C30.8989 15.6649 30.7829 15.7118 30.7344 15.6861C30.6676 15.6495 30.6784 15.5564 30.6339 15.5454C30.4505 15.4977 30.1895 15.607 30.0055 15.508C29.8005 15.3973 29.8564 14.8555 29.6016 14.7374C29.6184 14.6868 29.6501 14.6406 29.669 14.5908C30.0426 14.7961 30.3392 14.4955 30.613 14.4441C31.0257 14.3664 31.6359 14.5153 31.6919 15.0307L31.6925 15.03Z" fill="#DA6527"/>
<path d="M21.1033 22.5817L17.8667 24.3413C17.8478 24.1594 17.7992 24.0253 17.8667 23.8281C17.9867 23.7921 18.0912 23.7364 18.2038 23.6814C18.6037 23.4849 18.7486 23.2613 18.8781 22.8016C18.897 22.7921 18.9266 22.8111 18.9455 22.8016C19.044 22.7994 19.1188 22.7613 19.1478 22.655C19.1788 22.6396 19.2517 22.6704 19.2827 22.655L19.3501 22.5817C19.7115 22.3991 20.0662 22.1777 20.429 21.9951C20.6259 22.1997 20.8538 22.2297 21.1033 22.5817Z" fill="#F6B147"/>
<path d="M2.62975 18.5493C2.22585 18.5207 2.17393 18.4929 1.81925 18.2942C1.21238 17.954 0.587985 17.4378 0 17.0463C0.279158 16.9591 1.12742 16.7105 1.37421 16.7853C1.51514 16.8286 1.39242 17.4364 1.58257 17.3748C1.83071 17.2949 2.29058 16.9408 2.56165 16.7897C2.3371 17.0735 2.49624 17.2751 2.49961 17.5603C2.50366 17.8961 2.3924 18.2113 2.62907 18.5493H2.62975Z" fill="#DA6527"/>
<path d="M17.1271 23.9746C17.0347 24.3361 17.4164 24.7796 17.4643 25.1477C16.2505 25.0414 15.0422 24.8339 13.8237 24.7804C13.7907 24.5597 13.8736 24.6623 13.9869 24.6323C15.0206 24.3551 16.0873 24.2129 17.1271 23.9746Z" fill="#DA6527"/>
<path d="M12.8129 19.1357C12.8668 19.3916 13.0927 20.8316 13.1507 20.8954C13.2599 21.0149 13.3496 20.6336 13.3523 20.6021H13.4197C13.7683 20.8932 14.1183 21.1916 14.477 21.4687C14.5923 21.5581 14.7811 21.5853 14.8358 21.6285C14.9241 21.6975 15.063 22.0142 15.038 22.1418C14.8034 22.0083 14.4393 21.9739 14.2329 21.8807C14.0293 21.7898 13.322 21.1571 13.1878 21.1894C12.8945 21.7209 12.8479 22.3954 12.4757 22.8742C12.3604 22.8757 12.2842 22.8009 12.2734 22.8009C12.3469 22.4981 12.5432 22.1528 12.5843 21.8441C12.5991 21.7312 12.5418 21.7084 12.5432 21.7011C12.5506 21.6557 12.5364 21.6007 12.5432 21.5545C12.5722 21.347 12.6369 21.2268 12.678 21.0413C12.7191 20.8558 12.7926 20.7531 12.8129 20.528C12.8432 20.1871 12.7987 19.8543 12.7643 19.5163C12.7522 19.399 12.6875 19.2113 12.8129 19.135V19.1357Z" fill="#D4812F"/>
<path d="M15.035 22.1418C15.0215 22.2107 14.981 22.2496 14.9224 22.2731C14.5677 22.3148 14.213 22.6213 13.9062 22.7108C13.5994 22.8002 12.8004 22.8699 12.4727 22.875C12.8442 22.3962 12.8907 21.7217 13.1847 21.1902C13.3189 21.1579 14.0269 21.7899 14.2299 21.8815C14.4369 21.9747 14.8003 22.0091 15.035 22.1425V22.1418Z" fill="#B24C27"/>
<path d="M12.9455 13.417C12.8828 13.6604 12.6138 13.7711 12.5551 14.0556C12.518 14.2337 12.5227 14.4288 12.6084 14.5901C11.8033 14.3877 10.9482 14.2689 10.1506 13.9999C10.0352 13.961 9.88421 13.9317 9.84375 13.7843C10.8815 13.7081 11.9145 13.5512 12.9455 13.417Z" fill="#DA6527"/>
<path d="M13.619 8.43136C13.4693 8.58899 13.2124 8.70923 13.1429 8.90719C13.1429 8.9981 13.8031 9.73421 13.8644 9.74594C13.9959 9.77087 14.2137 9.35956 14.3607 9.31117C14.5435 9.42994 14.942 9.39988 15.1024 9.4578C15.298 9.52892 15.6547 9.99668 15.9116 10.0443C15.6331 10.6118 15.4093 10.3163 14.9676 10.3376C14.6891 9.99229 14.1342 10.0927 13.8247 9.9307C13.77 9.90211 12.9757 9.07509 12.9447 9.0179C12.7343 8.62932 13.1025 8.16009 13.4167 7.99146C13.4524 8.12489 13.5435 8.32652 13.619 8.43136Z" fill="#D4812F"/>
<path d="M16.8554 6.45181C16.8938 6.63584 16.883 6.95697 16.9228 7.11167C16.8277 7.21798 16.8601 7.37561 16.7933 7.52078C16.7212 7.67768 16.4103 7.99294 16.3942 8.11465C16.3813 8.20703 16.7151 8.75618 16.8554 8.79797C16.529 9.07071 16.2357 9.4021 15.9114 9.67778C15.8534 9.64258 15.7219 9.62205 15.5742 9.53114C15.6288 9.28846 16.3375 8.27668 16.2485 8.13884C15.4677 7.99221 16.6241 7.50831 16.707 7.20625C16.7468 7.06108 16.6227 6.01411 16.5715 5.84108C16.5432 5.74503 16.502 5.75676 16.4508 5.71864C16.3692 5.65852 16.1979 5.61819 16.1137 5.49869C16.1177 5.49209 16.1804 5.36012 16.1811 5.35205C16.7772 5.37111 16.7569 5.97818 16.8554 6.45181Z" fill="#DA6527"/>
<path d="M25.4203 22.5818C25.4095 22.9689 25.156 23.6669 25.0832 24.1215C24.9301 24.1486 24.8775 24.0679 24.777 23.9778C24.5808 23.8011 24.2882 23.5115 24.1034 23.3172C24.0063 23.2153 23.4797 22.7094 23.5997 22.5825H25.4203V22.5818Z" fill="#DA6527"/>
<path d="M27.3754 9.0914C26.9168 9.26957 27.0463 9.60536 27.0382 10.0445C26.693 10.0805 26.8245 10.0313 26.7685 9.8979C26.987 9.79672 26.7172 9.05768 26.6343 9.16472L26.5999 9.38614C26.3814 9.4382 25.8312 9.07014 25.8373 8.84946C25.84 8.75341 25.9384 8.62951 25.9499 8.52246C25.9688 8.34357 25.3727 7.73137 25.219 7.51435C25.0396 7.26214 24.575 6.63161 24.4766 6.37866C24.6101 6.38086 24.666 6.46811 24.7456 6.56269C25.0672 6.94761 25.8353 8.13608 26.1239 8.36336C26.2904 8.4946 26.5028 8.38609 26.6997 8.47041C26.8258 8.52466 27.2917 8.95064 27.376 9.0914H27.3754Z" fill="#B24C27"/>
<path d="M22.0492 22.4351C21.8334 22.4982 21.2899 22.6052 21.1726 22.6551C21.1537 22.628 21.1241 22.6082 21.1052 22.5818C20.8557 22.2299 20.6278 22.1998 20.4309 21.9952C20.385 21.9483 20.2118 21.6059 20.0938 21.482C20.2428 21.1396 21.0553 21.254 21.3055 21.3742C21.5003 21.4681 21.9056 22.2101 22.0492 22.4351Z" fill="#DA6527"/>
<path d="M16.9903 6.37866C17.0139 6.57442 17.0719 6.76504 17.0578 6.96593C17.3915 6.93807 17.8082 6.86109 17.8669 6.45198C17.8676 6.46371 17.9168 6.54216 17.9343 6.67193L17.8683 6.70859L17.9343 6.74525C17.9849 7.09057 18.0726 7.4293 18.1373 7.77096C18.2371 7.80175 18.2034 7.64192 18.2715 7.62506C18.3854 7.98065 18.0429 8.35896 17.7496 8.42055C17.5985 8.45208 17.4704 8.34943 17.3949 8.35823C17.4199 7.91466 17.0234 7.49968 16.9229 7.11184C16.8831 6.95714 16.8939 6.63601 16.8555 6.45198L16.9903 6.37866Z" fill="#D4812F"/>
<path d="M30.1405 6.15869C30.0947 6.23274 30.0522 6.30386 30.0057 6.37864C29.7083 6.85447 29.6517 7.23059 29.6099 7.81786C29.5937 8.04515 29.5134 8.46599 29.736 8.57816C29.4447 8.66468 29.1985 8.20498 28.9268 8.13826C28.9201 7.96816 28.9362 7.7944 28.9268 7.62504C28.9255 7.60084 28.9288 7.57592 28.9268 7.55172C28.9174 7.41975 28.8627 7.28338 28.8594 7.18513C29.1331 7.24086 28.9214 6.78116 29.0043 6.68144C29.0367 6.64259 29.239 6.63965 29.3988 6.37864C29.7454 6.48715 29.8573 6.17555 30.1405 6.15869Z" fill="#B24C27"/>
<path d="M3.64016 16.2031C3.59498 16.3622 3.52081 16.5397 3.43517 16.6768C3.09533 17.2222 3.096 16.9231 2.96586 17.6695C2.95642 17.7237 2.87416 17.7992 2.89843 17.8887C3.02857 17.9034 3.17692 17.8704 3.30301 17.8887C3.17692 18.193 3.58621 18.3924 3.43787 18.5485C3.17017 18.5339 2.89573 18.5676 2.62871 18.5485C2.39204 18.2106 2.50329 17.8953 2.49925 17.5595C2.49588 17.2743 2.33674 17.0727 2.56128 16.7889C2.91664 16.591 3.29087 16.4113 3.64016 16.2024V16.2031Z" fill="#D4812F"/>
<path d="M30.2732 4.61893C30.3461 5.02291 30.4108 5.67104 30.2645 6.04129C30.2402 6.10288 30.1559 6.13001 30.1384 6.1586C29.8552 6.17546 29.7432 6.48706 29.3966 6.37855C29.6616 5.94451 29.6987 5.13949 29.7345 4.61893C29.4418 4.69079 29.2456 4.50529 28.9941 4.43417C28.779 4.37332 28.2038 4.38872 28.1836 4.10571C28.6482 4.15777 29.2807 4.311 29.7507 4.41804C29.9354 4.45984 30.0224 4.60427 30.2739 4.61893H30.2732Z" fill="#DA6527"/>
<path d="M26.4995 5.05884C26.7139 5.43716 26.4044 5.97384 26.5615 6.20039C27.167 6.79573 27.8339 7.31188 28.459 7.87936C28.5392 7.95194 28.5641 8.08978 28.639 8.14477C28.7489 8.22541 28.8473 8.13523 28.8595 8.1389C28.9067 8.67705 28.5318 8.01353 28.2526 7.99227L25.9229 5.86533C25.8211 5.65124 26.1448 5.57426 26.2459 5.49581L26.4988 5.20621C26.2385 5.28685 25.8198 5.60652 25.5736 5.62998C25.3673 5.64978 25.0308 5.52587 24.8137 5.49948C24.6155 5.47528 24.395 5.55593 24.2069 5.42616C24.1893 5.38437 24.1226 5.29272 24.1394 5.28026C24.544 5.22893 24.958 5.43642 25.3532 5.42616C25.8022 5.41443 26.0854 5.19887 26.4995 5.05957V5.05884Z" fill="#DA6527"/>
<path d="M19.0141 12.9771C18.4902 13.263 17.8813 13.2388 17.3284 13.417C17.2832 13.3708 17.1342 13.3546 17.1268 13.3422C17.1025 13.3018 17.3365 12.9155 17.3958 12.8304C17.5758 12.5723 17.8705 12.2769 18.0701 12.0239L19.0141 12.9771Z" fill="#DA6527"/>
<path d="M10.3835 21.3353C10.6208 21.3845 10.4502 21.1638 10.5615 21.0347C10.6235 20.9629 11.0032 20.7811 11.107 20.7664C11.3329 20.7334 12.26 20.8412 12.494 20.8976C12.5534 20.9123 12.5399 21.0934 12.6754 21.0428C12.6343 21.2283 12.5696 21.3485 12.5406 21.556C12.4738 21.5604 12.4043 21.5487 12.3383 21.556C12.3403 21.3705 12.256 21.3346 12.1029 21.3295C11.9951 21.3258 11.4125 21.3969 11.3066 21.4241C10.9357 21.5179 11.1953 21.7349 10.6525 21.4827C10.5541 21.4373 10.4684 21.3771 10.3828 21.3361L10.3835 21.3353Z" fill="#DA6527"/>
<path d="M19.0157 4.6923C19.0609 4.70696 19.2861 4.78761 19.2868 4.80301C19.2409 4.92765 19.0508 5.68868 19.0157 5.71874C18.9961 5.73561 18.8916 5.70115 18.8808 5.71874C18.8552 5.75907 18.9051 5.98562 18.8808 6.01348C18.8222 6.0802 18.3333 5.96436 18.2059 5.93943C18.1937 5.66009 18.0461 5.48999 18.0845 5.18939C18.1128 4.96578 18.3252 4.55886 18.543 4.5464C18.5673 4.54493 18.9402 4.66811 19.015 4.69303L19.0157 4.6923Z" fill="#D4812F"/>
<path d="M27.7112 13.4904C27.7388 13.5014 27.8393 13.6795 27.8461 13.7103C27.867 13.8115 27.8312 13.9647 27.8461 14.0769C27.6647 14.1048 26.7483 14.4252 26.5649 14.5168C26.5453 14.5271 26.5103 14.5058 26.4975 14.5168L26.3633 13.3438C26.7463 13.5014 27.3531 13.3474 27.7112 13.4904Z" fill="#DA6527"/>
<path d="M4.45075 18.9893C4.69013 19.2649 4.90725 19.6843 5.18776 19.9101C5.30441 20.004 5.42443 20.0047 5.52962 20.089L3.2377 20.015C3.206 19.8742 3.2849 19.8735 3.35098 19.8089C3.66183 19.501 4.15339 19.2517 4.45143 18.9893H4.45075Z" fill="#D4812F"/>
<path d="M5.46278 14.6634C5.11349 14.7133 4.77298 15.1613 4.45134 15.3233C4.36435 15.2324 4.20117 15.1759 4.11352 15.0674L3.23828 14.0776L5.46278 14.6642V14.6634Z" fill="#DA6527"/>
<path d="M21.8452 2.27275C21.7468 2.2317 21.3672 2.0528 21.3395 2.0528H19.6875L21.1372 1.27344C21.3982 1.30056 21.8372 1.82332 21.9801 1.83285C22.0003 2.00295 21.9471 2.14738 21.8452 2.27275Z" fill="#D4812F"/>
<path d="M12.2731 22.8017C11.5226 22.8105 10.7795 22.7481 10.0479 22.7283L9.98047 22.3618C10.7202 22.4109 11.4855 22.3742 12.2286 22.4387L12.5428 21.7019C12.5414 21.7092 12.5988 21.732 12.5839 21.8449C12.5428 22.1535 12.3466 22.4989 12.2731 22.8017Z" fill="#F6B147"/>
<path d="M12.3388 21.5553C12.0233 21.589 11.7717 21.7613 11.4798 21.831C10.9215 21.9644 10.2485 21.9131 9.77651 22.3618C9.6848 22.3251 9.65446 22.0165 9.57422 21.9219C9.93227 21.7745 10.2782 21.5883 10.6531 21.482C11.1959 21.7342 10.9363 21.5172 11.3072 21.4233C11.413 21.3962 11.9956 21.3251 12.1035 21.3287C12.2566 21.3339 12.3415 21.3698 12.3388 21.5553Z" fill="#F6B147"/>
<path d="M19.1494 9.45791C19.0981 10.2571 18.6558 10.9822 18.4076 11.7308C18.3652 11.7381 18.3099 11.7205 18.2728 11.7308C18.2998 11.5489 18.1534 11.4038 18.1379 11.2469C18.1049 10.9111 18.7563 9.66833 18.9471 9.31128C19.0051 9.34867 19.0934 9.44105 19.1494 9.45791Z" fill="#DA6527"/>
<path d="M26.7002 15.1765C26.6725 15.1949 26.6132 15.3364 26.5323 15.395C26.3394 15.5343 25.8472 15.9962 25.7211 16.0556C25.6132 16.1062 25.6307 16.0146 25.6071 15.964C25.5242 15.7851 25.5161 15.5365 25.3516 15.3965C25.3563 15.3782 25.3516 15.3481 25.3516 15.3232C25.7177 15.0988 26.0805 14.8796 26.4527 14.6662C26.5147 14.6303 26.4918 14.5218 26.4979 14.5167C26.5107 14.5057 26.5457 14.5269 26.5653 14.5167L26.7002 15.1765Z" fill="#D4812F"/>
<path d="M9.5731 21.9219C9.65335 22.0165 9.68369 22.3251 9.77539 22.3618C9.8145 22.3772 9.91767 22.3581 9.97768 22.3618L10.0451 22.7284C9.30541 22.7078 8.56031 22.7438 7.82061 22.7276C7.81252 22.6243 7.97031 22.6081 8.04583 22.5707C8.54413 22.3266 9.06266 22.1323 9.5731 21.9219Z" fill="#DA6527"/>
<path d="M17.3955 8.35821C17.3605 8.36261 16.9411 8.727 16.8561 8.79812C16.7159 8.75632 16.3821 8.20718 16.3949 8.1148C16.4111 7.99309 16.7219 7.67783 16.7941 7.52093C16.8608 7.37576 16.8285 7.21739 16.9235 7.11182C17.024 7.49967 17.4205 7.91464 17.3955 8.35821Z" fill="#B24C27"/>
<path d="M27.9824 14.0769C28.0074 14.2052 28.1011 14.4729 28.0397 14.5799C27.9912 14.6642 26.9494 15.0667 26.7687 15.1767C26.7512 15.187 26.7174 15.1657 26.7013 15.1767L26.5664 14.5168C26.7498 14.4252 27.6662 14.1048 27.8476 14.0769C27.884 14.0711 27.9467 14.0703 27.9824 14.0769Z" fill="#F6E471"/>
<path d="M17.8694 23.8281C17.8019 24.0253 17.8505 24.1595 17.8694 24.3413C17.8707 24.3537 17.837 24.3684 17.8694 24.4879C17.9017 24.6074 17.9253 24.7277 17.988 24.8362C18.073 24.9843 18.2362 24.9806 18.2065 25.1478C17.9631 25.1265 17.7082 25.169 17.4648 25.1478C17.4169 24.7797 17.0353 24.3361 17.1276 23.9747C17.3023 23.9344 17.4702 23.9329 17.5996 23.9014C17.6206 23.8962 17.6475 23.8332 17.6671 23.8281C17.7251 23.8134 17.8147 23.8442 17.8694 23.8281Z" fill="#D4812F"/>
<path d="M14.0227 13.3438C13.8157 13.7015 13.2871 13.5666 13.2136 14.0036C13.0605 14.0278 12.9102 14.1077 12.7416 14.0777V14.1495C12.9102 14.0835 12.9648 14.2734 13.0113 14.2969C13.0032 14.4633 13.101 14.5821 13.1462 14.7368C12.9317 14.8196 12.7355 14.6224 12.6067 14.5901C12.5204 14.4288 12.5164 14.2331 12.5535 14.0557C12.6121 13.7719 12.8812 13.6605 12.9439 13.4171C13.279 13.3738 13.6883 13.3885 14.0227 13.3438Z" fill="#D4812F"/>
<path d="M13.0814 18.1093C12.9512 18.1899 12.9506 18.1804 12.9607 18.3402C13.0025 19.0045 13.3963 20.0016 13.3511 20.602C13.3491 20.6328 13.2594 21.0141 13.1495 20.8953C13.0908 20.8315 12.8656 19.3916 12.8117 19.1357C12.7577 18.8798 12.784 18.4861 12.6094 18.3292C12.7665 17.926 12.9337 18.1356 13.0814 18.1093Z" fill="#F6B147"/>
<path d="M24.7462 20.3088C24.2593 20.8748 23.9424 21.6981 23.4927 22.2817C23.4145 22.3829 23.3383 22.5295 23.1953 22.5076L24.409 20.0888C24.6936 19.984 24.6275 20.0441 24.7462 20.3088Z" fill="#F6B147"/>
<path d="M12.8771 3.59248C12.6526 3.78604 12.0478 3.86595 12.068 4.25234C11.7767 4.25454 11.482 4.24354 11.1914 4.25234L11.3263 3.59248C11.8414 3.57855 12.3613 3.59688 12.8771 3.59248Z" fill="#D4812F"/>
<path d="M29.3309 14.2235C29.3815 14.2176 29.4455 14.2939 29.4658 14.2968C29.3511 14.4764 28.9715 15.53 28.9971 15.648C29.0322 15.8101 29.3491 15.8277 29.3983 15.6165C29.4314 16.0278 29.9742 16.6363 30.0726 17.0821C29.4239 17.3893 29.2581 15.9127 29.0511 15.7749C28.9648 15.7177 28.7105 15.7873 28.5898 15.7631C28.6896 15.3804 28.7456 15.1157 28.8737 14.7147C28.9176 14.5776 29.0113 14.4911 28.7921 14.5167C28.9149 14.4881 29.0888 14.2961 29.3316 14.2235H29.3309Z" fill="#D4812F"/>
<path d="M24.7461 3.88567C24.9073 3.55501 24.858 3.89374 24.9214 3.89227C25.1068 3.88714 25.3375 3.7493 25.5552 3.81236C25.5492 3.92966 25.5128 4.58879 25.4871 4.61811C25.4615 4.64744 24.8304 4.65331 24.7461 4.54553C24.7731 4.45388 24.7535 4.02498 24.7461 3.88567Z" fill="#D4812F"/>
<path d="M13.0143 15.03L13.5396 15.6694L13.4863 15.7632C13.0319 15.6826 12.5282 15.6884 12.0703 15.5425C12.2719 15.2309 12.7426 15.1679 13.0143 15.03Z" fill="#D4812F"/>
<path d="M18.4744 25.5145C18.6342 25.5533 18.9552 25.8136 18.9464 26.0277C18.9087 26.0182 18.8554 26.0335 18.8116 26.0277H18.6093C17.9829 25.95 17.9073 25.928 17.3281 25.6611V25.5145C17.5999 25.5035 18.2526 25.4609 18.4744 25.5145Z" fill="#D4812F"/>
<path d="M18.879 22.8018C18.7495 23.2615 18.6046 23.4851 18.2047 23.6816L17.3281 23.5716C17.8143 23.2483 18.3632 23.0547 18.879 22.8018Z" fill="#D4812F"/>
<path d="M29.1962 3.88579C29.762 3.93345 30.3682 4.14387 30.882 4.39901C30.88 4.44594 30.8955 4.49359 30.8773 4.53905C30.6716 4.55811 30.4855 4.63143 30.2751 4.61897C30.2643 4.56031 30.3007 4.47673 30.2637 4.41368C30.2232 4.35209 29.1039 3.9877 28.9542 3.96571C28.5988 3.91439 28.174 4.05222 27.8477 3.88579C28.2563 3.94518 28.7694 3.84987 29.1962 3.88579Z" fill="#D4812F"/>
<path d="M29.7357 8.57818C29.5125 8.46601 29.5934 8.04443 29.6096 7.81788C29.6514 7.23134 29.708 6.85449 30.0054 6.37866C29.9858 6.99673 29.9629 7.70644 29.8652 8.31571C29.851 8.40515 29.8247 8.55179 29.7357 8.57818Z" fill="#F6B147"/>
<path d="M13.6203 7.9916C13.7875 8.24968 14.0943 8.79663 14.3262 8.94693C14.5043 9.06204 14.9061 9.17641 15.1711 9.31132L15.1037 9.45795C14.9432 9.40003 14.5447 9.43009 14.362 9.31132C14.3148 9.28052 13.6944 8.53488 13.6203 8.43151C13.5461 8.32813 13.4537 8.12504 13.418 7.9916C13.5427 7.92488 13.5447 8.007 13.6203 7.9916Z" fill="#F6E471"/>
<path d="M31.6926 15.0299C31.8497 14.9933 31.8369 15.1135 31.8834 15.2213C32.1639 15.865 31.9232 16.5579 31.3555 16.8629C31.5503 16.302 31.76 15.6458 31.6926 15.0299Z" fill="#D4812F"/>
<path d="M14.9692 10.3378C14.9557 10.3656 14.9065 10.3928 14.9018 10.4111C14.5424 10.1208 13.8978 10.2065 13.5586 10.002C13.3887 9.89934 12.8782 9.3392 12.8789 9.09138C12.9025 9.06866 12.9221 9.04006 12.9463 9.01807C12.9774 9.07525 13.7717 9.90227 13.8263 9.93087C14.1358 10.0929 14.6907 9.99245 14.9692 10.3378Z" fill="#B24C27"/>
<path d="M12.2734 10.1912L13.2889 11.1025C13.3914 11.2711 13.4042 11.4178 13.2175 11.5109C13.0415 11.4449 12.68 11.0035 12.5445 10.8129C12.409 10.6223 12.2734 10.4397 12.2734 10.1912Z" fill="#B24C27"/>
<path d="M30.6132 14.4435C30.3394 14.4948 30.0427 14.7954 29.6692 14.5901C29.7103 14.4831 29.7366 14.3922 29.804 14.2976C29.6935 14.2859 29.5761 14.3108 29.4669 14.2969C29.4467 14.2939 29.3826 14.2177 29.332 14.2235C29.6584 14.126 30.0502 14.0967 30.3893 14.2103C30.5195 14.2536 30.622 14.247 30.6132 14.4435Z" fill="#F6B147"/>
<path d="M15.5775 9.53123C15.7251 9.62214 15.8566 9.64267 15.9146 9.67787C16.04 9.75412 15.9652 9.94108 15.9146 10.0445C15.6577 9.9968 15.301 9.52903 15.1055 9.45791L15.1729 9.31128C15.3125 9.3824 15.4433 9.44838 15.5775 9.53123Z" fill="#F6B147"/>
<path d="M17.3283 25.5144V25.661C17.2508 25.6251 17.0815 25.6859 17.0586 25.5151C17.1483 25.5107 17.2386 25.518 17.3283 25.5151V25.5144Z" fill="#F6B147"/>
<path d="M18.8117 26.0277C18.7995 26.0264 18.7334 26.0415 18.6094 26.0277H18.8117Z" fill="#F6B147"/>
<path d="M14.4278 13.2705L14.3287 13.3445L14.293 13.2705C14.3368 13.2646 14.384 13.2764 14.4278 13.2705Z" fill="#D4812F"/>
<path d="M18.9453 22.8017C18.9858 22.7819 19.0559 22.7005 19.1476 22.655C19.1186 22.7613 19.0438 22.7995 18.9453 22.8017Z" fill="#D4812F"/>
<path d="M19.2852 22.6551C19.3061 22.6448 19.3263 22.595 19.3526 22.5818L19.2852 22.6551Z" fill="#D4812F"/>
<path d="M17.5977 23.9014L17.6651 23.8281C17.6455 23.8333 17.6186 23.8963 17.5977 23.9014Z" fill="#F6B147"/>
<path d="M3.70703 16.2032C3.72793 16.1907 3.74681 16.1467 3.77446 16.1299L3.70703 16.2032Z" fill="#D4812F"/>
<path d="M25.2869 10.9236C24.9221 11.0871 24.8034 10.7506 24.4454 10.7029C24.0873 10.6552 23.5917 10.6978 23.2276 10.7007C22.9774 10.7029 22.8655 10.9038 22.7097 10.6105C22.6592 10.5159 22.4427 9.80256 22.4535 9.72778C22.4596 9.68599 22.5432 9.68012 22.5621 9.64566C22.5917 9.59361 22.5857 9.50489 22.6086 9.4829C22.7199 9.37586 23.1561 9.18743 23.3281 9.05106C23.4744 8.93522 23.7353 8.46672 23.9633 8.51438C24.0786 8.53857 25.0219 10.219 25.1386 10.4624C25.2094 10.6098 25.3078 10.7418 25.2869 10.9236Z" fill="#F6B147"/>
<path d="M26.8376 11.5108H26.7702C26.4283 12.8415 25.6023 13.4618 24.4102 13.7836C24.5834 13.4632 24.7662 13.1436 24.9496 12.8305C25.0649 12.6333 25.696 11.4837 25.7587 11.4375C26.0001 11.2615 26.6367 11.3128 26.8376 10.9976H26.905C26.8821 11.1009 26.8484 11.3898 26.8376 11.5108Z" fill="#DA6527"/>
<path d="M27.0367 10.5577C27.2046 10.4631 27.2949 10.2241 27.6435 10.3385C27.5788 10.5254 27.4797 11.6736 27.4359 11.7249C27.415 11.7491 26.8566 11.8275 26.8351 11.8048C26.8398 11.7088 26.8263 11.6076 26.8351 11.5115C26.8459 11.3906 26.8796 11.1017 26.9025 10.9983C26.9241 10.9008 27.0819 10.7314 27.0374 10.5584L27.0367 10.5577Z" fill="#F6E471"/>
<path d="M25.7592 11.4375C25.6965 11.4836 25.0653 12.6333 24.95 12.8305C24.7585 12.8737 24.7976 12.7139 24.8199 12.5805C24.8691 12.2813 25.1442 11.9734 25.2986 11.7065C25.4638 11.4206 25.4733 10.9374 25.7592 11.4375Z" fill="#F6B147"/>
<path d="M27.7134 13.2703C27.3776 13.2432 27.1598 12.903 27.0391 12.6105C27.1726 12.6163 27.4005 12.4213 27.5104 12.4961C27.5407 12.5166 27.975 13.0504 27.9824 13.0885C28.0141 13.2454 27.8226 13.2791 27.7134 13.2703Z" fill="#DA6527"/>
<path d="M21.3762 13.4171L21.174 13.9303C21.0694 13.9142 20.9366 13.9509 20.8368 13.9303C20.8044 13.9237 20.5455 13.8526 20.5678 13.7844C20.7727 13.7536 21.0661 13.3555 21.2414 13.3438C21.271 13.3416 21.3358 13.4076 21.3762 13.4171Z" fill="#F6E471"/>
<path d="M27.0394 10.5576C27.0839 10.7306 26.9261 10.9 26.9046 10.9975H26.8371C26.7232 10.8282 26.7488 10.5686 26.9484 10.5026C26.9875 10.4894 27.0354 10.5598 27.0394 10.5576Z" fill="#B24C27"/>
<path d="M27.7785 3.88573C27.6996 3.8608 27.3523 3.49348 27.1919 3.38717C26.6012 2.99419 25.9626 2.67892 25.3726 2.28227C25.231 2.26028 24.8986 3.11883 24.877 3.29919L23.26 2.93187L23.4617 2.67672L22.8555 2.20016C23.1319 2.23975 23.7172 1.75952 23.9006 1.75952H25.8898C25.9329 1.9912 25.6605 1.97288 25.6207 2.12538C26.2647 2.27128 26.9282 2.926 27.5074 3.11736C27.8068 3.21634 29.0441 3.26473 29.1311 3.33145C29.2444 3.41796 29.181 3.74422 29.1938 3.88646C28.767 3.85053 28.2539 3.94585 27.8452 3.88646C27.8216 3.88279 27.7967 3.89232 27.7778 3.88646L27.7785 3.88573Z" fill="#F6E471"/>
<path d="M28.1837 4.1058C28.2046 4.3888 28.7791 4.3734 28.9942 4.43426C29.2457 4.50464 29.4419 4.69087 29.7345 4.61902C29.6995 5.1403 29.6617 5.9446 29.3967 6.37864C29.2369 6.64038 29.0346 6.64258 29.0023 6.68144C28.9193 6.78041 29.1317 7.24085 28.8573 7.18513C28.8472 6.90139 28.7663 6.28112 28.9921 6.19607C28.893 5.92407 28.0306 5.55821 27.8829 5.34853C27.7353 5.13884 27.7804 4.72166 27.7784 4.47238C28.0502 4.54057 27.9821 4.32722 28.0481 4.1058C28.0926 4.1058 28.1392 4.10066 28.183 4.1058H28.1837Z" fill="#D4812F"/>
<path d="M27.8487 3.88588C28.1757 4.05231 28.5998 3.91374 28.9552 3.96579C29.1049 3.98779 30.2235 4.35217 30.2647 4.41376C30.3018 4.47755 30.2654 4.56113 30.2761 4.61905C30.0253 4.60365 29.9376 4.45995 29.7529 4.41816C29.2829 4.31112 28.6497 4.15862 28.1858 4.10583C28.142 4.1007 28.0955 4.10583 28.051 4.10583C27.9613 4.10583 27.8709 4.10583 27.7812 4.10583V3.88588C27.8001 3.89174 27.8251 3.88221 27.8487 3.88588Z" fill="#B24C27"/>
<path d="M26.4979 5.05897C26.0838 5.19827 25.8006 5.41382 25.3516 5.42555L25.4891 4.69531C25.742 4.72977 26.3718 4.83681 26.4979 5.05897Z" fill="#F6E471"/>
<path d="M26.5653 3.88567L25.9922 3.00732C26.2558 3.25514 26.649 3.43403 26.5653 3.88567Z" fill="#D4812F"/>
<path d="M28.0516 4.10571C27.9855 4.32713 28.0536 4.54048 27.7818 4.4723C27.7805 4.34986 27.7818 4.22815 27.7818 4.10571C27.8715 4.10571 27.9619 4.10571 28.0516 4.10571Z" fill="#DA6527"/>
<path d="M25.893 3.00608L25.6914 2.78686C25.8141 2.76194 25.9153 2.86751 25.893 3.00608Z" fill="#D4812F"/>
<path d="M30.7148 4.10571C30.7587 4.12991 30.7587 4.15484 30.7148 4.17903V4.10571Z" fill="#F6E471"/>
<path d="M28.9261 7.62508V7.55176C28.9283 7.57595 28.9247 7.60088 28.9261 7.62508Z" fill="#D4812F"/>
<path d="M21.1062 22.5818C21.1251 22.6082 21.1547 22.628 21.1736 22.6551C21.1433 22.6676 20.7684 23.1383 20.769 23.2035C20.7704 23.356 20.9632 23.5818 21.1062 23.6082C21.0967 23.7013 21.1203 23.8135 21.1062 23.9015C21.0118 24.488 20.9187 25.0716 20.8365 25.6611L19.353 25.5871C19.5108 25.3092 20.0226 25.0606 20.1837 24.8576C20.2491 24.7747 20.235 24.7366 20.2296 24.6347L17.8696 24.488C17.8372 24.3685 17.8709 24.3539 17.8696 24.3414L21.1062 22.5818Z" fill="#F6E471"/>
<path d="M20.834 25.8076C20.8407 25.7607 20.8272 25.7079 20.834 25.6609C20.9162 25.0715 21.0093 24.4879 21.1037 23.9013C21.4941 23.7972 21.4665 24.7372 21.4375 24.9593C21.4085 25.1815 21.1165 25.8809 20.834 25.8076Z" fill="#D4812F"/>
<path d="M9.03575 16.5698C8.7512 16.5207 8.56779 16.2567 8.2684 16.2787C7.72627 16.3176 6.70606 17.0222 6.11605 17.1527C5.96231 17.2868 5.9731 17.9657 6.00075 18.1835C6.02839 18.4013 6.78967 19.5047 6.98859 19.6389C7.08973 19.707 7.39519 19.8947 7.4842 19.9431C7.30483 20.0472 6.83552 20.2782 6.65684 20.2254C6.57997 20.2027 5.88072 19.6103 5.76677 19.5017C5.58808 19.3317 5.43299 19.1315 5.26037 18.9541C5.26037 18.8595 5.787 18.6315 5.73103 18.4049C4.93199 18.2128 4.11475 18.0112 3.30357 17.891C3.17815 17.8726 3.02913 17.9049 2.89899 17.891C2.87472 17.8015 2.95698 17.7253 2.96642 17.6717L5.46603 15.9517C5.67102 15.7728 5.07764 15.3212 5.19227 15.179L8.78154 16.2245C8.86785 16.2692 9.15712 16.5038 9.03507 16.572L9.03575 16.5698Z" fill="#F6E471"/>
<path d="M9.03661 16.5697V16.643C9.02177 16.6489 8.94288 16.8256 8.81746 16.8813C8.64012 16.9598 8.4702 16.9143 8.29353 16.9715C7.94964 17.0837 7.60508 17.4605 7.3738 17.5162C7.24501 17.547 7.30165 17.3733 7.24838 17.3733C7.14386 17.374 7.09127 17.5118 6.97731 17.5236C6.77435 17.5441 6.61656 17.2846 6.56262 17.7912C6.55453 17.866 6.62735 18.0133 6.60847 18.0353C6.58689 18.0603 6.09331 18.1922 6.00093 18.1827C5.97329 17.9649 5.9625 17.286 6.11624 17.1519C6.70557 17.0221 7.72645 16.3175 8.26859 16.2779C8.56797 16.2559 8.75138 16.5199 9.03593 16.569L9.03661 16.5697Z" fill="#D4812F"/>
<path d="M16.1137 13.5637C16.0388 13.6488 16.0017 13.8313 15.9788 13.857C15.5237 14.3753 15.0186 14.9516 14.525 15.3981L13.5513 15.2493L14.4947 14.5176C14.0921 14.5777 13.5035 14.1906 13.1461 14.2236C13.1117 14.2265 13.0793 14.2566 13.0787 14.2969C13.0605 14.2998 13.0213 14.302 13.0112 14.2969C12.9654 14.2734 12.9101 14.0835 12.7422 14.1495V14.0777C12.9101 14.1077 13.0611 14.0278 13.2135 14.0036C14.1778 13.8497 15.1575 13.7851 16.113 13.5637H16.1137Z" fill="#F6E471"/>
<path d="M19.2173 13.197C19.338 13.4023 19.7668 13.7784 19.959 14.0768C19.9893 14.1238 20.0318 14.3415 20.0938 14.3701C20.0244 14.5101 19.4978 15.3203 19.4438 15.3291C19.2726 15.3584 18.8558 15.0094 18.7115 14.8826C18.5841 14.7697 18.5551 14.601 18.543 14.5901C18.8639 14.222 18.957 13.6281 19.2173 13.197Z" fill="#DA6527"/>
<path d="M19.0139 12.9772C19.3213 12.9046 19.1791 13.1334 19.2162 13.1972C18.9559 13.6283 18.8628 14.2221 18.5419 14.5902C18.0746 14.1642 17.7509 13.8526 17.3281 13.4171C17.881 13.2389 18.4899 13.2631 19.0139 12.9772Z" fill="#D4812F"/>
<path d="M21.3742 13.417C22.2035 13.6098 23.01 13.8826 23.8691 13.9309C23.8765 14.0688 23.9001 14.2851 23.7173 14.2821C22.8724 14.1311 22.0188 14.0629 21.1719 13.9302L21.3742 13.417Z" fill="#D4812F"/>
<path d="M22.2493 7.25826C22.2715 7.26045 22.2944 7.25532 22.3167 7.25826C22.3099 7.75022 22.3019 8.23998 22.3841 8.7246C22.1515 8.7246 20.7355 7.83966 20.4961 7.62484L22.2493 7.25826Z" fill="#D4812F"/>
<path d="M22.3197 7.2583C22.4647 7.27663 23.5692 7.80965 23.5995 7.88297C23.6143 7.91889 23.6272 8.06406 23.5604 8.06993C23.2212 8.13224 22.696 8.72465 22.3878 8.72392C22.3055 8.23929 22.3136 7.74953 22.3204 7.25757L22.3197 7.2583Z" fill="#F6B147"/>
<path d="M19.1487 5.93855C19.3381 6.20323 19.4534 6.95693 19.6308 7.28393C19.7919 7.58159 20.1958 7.82354 20.3624 8.13807C20.3071 8.12854 20.2087 8.23192 20.0954 8.17693C19.6564 7.96358 19.0994 6.65999 19.0138 6.1585C19.0003 6.07859 19.0138 5.95615 19.0138 5.86523C19.0475 5.89456 19.1298 5.91216 19.1487 5.93855Z" fill="#D4812F"/>
<path d="M24.2734 6.52522C24.2802 6.48196 24.3402 6.45704 24.3409 6.4519L24.2734 6.52522Z" fill="#F6B147"/>
<path d="M29.466 14.2969C29.5752 14.3109 29.6925 14.2859 29.8031 14.2977C29.7357 14.3923 29.7094 14.4832 29.6683 14.5902C29.6494 14.6401 29.6177 14.6863 29.6008 14.7368C29.5381 14.9289 29.3844 15.4422 29.3985 15.6167C29.3486 15.8278 29.0324 15.8102 28.9973 15.6482C28.9717 15.5301 29.3513 14.4766 29.466 14.2969Z" fill="#F6E471"/>
<path d="M17.8679 6.01203C17.8531 6.12641 17.8585 6.3317 17.8679 6.45194C17.81 6.86031 17.3926 6.93803 17.0588 6.96589C17.073 6.765 17.015 6.57438 16.9914 6.37862C16.9408 5.96658 16.9435 5.00172 16.6232 4.76051C16.4674 4.6432 16.2065 4.92327 16.1458 5.06257C16.077 5.21947 16.1842 5.30305 16.1822 5.35218C16.1822 5.36024 16.1188 5.49221 16.1148 5.49881C16.0393 5.61465 15.0858 6.52819 15.015 6.51572C13.8127 5.77228 12.5977 5.06697 11.3273 4.47237C11.2599 4.44084 11.1951 4.35799 11.125 4.32573V4.25242C11.1473 4.25095 11.1702 4.25242 11.1924 4.25242C11.4831 4.24362 11.7777 4.25462 12.069 4.25242C12.8667 4.24728 13.6732 4.18643 14.4601 4.17617C15.4897 4.16297 16.5221 4.17983 17.551 4.19376C18.2395 4.69819 17.876 4.54862 17.8039 5.02591C17.7661 5.27739 17.7668 5.77082 17.8679 6.01203Z" fill="#F6E471"/>
<path d="M19.0143 5.71866V5.86529C19.0143 5.95621 19.0008 6.07865 19.0143 6.15856C18.81 6.54275 19.1492 7.04864 19.2173 7.44088C19.2092 7.58092 18.2591 7.22826 18.2187 7.16961C18.1148 7.01858 18.129 6.17249 18.0703 5.93861C18.1135 5.94374 18.164 5.93055 18.2052 5.93861C18.3326 5.96354 18.8208 6.07938 18.8801 6.01266C18.9044 5.9848 18.8538 5.75825 18.8801 5.71793C18.8909 5.70106 18.9954 5.73552 19.015 5.71793L19.0143 5.71866Z" fill="#DA6527"/>
<path d="M17.9372 6.74519L17.8711 6.70853L17.9372 6.67188C17.9405 6.69607 17.9338 6.72173 17.9372 6.74519Z" fill="#F6E471"/>
<path d="M17.8672 5.93855L17.9346 5.86523C17.9299 5.86597 17.8685 5.93342 17.8672 5.93855Z" fill="#DA6527"/>
<path d="M3.80859 18.4758C3.85242 18.5 3.85242 18.525 3.80859 18.5491V18.4758Z" fill="#D4812F"/>
<path d="M13.082 14.297C13.0827 14.2566 13.1151 14.2266 13.1495 14.2236C13.1427 14.272 13.1265 14.2896 13.082 14.297Z" fill="#D4812F"/>
<path d="M11.1248 4.25245V4.32577C11.0756 4.30304 10.9414 4.37269 10.9219 4.28911C10.9219 4.22092 11.0615 4.25612 11.1248 4.25245Z" fill="#F6B147"/>
<path d="M12.3397 21.5552C12.4057 21.5479 12.4752 21.5596 12.542 21.5552C12.5352 21.6014 12.5494 21.6564 12.542 21.7018L12.2277 22.4387C11.4847 22.3742 10.7193 22.4108 9.97963 22.3617C9.91962 22.358 9.81645 22.3771 9.77734 22.3617C10.2493 21.913 10.9223 21.9643 11.4806 21.8309C11.7726 21.7612 12.0241 21.5889 12.3397 21.5552Z" fill="#F6E471"/>
<path d="M14.3623 9.3112C14.2153 9.35959 13.9968 9.7709 13.866 9.74598C13.8047 9.73425 13.1439 8.99814 13.1445 8.90723C13.214 8.70927 13.4709 8.58903 13.6206 8.4314C13.6948 8.53477 14.3151 9.28041 14.3623 9.3112Z" fill="#F6B147"/>
<path d="M16.9897 6.37857L16.8549 6.45188C16.7564 5.97825 16.7766 5.37119 16.1806 5.35212C16.1826 5.303 16.0754 5.21942 16.1441 5.06252C16.2048 4.92322 16.4658 4.64314 16.6216 4.76045C16.9418 5.00167 16.9391 5.96652 16.9897 6.37857Z" fill="#F6B147"/>
</g>
<defs>
<clipPath id="clip0_129_1099">
<rect width="32" height="30" fill="white" transform="translate(0 1)"/>
</clipPath>
</defs>
</svg>
