<svg width="32" height="32" viewBox="0 0 32 32" fill="none" xmlns="http://www.w3.org/2000/svg">
<g clip-path="url(#clip0_108_77)">
<path d="M9.85234 26.7612L15.8484 30.4226L15.6436 29.1759L14.5074 28.2132L12.8977 26.5562L10.8303 25.3252L9.34766 25.1516L9.85234 26.7612Z" fill="#453040"/>
<path d="M21.1328 25.8245C21.5743 25.904 21.8207 26.5445 22.0104 26.9124C21.6715 26.5636 21.4271 26.1746 21.1328 25.8245Z" fill="#453040"/>
<path d="M20.7344 25.3485C20.9889 25.273 20.9774 25.5681 21.0719 25.7565C20.9578 25.6212 20.8471 25.4852 20.7344 25.3485Z" fill="#453040"/>
<path d="M6.34482 7.3985C9.27185 6.27893 15.1926 4.0398 15.4594 4.03979L25.7967 6.83872L26.797 11.9887L25.2409 19.9936L21.4617 25.5914L15.7373 28.6702L10.5131 25.5914L7.12291 19.7137L5.78906 13.948L6.34482 7.3985Z" fill="#8F514E"/>
<path d="M21.3805 5.71982C22.7529 6.21226 24.1386 7.03324 25.5006 7.58477C25.5872 7.67834 25.6263 7.94426 25.6396 8.07792C25.7087 8.76171 25.6801 9.64671 25.7101 10.3636V10.5746C25.722 10.844 25.7799 11.2471 25.7799 11.454V12.861C25.7799 13.1381 25.8533 13.5328 25.8498 13.881C25.847 14.1652 25.8798 14.4501 25.7799 14.7252C25.782 14.7027 25.6556 14.4642 25.7799 14.3038C25.6123 14.2771 25.5949 14.41 25.5495 14.5282C24.8985 16.2173 24.7183 18.5079 24.1184 20.2624C23.4444 21.407 22.6684 22.4854 21.9392 23.5899C22.0565 23.4323 22.2486 22.9012 22.3897 22.6718C22.6893 22.1829 23.2921 21.4435 23.4437 20.9187C23.5421 20.5754 23.5498 20.0781 23.6469 19.7165C23.7559 19.3084 23.9954 18.8315 24.089 18.403C24.1575 18.0893 24.1204 17.6503 24.2196 17.3387C24.286 17.1318 24.418 17.1487 24.4767 17.0298C25.1458 15.6749 25.0452 14.5747 25.0103 13.1466C24.9739 11.6692 25.0382 9.95624 24.8657 8.50846C24.8531 8.40364 24.8147 8.20244 24.7658 8.11732C24.5961 7.82326 24.221 8.0139 23.9451 7.83451C23.5743 7.59322 23.6329 7.71562 23.3382 7.58477C23.253 7.54679 23.1601 7.37795 23.0532 7.3083C22.6432 7.04168 22.2388 6.77295 21.8365 6.49507L21.7304 23.6244C21.7374 23.6637 21.9336 23.5983 21.9399 23.5892C21.701 23.9508 21.1758 25.0264 20.9432 25.2586C20.8238 25.3782 19.8599 25.8481 19.6141 25.9951C19.0756 26.3173 18.8542 26.5227 18.2382 26.7549C18.4589 26.4045 18.47 26.0345 18.4484 25.63C18.6796 25.5871 18.6209 25.922 18.7718 25.9754C19.1329 26.1035 20.5542 25.3451 20.8 25.0447C21.0368 24.7563 20.99 24.1787 21.0927 23.827L21.0976 7.09726L20.9237 6.7033C20.6736 6.74551 19.7433 7.33926 19.5987 7.33996C19.4625 7.34066 19.3906 7.16268 19.2809 7.09444C19.0833 6.97063 18.9359 7.15705 18.9352 6.63506C18.6314 6.55346 18.66 6.99525 18.3778 6.98681L18.3429 6.00192C18.1655 5.9576 18.067 5.70364 17.9741 5.65158C17.8324 5.57138 17.5327 5.55169 17.3504 5.4539C17.18 5.36245 16.3174 4.76518 16.212 4.83975L16.1428 11.6298C16.1261 11.6179 15.8963 11.5074 15.8816 11.5046C15.8174 11.492 15.7985 11.5595 15.7936 11.5595C15.7706 11.5595 15.7468 11.5574 15.7238 11.5595C15.6812 9.97946 15.7796 8.38746 15.7266 6.80812C15.721 6.6421 15.6595 6.48803 15.6511 6.32131C15.6316 5.94775 15.7754 5.34697 15.5149 5.08738V11.5595L14.1872 11.7705C14.0964 11.7642 13.9993 11.7677 13.9078 11.7705C13.8345 10.7406 14.4491 8.60343 14.6558 7.49402C14.7005 7.25554 15.0239 5.64807 14.9555 5.57983C14.7536 5.38074 14.7641 5.95479 14.3639 5.9365C14.1662 5.92735 13.6354 5.64736 13.6983 5.43843L10.7683 6.28543L10.7655 14.1617C10.9862 14.3896 11.4444 13.4385 11.5722 13.3217C11.9166 13.0066 12.3475 12.7793 12.7149 12.5029C13.0264 12.2679 13.0774 12.1005 13.4887 11.9105C13.4748 11.9204 13.4475 12.1174 13.3505 12.2285C13.0864 12.5338 12.0534 13.2964 11.9186 13.601C11.8572 13.741 11.6477 14.8159 11.6344 15.0024C11.6225 15.1663 11.677 15.3218 11.6728 15.4983C11.6574 16.1765 11.684 16.8596 11.6728 17.5378C11.7398 17.6151 12.3824 17.0826 12.4914 17.0601C12.7149 17.013 13.2024 17.2782 13.488 17.1867C13.6221 17.3492 13.9672 17.4998 14.1613 17.599C14.3793 17.7101 15.7908 18.3615 15.9095 18.3651C16.2588 18.3756 17.8247 17.3204 18.3073 17.2571C18.7655 17.9521 18.9918 18.2033 18.5161 19.0151C18.3946 19.032 18.4505 18.8554 18.447 18.7703C18.4407 18.5944 18.4519 18.4171 18.447 18.2419L17.5146 18.6035C16.9942 18.9813 17.3595 19.0404 17.7492 19.1903C17.9308 19.2599 18.118 19.3225 18.3073 19.3668C18.2912 19.376 18.2717 19.4498 18.1872 19.4892C17.6612 19.7341 16.8867 19.8459 16.3307 20.0668C16.2252 20.1737 16.1575 20.3018 16.1386 20.4544C15.9298 22.1421 16.2043 24.5487 16.2113 26.2962C16.2113 26.4292 16.1386 26.5656 16.1379 26.7155C16.1372 27.0799 16.1449 27.445 16.1414 27.808L17.8868 26.9638L17.305 27.3979C16.9027 27.5956 16.5235 27.8432 16.1184 28.0352C16.0283 28.0782 15.8697 28.0796 15.8614 28.0894C15.7566 28.1183 15.7182 28.0556 15.6518 28.0191C15.7307 27.9023 15.7203 27.7693 15.7245 27.6357C15.7831 25.6792 15.8348 23.3057 15.7245 21.3683C15.7105 21.1206 15.6707 20.7056 15.5464 20.4924L15.4416 27.8784C15.1406 27.7081 14.7648 27.5745 14.5336 27.3156C14.7096 26.5853 14.4575 25.7967 14.5343 25.044C14.153 24.6493 14.1152 25.0123 13.7653 25.1347C13.4922 24.0922 13.6962 22.9975 13.6242 21.9346C13.611 21.7334 13.5614 21.0235 13.3791 20.9849C13.1633 21.0207 13.2164 21.2916 13.113 21.4893C12.8364 22.0155 12.455 21.7172 12.0039 21.8487C11.7971 21.9092 11.5925 22.057 11.3899 22.1463C11.2216 22.2209 10.9737 22.1512 10.8675 22.3939C10.7529 22.6556 10.8493 23.7313 10.8305 24.1154C10.8151 24.4249 10.7418 24.7788 10.6915 25.0658C10.4736 24.7739 10.3276 24.3785 10.1327 24.0809C10.2829 22.9251 10.2221 21.7179 10.0622 20.5635L9.85335 20.7393C9.84287 21.5835 9.86452 22.4284 9.85405 23.2726C9.85265 23.3915 9.89875 23.5857 9.78281 23.6588C9.64591 23.4464 9.50134 23.2395 9.36374 23.0257C8.94188 22.3686 7.91936 20.9588 7.65954 20.3454C7.42766 19.7974 7.23279 18.6155 7.05888 17.9606C6.78719 16.9384 6.20957 15.2641 6.08106 14.3024C5.94417 13.2746 6.31294 11.0136 6.36323 9.83805C6.37929 9.4645 6.35555 9.08462 6.36114 8.71036C6.36672 8.3361 6.57346 7.96888 6.1523 7.65442C7.53871 7.01846 9.00614 6.24462 10.4449 5.71841C12.1421 5.09794 13.9846 4.7272 15.6909 4.10742L16.1421 4.13415C17.8289 4.76307 19.6958 5.11693 21.377 5.72052L21.3805 5.71982ZM9.92599 6.84541C9.82262 8.85246 9.83589 10.8813 9.85614 12.8954C9.86383 13.6489 9.83589 14.3974 9.92669 15.1466L10.1879 14.18C10.22 11.8761 10.4359 9.31325 10.278 7.01917C10.2571 6.71807 10.2431 6.06805 9.85684 6.21226C9.82192 6.46482 9.86383 6.62381 9.92669 6.84611L9.92599 6.84541ZM14.4659 19.0151C14.3674 18.8645 13.2778 18.166 13.2094 18.2427C13.2094 18.4242 13.252 19.3408 13.3449 19.4076C13.5216 19.5357 14.2207 19.0214 14.4659 19.0151ZM14.4659 24.2216V21.5835C14.4659 21.4696 13.9846 21.2093 13.9707 21.6532C13.9567 22.0971 14.1746 23.357 14.2738 23.8171C14.2954 23.9163 14.3527 24.1942 14.4659 24.2216Z" fill="#453040"/>
<path d="M4.19177 14.1704L4.25928 14.5111C4.61032 14.5988 4.32138 14.2826 4.59614 14.3071C4.6218 14.4207 4.52661 14.5539 4.52863 14.6464C4.53201 14.794 4.96271 15.2461 5.10516 15.2604C5.2476 15.2747 5.76809 14.9864 5.80184 14.8756C5.82209 14.8089 5.74783 14.7471 5.74446 14.7144C5.71948 14.5023 5.68775 14.3676 5.60944 14.1704C5.84775 14.4023 5.82344 14.4574 6.21702 14.4424C6.54848 15.7126 6.89548 16.9814 7.22964 18.2502C7.37208 18.7901 7.5125 19.84 7.68532 20.2731C7.92835 20.8817 9.04764 22.2538 9.45742 22.874C9.92052 23.5757 10.3121 24.5195 10.9426 25.0498C11.9282 25.878 14.1364 27.0183 15.3381 27.6602C15.4366 27.7126 15.8896 27.9485 15.9382 27.905C15.9564 27.8887 15.92 27.7234 15.9382 27.7017C15.9463 27.6922 16.1002 27.6901 16.1866 27.6493C16.5782 27.4637 16.9441 27.2244 17.3336 27.0333L17.896 26.6137C17.9142 26.6042 17.9574 26.6246 17.9635 26.6137C18.0627 26.609 18.1329 26.575 18.166 26.4777C18.1781 26.4737 18.1997 26.4227 18.2335 26.4098C18.8289 26.1854 19.0429 25.9861 19.5634 25.6754C19.801 25.5333 20.7327 25.0791 20.8481 24.9635C21.0729 24.7391 21.5806 23.6994 21.8114 23.3499C22.5162 22.2824 23.2662 21.24 23.9177 20.1337C24.4976 18.4379 24.6718 16.2239 25.3009 14.5913C25.3448 14.4771 25.3617 14.3486 25.5237 14.3744C25.4042 14.5301 25.5264 14.7607 25.5237 14.7817C25.3583 16.4497 24.3822 18.5174 24.1533 20.235L21.0756 24.9614C21.0243 25.1573 21.3652 25.3878 21.5407 25.3891C21.6373 25.7869 21.6177 25.9406 22.0808 25.8651C22.0619 26.0215 21.9181 26.0983 21.9444 26.301C21.962 26.439 22.1524 26.6783 22.2833 26.7491C22.203 26.8198 22.1699 26.919 22.0362 27.0102C20.5247 28.0362 18.1586 29.4043 16.5235 30.2291C16.3129 30.3352 16.0192 30.5371 15.7863 30.4882C15.7215 30.4746 15.6932 30.3644 15.6682 30.3529C15.5824 29.9088 14.9202 29.7926 14.5907 29.5682C14.0028 29.167 12.0761 27.6425 11.6535 27.1536C11.592 27.0822 11.5806 26.934 11.5319 26.8986C11.48 26.8612 11.3591 26.8966 11.3476 26.8844C11.2464 26.7776 11.4557 26.5587 11.6177 26.6117C11.5313 26.1194 11.2599 26.5213 11.1168 26.4744C11.0466 26.4512 11.0337 26.32 10.9905 26.2928C10.7732 26.1575 10.8548 26.2506 10.6719 26.0677C10.7516 25.9909 10.8292 25.8046 10.8002 25.704C10.7421 25.5034 10.1345 25.3198 9.99478 25.415C9.91985 25.4666 9.85909 25.7604 9.86179 25.8631C9.86517 25.9957 9.99343 26.2778 10.0717 26.3662C10.1791 26.4866 10.4349 26.4771 10.3897 26.7035C10.3728 26.7885 10.1676 26.9326 10.0866 26.9394C10.0609 26.9415 9.62889 26.7463 9.60931 26.7287C9.55463 26.6777 9.5013 26.3662 9.41826 26.2751C9.34063 26.1901 9.17793 26.165 9.04764 26.0365C8.72698 25.7196 7.92228 24.6194 7.63334 24.2312C7.45377 23.9898 6.85295 22.8529 6.64502 22.8189C6.57616 22.8073 6.57566 22.7557 6.523 22.7285C6.46258 22.6444 6.47044 22.6512 6.43698 22.6014C6.39118 22.5334 6.35722 22.4785 6.32036 22.4267C6.26234 22.3452 6.24051 22.2453 6.24051 22.2453L5.96699 21.7214C5.96699 21.7214 5.9058 21.5943 5.8437 21.4426C5.03562 19.4667 4.86077 16.6543 4.13574 14.59C4.07295 14.4451 4.18974 14.2813 4.18907 14.1677L4.19177 14.1704ZM7.43217 21.0381C7.40044 20.9184 7.28432 20.5451 7.23369 20.4662C7.10543 20.2656 7.0683 20.6552 6.91843 20.6838C6.80704 20.7049 6.51473 20.5702 6.35136 20.6301C6.36891 20.8028 6.32706 21.0095 6.35136 21.1741C6.41009 21.5671 7.15268 21.7445 7.43757 21.2767C7.52803 21.1285 7.45984 21.1441 7.43149 21.0381H7.43217ZM21.7433 26.4091C21.9701 26.0677 21.1154 26.0868 21.002 25.9338C20.5686 26.5961 21.6406 26.5641 21.7433 26.4091ZM16.2758 29.0616C16.2596 29.2357 16.0827 29.424 15.9072 29.4057C15.7816 29.3927 15.7445 29.2744 15.6635 29.2336C15.577 29.1901 15.4137 29.2078 15.4008 29.1949C15.3495 29.1432 15.4987 28.8522 15.2631 28.9263C15.2132 29.4138 15.3387 29.4641 15.6864 29.6756C15.735 29.7048 15.7316 29.8116 15.7742 29.813C15.9875 29.8204 16.7044 29.305 16.3426 29.0623C16.4101 29.0602 16.4776 29.0657 16.5451 29.0623C16.6545 28.6285 16.292 28.6455 15.972 28.517C15.8862 28.8433 15.9504 29.016 16.2751 29.0616H16.2758Z" fill="#445063"/>
<path d="M16.2714 1.86293C16.2356 2.02748 16.3544 2.00368 16.449 2.05467C17.4386 2.58436 18.4567 3.06306 19.4457 3.59547C19.9958 3.89193 20.7337 4.42774 21.267 4.65077C21.1259 4.92683 21.0841 5.01931 21.0645 5.33073C21.0632 5.34909 20.9511 5.37697 21.0571 5.50208C21.1631 5.62719 21.3926 5.63127 21.4696 5.8067C21.452 5.82166 21.3926 6.05217 21.267 6.07869C19.6421 5.49528 17.8376 5.15394 16.2073 4.54537L15.7712 4.51954C14.1219 5.11858 12.3411 5.4776 10.7006 6.07665C9.30928 6.58526 7.89161 7.33322 6.55157 7.9479C6.95864 8.25185 6.75882 8.60407 6.75342 8.96853C6.74801 9.33298 6.77097 9.69744 6.75544 10.0585C6.70683 11.194 6.34972 13.3801 6.48271 14.3735C6.39562 14.3844 6.29503 14.4381 6.21267 14.4415C5.8191 14.4565 5.8434 14.4014 5.6051 14.1696C5.51599 14.0832 5.63278 14.0873 5.40257 13.9656C5.13929 13.8269 4.70656 13.6609 4.72749 14.1016C4.98537 14.0832 5.04815 14.0506 5.13254 14.3055C5.07313 14.3899 5.00698 14.4674 4.99752 14.5775C4.90909 14.5768 4.67483 14.7094 4.52497 14.6455C4.52294 14.5531 4.61745 14.4191 4.59247 14.3062C4.31772 14.2824 4.60598 14.5979 4.25561 14.5102L4.1881 14.1696C4.1881 14.1016 4.1881 14.0336 4.1881 13.9656C4.28936 13.956 4.28936 13.7711 4.1881 13.7616C4.17662 11.3042 4.33392 8.84953 4.31907 6.39147C4.33999 6.31531 4.77542 6.25004 4.86318 6.214C4.92664 6.35135 5.07786 6.23644 5.16629 6.214C5.34519 6.16844 5.70164 6.12629 5.8272 6.06305C5.95277 5.99981 6.00272 5.82166 6.15327 5.71151C6.54752 5.42252 7.90038 4.94519 8.44112 4.71808C9.26743 4.3713 10.1093 4.03948 10.9389 3.69814C12.5747 3.0243 14.2401 2.41709 15.8461 1.66846C16.0176 1.79153 16.0986 1.80581 16.2721 1.86225L16.2714 1.86293ZM15.9339 2.47489C15.385 2.47965 15.2129 2.85907 15.1413 3.34252C15.0826 3.74438 15.1163 3.59139 15.3938 3.63083C15.6254 3.66346 15.7955 3.84637 15.9339 3.83481C15.971 3.83142 16.5752 3.51183 16.5975 3.48124C16.6306 3.43568 16.6083 3.35 16.609 3.29085C16.6123 2.78971 16.4935 2.47013 15.9339 2.47489ZM10.8026 5.33073C10.7492 5.12538 10.8059 4.7684 10.5663 4.71877C9.92023 4.58413 10.4164 5.31305 10.8026 5.33073ZM10.33 5.73871C10.2983 5.42933 10.091 5.27497 9.79061 5.33141C9.72851 5.70267 10.0303 5.76047 10.33 5.73871ZM5.26756 7.23462L4.795 7.3033C4.7734 7.59092 5.01643 7.6188 5.13254 7.7106C5.15009 7.72488 5.05423 7.87991 5.29321 7.84523C5.38975 7.83163 5.7867 7.65144 5.80762 7.5746C5.83328 7.47805 5.73201 6.92116 5.6375 6.89532C5.45861 6.84568 5.31211 7.09183 5.26756 7.23462ZM6.17892 14.1022V14.1702C6.2228 14.1478 6.2228 14.1247 6.17892 14.1022Z" fill="#71808A"/>
<path d="M20.9334 3.63108C22.6239 4.31852 24.3541 5.06444 26.0641 5.73896C26.5231 5.91983 26.9775 6.17821 27.4406 6.3584L27.5493 6.52091L27.6843 14.5785C27.4055 14.5621 27.392 14.1127 27.209 14.0032C27.0153 13.8869 26.7385 13.9175 26.5366 13.9665C26.4887 13.9781 26.4178 13.94 26.3517 13.9821C26.3314 13.9951 26.2302 14.1841 26.1991 14.2385C26.006 14.1521 25.8541 14.1773 25.6597 14.2385L25.5915 13.9658C25.5949 13.6292 25.524 13.2478 25.524 12.9799V11.6199C25.524 11.42 25.468 11.0304 25.4565 10.77C25.4545 10.7319 25.4599 10.6517 25.4565 10.566C25.4268 9.8738 25.4552 9.01841 25.3883 8.35681C25.3755 8.22762 25.3377 7.97059 25.254 7.88016C23.9369 7.34707 22.5975 6.55423 21.2717 6.07758C21.3972 6.05106 21.4566 5.82055 21.4742 5.80559C21.6369 5.6628 22.2053 5.56013 22.046 5.26095C21.9319 5.32622 21.6268 5.17935 21.6092 5.19363C21.5397 5.07192 21.6943 4.73465 21.6774 4.71833C21.6551 4.69658 21.3432 4.67958 21.2717 4.64966C20.7384 4.42663 20.0005 3.89014 19.4503 3.59436C18.4613 3.06195 17.4433 2.58326 16.4536 2.05357C16.3591 2.00257 16.2403 2.02637 16.2761 1.86182C17.8166 2.36499 19.4415 3.02251 20.9341 3.62972L20.9334 3.63108ZM26.0641 7.50686C26.1491 7.72037 26.509 7.96991 26.6717 7.84684C26.7648 7.77612 27.2259 7.27227 26.9079 7.30151C26.8107 7.31035 26.5778 7.43274 26.5366 7.26751C26.4955 7.10228 26.6946 7.0438 26.6717 6.89489C26.1822 6.80582 25.8582 6.99145 26.0648 7.50618L26.0641 7.50686Z" fill="#DCDED8"/>
<path d="M27.6839 14.5783C27.2566 16.899 26.5525 19.1572 26.0428 21.4602C25.9996 21.605 25.8997 21.6921 25.7937 21.7859C25.0862 22.4155 24.4854 23.1547 23.9163 23.9407C23.5733 24.4146 22.5256 25.8759 22.3791 26.3403C22.3386 26.4681 22.3406 26.5708 22.4183 26.6823C22.3757 26.7034 22.317 26.7204 22.2832 26.7503C22.1523 26.6796 21.9619 26.4402 21.9443 26.3022C21.918 26.0996 22.0618 26.0227 22.0807 25.8663C22.1057 25.661 22.0004 25.3503 21.7729 25.321C21.6689 25.3081 21.5757 25.3904 21.5406 25.3904C21.3651 25.389 21.0242 25.1578 21.0755 24.9627L24.1532 20.2363C24.3821 18.5187 25.3582 16.4509 25.5236 14.783C25.6202 14.5171 25.5884 14.2417 25.5911 13.967L25.6593 14.2397C25.8538 14.1778 26.0063 14.1526 26.1987 14.2397C26.0549 14.4899 25.8348 14.9992 26.1798 15.1767C26.248 15.212 26.6686 15.3195 26.7408 15.2997C26.9015 15.2555 27.3545 14.834 27.3464 14.6477C27.3437 14.5871 27.1391 14.1037 27.1094 14.103C26.9157 14.0982 26.6281 14.5327 26.9413 14.6477C26.6942 14.6477 26.4458 14.6477 26.1987 14.647L26.5363 13.9677C26.7381 13.9187 27.0149 13.8881 27.2086 14.0044C27.3916 14.1139 27.4051 14.5633 27.6839 14.5797V14.5783ZM24.646 20.494C24.4536 20.7204 24.1998 21.0638 24.268 21.3806C24.4131 22.0524 25.4629 21.5567 25.5236 21.1059C25.5398 20.9842 25.4764 20.513 25.3927 20.4559C25.363 20.4355 24.7223 20.3457 24.6872 20.3525C24.6075 20.3682 24.6582 20.4797 24.646 20.494Z" fill="#71808A"/>
<path d="M25.7922 21.7861C25.7483 21.8772 25.7058 22.0526 25.6572 22.1261C25.1691 22.8672 24.6122 23.6329 24.1045 24.3699C23.8939 24.6752 22.4661 26.5227 22.4843 26.6818H22.4168C22.3392 26.5703 22.3372 26.4676 22.3777 26.3398C22.5241 25.8754 23.5712 24.4141 23.9148 23.9402C24.4839 23.1548 25.0854 22.415 25.7922 21.7854V21.7861Z" fill="#445063"/>
<path d="M4.1875 13.9664C4.1875 13.8984 4.1875 13.8304 4.1875 13.7625C4.28876 13.772 4.28876 13.9569 4.1875 13.9664Z" fill="#445063"/>
<path d="M27.8878 3.69862C27.8702 3.69318 27.8439 3.69998 27.8203 3.69862L27.854 3.63135L27.8878 3.69862Z" fill="#445063"/>
<path d="M5.74317 14.7146C5.74722 14.7472 5.8208 14.8091 5.80055 14.8758C5.7668 14.9866 5.24158 15.2749 5.10387 15.2606C4.96615 15.2463 4.53139 14.7942 4.52734 14.6466C4.67721 14.7105 4.91147 14.5779 4.9999 14.5786C5.20715 14.5807 5.48529 14.7948 5.74249 14.7146H5.74317Z" fill="#453040"/>
<path d="M7.4356 21.0378C7.46396 21.1439 7.53214 21.1282 7.44168 21.2765C7.15679 21.7443 6.4142 21.5661 6.35547 21.1738C6.56339 21.2071 6.67613 20.9841 6.86448 20.9718C7.02583 20.961 7.24658 21.0908 7.4356 21.0378Z" fill="#453040"/>
<path d="M6.35164 21.1739C6.32734 21.0087 6.36852 20.802 6.35164 20.6299C6.51501 20.5701 6.80665 20.7047 6.91871 20.6837C7.06858 20.6551 7.10571 20.2662 7.23397 20.4661C7.28461 20.5449 7.40072 20.9189 7.43245 21.0379C7.24343 21.0903 7.02267 20.9611 6.86133 20.972C6.67298 20.9849 6.56024 21.2072 6.35232 21.1739H6.35164Z" fill="#71808A"/>
<path d="M16.3439 29.0614C16.7051 29.3048 15.9881 29.8196 15.7755 29.8121C15.7329 29.8107 15.7363 29.704 15.6877 29.6747C15.34 29.4639 15.2145 29.4129 15.2644 28.9254C15.4994 28.852 15.3502 29.1423 15.4022 29.194C15.415 29.2069 15.579 29.1892 15.6648 29.2327C15.7458 29.2735 15.7829 29.3912 15.9085 29.4048C16.0833 29.4231 16.2602 29.2348 16.2771 29.0607C16.298 29.0634 16.323 29.0607 16.3446 29.0607L16.3439 29.0614Z" fill="#453040"/>
<path d="M10.6696 26.0696C10.5953 25.9948 10.0154 25.9153 9.85946 25.8656C9.85676 25.7629 9.91684 25.4685 9.99245 25.4175C10.1315 25.3223 10.7398 25.5052 10.7978 25.7065C10.8269 25.8071 10.7499 25.9935 10.6696 26.0703V26.0696Z" fill="#71808A"/>
<path d="M5.40896 13.9663C5.63916 14.088 5.52237 14.0839 5.61148 14.1703C5.68979 14.3675 5.72152 14.5021 5.7465 14.7143C5.48929 14.7945 5.21116 14.5803 5.00391 14.5783C5.01336 14.4681 5.07952 14.3906 5.13892 14.3063C5.22331 14.1859 5.33065 14.0901 5.40896 13.9663Z" fill="#DCDED8"/>
<path d="M21.7385 26.4089C21.6352 26.5639 20.5639 26.5959 20.9973 25.9336C21.1107 26.0866 21.9654 26.0669 21.7385 26.4089Z" fill="#453040"/>
<path d="M16.275 29.0612C15.951 29.015 15.8862 28.843 15.9719 28.5166C16.2912 28.6451 16.6538 28.6281 16.5451 29.0619C16.4776 29.0653 16.4101 29.0599 16.3426 29.0619C16.321 29.0619 16.296 29.0646 16.275 29.0619V29.0612Z" fill="#DCDED8"/>
<path d="M22.083 25.8656C21.6199 25.941 21.6395 25.7874 21.543 25.3896C21.5781 25.3896 21.6712 25.3073 21.7752 25.3202C22.0027 25.3495 22.108 25.6602 22.083 25.8656Z" fill="#DCDED8"/>
<path d="M18.1647 26.4775C18.1316 26.5748 18.0614 26.6088 17.9621 26.6135C17.977 26.587 17.9452 26.4918 17.9621 26.4775C17.9858 26.4571 18.114 26.4939 18.1647 26.4775Z" fill="#453040"/>
<path d="M15.938 2.47485C15.9502 2.52925 15.9205 2.64756 15.938 2.67884C15.7011 2.97191 15.5006 2.89847 15.398 3.29081C15.3669 3.40912 15.3035 3.46012 15.398 3.63079C15.1205 3.59135 15.0868 3.74434 15.1455 3.34248C15.2164 2.85903 15.3892 2.47893 15.938 2.47485Z" fill="#445063"/>
<path d="M21.6064 5.19475C21.624 5.18115 21.9291 5.32734 22.0432 5.26206C22.2025 5.56125 21.6334 5.66392 21.4714 5.80671C21.3938 5.63196 21.169 5.63332 21.0589 5.50209C20.9489 5.37086 21.0657 5.3491 21.0663 5.33074C21.2162 5.30762 21.4289 5.36678 21.5632 5.3321C21.6321 5.31374 21.601 5.19951 21.6064 5.19475Z" fill="#453040"/>
<path d="M21.2728 4.65088C21.3444 4.6808 21.6556 4.6978 21.6786 4.71955C21.6961 4.73587 21.5408 5.07246 21.6104 5.19485C21.605 5.19961 21.636 5.31384 21.5672 5.3322C21.4335 5.36756 21.2202 5.30772 21.0703 5.33084C21.0899 5.01942 21.1317 4.92694 21.2728 4.65088Z" fill="#445063"/>
<path d="M16.6144 3.29086C16.5394 3.28474 16.4038 3.21062 16.3443 3.22286C16.2951 3.02839 15.998 2.78225 15.9393 2.67889C15.9217 2.64762 15.9514 2.5293 15.9393 2.47491C16.4989 2.47015 16.6178 2.78973 16.6144 3.29086Z" fill="#DCDED8"/>
<path d="M5.81135 7.57461L5.27129 7.30263C5.27736 7.28155 5.26521 7.25503 5.27129 7.23463C5.31517 7.09184 5.46233 6.84501 5.64123 6.89533C5.73574 6.92185 5.83768 7.47874 5.81135 7.57461Z" fill="#DCDED8"/>
<path d="M10.8064 5.33094C10.4202 5.31326 9.92403 4.58434 10.5701 4.71897C10.8091 4.76861 10.7524 5.12559 10.8064 5.33094Z" fill="#DCDED8"/>
<path d="M16.6126 3.29104C16.6126 3.35019 16.6342 3.43655 16.6011 3.48143C16.5788 3.51203 15.9746 3.83161 15.9375 3.83501V3.42703C16.1285 3.42839 16.2872 3.2346 16.3425 3.22304C16.402 3.2108 16.5376 3.28492 16.6126 3.29104Z" fill="#445063"/>
<path d="M15.9375 3.42703V3.835C15.7991 3.84656 15.629 3.66365 15.3974 3.63101C15.3029 3.46034 15.3664 3.40935 15.3974 3.29103C15.5959 3.23596 15.7755 3.42567 15.9375 3.42703Z" fill="#453040"/>
<path d="M5.8087 7.57472C5.78777 7.65155 5.39082 7.83174 5.29429 7.84534C5.05531 7.87934 5.15117 7.72431 5.13362 7.71071C5.28686 7.5924 5.2342 7.41901 5.26863 7.30273L5.8087 7.57472Z" fill="#453040"/>
<path d="M5.40628 13.9665C5.32797 14.0903 5.22064 14.1862 5.13625 14.3065C5.05254 14.0508 4.98908 14.0842 4.7312 14.1025C4.71027 13.6619 5.143 13.8278 5.40628 13.9665Z" fill="#445063"/>
<path d="M10.3327 5.73884C10.033 5.76059 9.73124 5.7028 9.79335 5.33154C10.0938 5.2751 10.301 5.42945 10.3327 5.73884Z" fill="#445063"/>
<path d="M5.27078 7.23486C5.26471 7.25526 5.27686 7.28178 5.27078 7.30286C5.23635 7.41913 5.28901 7.59252 5.13577 7.71084C5.01965 7.61904 4.77662 7.59116 4.79823 7.30354L5.27078 7.23486Z" fill="#445063"/>
<path d="M6.17969 14.1021C6.22354 14.1245 6.22354 14.1476 6.17969 14.17V14.1021Z" fill="#445063"/>
<path d="M26.5364 13.9664L26.1988 14.6457C26.4459 14.647 26.6943 14.6457 26.9414 14.6464H27.3465C27.3546 14.8327 26.9016 15.2543 26.7409 15.2984C26.6687 15.3182 26.2481 15.2107 26.1799 15.1754C25.835 14.9979 26.055 14.4886 26.1988 14.2384C26.2299 14.184 26.3311 13.995 26.3514 13.982C26.4176 13.9406 26.4884 13.978 26.5364 13.9664Z" fill="#453040"/>
<path d="M26.0669 7.50673C25.861 6.992 26.185 6.80569 26.6738 6.89545C26.6974 7.04436 26.4989 7.10895 26.5388 7.26806C26.5786 7.42718 26.8129 7.3109 26.9101 7.30206C27.228 7.27282 26.7676 7.77736 26.6738 7.84739C26.6826 7.26806 26.4949 7.47001 26.0662 7.50741L26.0669 7.50673Z" fill="#445063"/>
<path d="M26.0625 7.50675C26.4912 7.46935 26.6789 7.26741 26.6701 7.84673C26.5074 7.96981 26.1476 7.72026 26.0625 7.50675Z" fill="#453040"/>
<path d="M25.4536 10.7706V10.5667C25.4572 10.6523 25.4515 10.7326 25.4536 10.7706Z" fill="#71808A"/>
<path d="M24.7108 20.4939L24.5089 21.1739C24.644 21.2249 24.9471 20.9746 24.9808 20.9699C25.0531 20.961 25.3832 21.1405 25.5209 21.1059C25.4601 21.5567 24.4104 22.0524 24.2652 21.3806C24.1971 21.0644 24.4509 20.7203 24.6433 20.4939H24.7108Z" fill="#453040"/>
<path d="M25.5231 21.1058C25.3854 21.1405 25.0552 20.961 24.983 20.9698C24.9891 20.7692 24.8946 20.5816 24.713 20.4939H24.6455C24.6576 20.4796 24.607 20.3681 24.6866 20.3524C24.7218 20.3456 25.3624 20.4354 25.3921 20.4558C25.4758 20.5129 25.5393 20.9841 25.5231 21.1058Z" fill="#DCDED8"/>
<path d="M26.9358 14.646C26.6225 14.5304 26.9101 14.0966 27.1039 14.1014C27.1336 14.102 27.3381 14.5855 27.3408 14.646H26.9358Z" fill="#DCDED8"/>
<path d="M16.3396 3.22292C16.2843 3.23448 16.1256 3.42827 15.9346 3.42691C15.7726 3.42555 15.593 3.23584 15.3945 3.29092C15.4971 2.89858 15.6976 2.97202 15.9346 2.67896C15.9933 2.78231 16.2904 3.02846 16.3396 3.22292Z" fill="#71808A"/>
<path d="M24.9836 20.9699C24.9492 20.9739 24.6461 21.2249 24.5117 21.1739L24.7136 20.4939C24.8952 20.5816 24.9897 20.7693 24.9836 20.9699Z" fill="#445063"/>
<path d="M15.26 11.5286L13.6468 11.9607L12.0078 13.9533V15.7407L13.6473 17.3802L15.26 18.3114L16.8728 17.3802L18.5123 15.7407V13.9533L16.8728 11.9607L15.26 11.5286Z" fill="#A8B1B7"/>
<path d="M14.9643 13.3386L14.5424 11.7791L12.0078 14.0173V15.8335L13.6234 17.4296L15.2561 18.3102L16.8155 17.4296L17.3842 16.8425L16.999 16.3839L15.7881 16.072L14.9643 13.6687V13.3386Z" fill="#94A0A9"/>
<path d="M15.2491 13.6421C15.2719 13.7442 15.2161 13.9664 15.2491 14.0252C14.8041 14.5756 14.4275 14.4377 14.2348 15.1745C14.1765 15.3967 14.0573 15.4924 14.2348 15.813C13.7138 15.7389 13.6504 16.0262 13.7607 15.2715C13.8938 14.3636 14.2183 13.6498 15.2491 13.6421Z" fill="#445063"/>
<path d="M16.5168 15.1746C16.3761 15.1631 16.1213 15.0239 16.0097 15.0469C15.9171 14.6817 15.3593 14.2194 15.249 14.0253C15.216 13.9665 15.2718 13.7443 15.249 13.6422C16.3 13.6332 16.5232 14.2334 16.5168 15.1746Z" fill="#DCDED8"/>
<path d="M16.5139 15.1749C16.5139 15.286 16.5545 15.4482 16.4924 15.5325C16.4505 15.59 15.3158 16.1901 15.2461 16.1965V15.4303C15.6049 15.4329 15.9028 15.0689 16.0068 15.0472C16.1184 15.0242 16.3732 15.1634 16.5139 15.1749Z" fill="#445063"/>
<path d="M15.2484 15.4302V16.1964C14.9885 16.2181 14.669 15.8746 14.2341 15.8133C14.0566 15.4928 14.1758 15.397 14.2341 15.1748C14.6069 15.0714 14.9441 15.4277 15.2484 15.4302Z" fill="#453040"/>
<path d="M16.0015 15.047C15.8976 15.0687 15.5996 15.4326 15.2408 15.4301C14.9365 15.4275 14.5993 15.0712 14.2266 15.1747C14.4193 14.4379 14.7958 14.5758 15.2408 14.0254C15.3511 14.2195 15.909 14.6818 16.0015 15.047Z" fill="#71808A"/>
</g>
<defs>
<clipPath id="clip0_108_77">
<rect width="32" height="32" fill="white"/>
</clipPath>
</defs>
</svg>
